<?xml version="1.0" encoding="utf-8"?>
<!-- Generator: Adobe Illustrator 16.0.0, SVG Export Plug-In . SVG Version: 6.00 Build 0)  -->
<!DOCTYPE svg PUBLIC "-//W3C//DTD SVG 1.1//EN" "http://www.w3.org/Graphics/SVG/1.1/DTD/svg11.dtd">
<svg version="1.1" xmlns="http://www.w3.org/2000/svg" xmlns:xlink="http://www.w3.org/1999/xlink" x="0px" y="0px"
	 width="165.186px" height="29.514px" viewBox="0 0 165.186 29.514" enable-background="new 0 0 165.186 29.514"
	 xml:space="preserve">
<g id="Calque_2">
</g>
<g id="Calque_1">
	<g>
		<line fill="none" stroke="#4CACD6" stroke-width="3" stroke-miterlimit="10" x1="660" y1="16.958" x2="875" y2="16.958"/>
		<line fill="none" stroke="#FFFFFF" stroke-width="3" stroke-miterlimit="10" x1="660" y1="14.958" x2="875" y2="14.958"/>
		<line fill="none" stroke="#4CACD6" stroke-width="3" stroke-miterlimit="10" x1="1085" y1="17.958" x2="1300" y2="17.958"/>
		<line fill="none" stroke="#FFFFFF" stroke-width="3" stroke-miterlimit="10" x1="1085" y1="15.958" x2="1300" y2="15.958"/>
	</g>
	<g>
		<line fill="none" stroke="#4CACD6" stroke-width="3" stroke-miterlimit="10" x1="1980" y1="15.958" x2="2195" y2="15.958"/>
		<line fill="none" stroke="#FFFFFF" stroke-width="3" stroke-miterlimit="10" x1="1980" y1="13.958" x2="2195" y2="13.958"/>
		<line fill="none" stroke="#4CACD6" stroke-width="3" stroke-miterlimit="10" x1="2405" y1="16.958" x2="2620" y2="16.958"/>
		<line fill="none" stroke="#FFFFFF" stroke-width="3" stroke-miterlimit="10" x1="2405" y1="14.958" x2="2620" y2="14.958"/>
	</g>
	<g>
		<line fill="none" stroke="#4CACD6" stroke-width="3" stroke-miterlimit="10" x1="1320" y1="16.958" x2="1535" y2="16.958"/>
		<line fill="none" stroke="#FFFFFF" stroke-width="3" stroke-miterlimit="10" x1="1320" y1="14.958" x2="1535" y2="14.958"/>
		<line fill="none" stroke="#4CACD6" stroke-width="3" stroke-miterlimit="10" x1="1745" y1="17.958" x2="1960" y2="17.958"/>
		<line fill="none" stroke="#FFFFFF" stroke-width="3" stroke-miterlimit="10" x1="1745" y1="15.958" x2="1960" y2="15.958"/>
	</g>
	<path fill="#FFFFFF" d="M25.155,28.514h-5.112V17.795H6.114v10.719H1V2.878h5.114v11.285h13.929V2.878h5.112V28.514z"/>
	<path fill="#FFFFFF" d="M33.935,28.514c-1.6,0-2.844-0.411-3.735-1.232c-0.896-0.823-1.34-2.095-1.34-3.811V2.878h5.18v20.276
		c0,0.589,0.108,0.978,0.32,1.163c0.211,0.189,0.623,0.284,1.234,0.284h9.942c0.611,0,1.041-0.101,1.287-0.301
		c0.249-0.199,0.371-0.593,0.371-1.18V2.878h5.185v20.593c0,1.716-0.446,2.987-1.339,3.811c-0.896,0.821-2.138,1.232-3.738,1.232
		H33.935z"/>
	<path fill="#FFFFFF" d="M85.662,28.514h-5.075V9.297l-9.732,17.137L60.981,9.262v19.252h-4.9V2.878h6.309l8.465,14.846
		l8.356-14.846h6.451V28.514z"/>
	<path fill="#FFFFFF" d="M109.572,6.969H94.445v7.158h14.634l-0.317,3.668H94.445v6.806h15.127l-0.425,3.913h-19.78V2.878h19.607
		L109.572,6.969z"/>
	<path fill="#FFFFFF" d="M118.068,28.514c-1.598,0-2.842-0.411-3.734-1.232c-0.896-0.823-1.342-2.095-1.342-3.811V2.878h5.184
		v20.276c0,0.589,0.106,0.978,0.317,1.163c0.211,0.189,0.624,0.284,1.236,0.284h9.942c0.609,0,1.037-0.101,1.286-0.301
		c0.246-0.199,0.371-0.593,0.371-1.18V2.878h5.183v20.593c0,1.716-0.444,2.987-1.339,3.811c-0.895,0.821-2.139,1.232-3.739,1.232
		H118.068z"/>
	<path fill="#FFFFFF" d="M163.313,28.514h-5.29l-0.318-5.465c-0.049-0.707-0.119-1.312-0.211-1.818
		c-0.095-0.504-0.272-0.927-0.53-1.268c-0.257-0.341-0.621-0.594-1.094-0.758c-0.468-0.166-1.091-0.248-1.868-0.248h-8.708v9.557
		h-5.078V2.878h18.478c0.845,0,1.545,0.106,2.098,0.317c0.551,0.213,0.993,0.507,1.322,0.884c0.33,0.375,0.565,0.823,0.705,1.339
		c0.14,0.518,0.211,1.095,0.211,1.728v7.123c0,0.329-0.071,0.688-0.211,1.075c-0.14,0.388-0.383,0.741-0.724,1.057
		c-0.34,0.317-0.774,0.577-1.304,0.778c-0.53,0.2-1.182,0.3-1.956,0.3c1.174,0.046,2.109,0.357,2.803,0.933
		c0.691,0.576,1.065,1.371,1.112,2.382L163.313,28.514z M158.057,8.167c0-0.939-0.471-1.409-1.41-1.409h-11.353v8.533h11.247
		c0.423,0,0.732-0.054,0.936-0.16c0.199-0.104,0.348-0.247,0.44-0.423c0.095-0.176,0.14-0.371,0.14-0.581c0-0.211,0-0.41,0-0.6
		V8.167z"/>
	<path fill="#593D3F" d="M27.151,28.513h-5.112V17.794H8.109v10.719H2.996V2.878h5.113v11.285h13.93V2.878h5.112V28.513z"/>
	<path fill="#593D3F" d="M35.931,28.513c-1.6,0-2.845-0.41-3.736-1.233c-0.896-0.82-1.34-2.093-1.34-3.809V2.878h5.18v20.277
		c0,0.587,0.109,0.979,0.32,1.16c0.211,0.191,0.623,0.286,1.234,0.286h9.943c0.611,0,1.04-0.101,1.287-0.301
		c0.249-0.2,0.371-0.593,0.371-1.179V2.878h5.185v20.593c0,1.716-0.447,2.988-1.34,3.809c-0.896,0.823-2.138,1.233-3.738,1.233
		H35.931z"/>
	<path fill="#593D3F" d="M87.659,28.513h-5.077V9.297l-9.731,17.138L62.978,9.262v19.251h-4.901V2.878h6.309l8.465,14.846
		l8.356-14.846h6.452V28.513z"/>
	<path fill="#593D3F" d="M111.569,6.969H96.441v7.158h14.634l-0.317,3.667H96.441v6.807h15.128l-0.426,3.912h-19.78V2.878h19.607
		L111.569,6.969z"/>
	<path fill="#593D3F" d="M120.064,28.513c-1.598,0-2.842-0.41-3.734-1.233c-0.896-0.82-1.341-2.093-1.341-3.809V2.878h5.183v20.277
		c0,0.587,0.106,0.979,0.317,1.16c0.211,0.191,0.624,0.286,1.236,0.286h9.942c0.609,0,1.037-0.101,1.287-0.301
		c0.245-0.2,0.37-0.593,0.37-1.179V2.878h5.183v20.593c0,1.716-0.444,2.988-1.339,3.809c-0.895,0.823-2.139,1.233-3.739,1.233
		H120.064z"/>
	<path fill="#593D3F" d="M165.31,28.513h-5.29l-0.318-5.464c-0.05-0.705-0.118-1.31-0.211-1.816c-0.095-0.505-0.272-0.927-0.53-1.27
		c-0.257-0.341-0.621-0.593-1.094-0.76c-0.468-0.164-1.09-0.246-1.868-0.246h-8.707v9.556h-5.079V2.878h18.478
		c0.845,0,1.545,0.106,2.098,0.317c0.551,0.213,0.993,0.507,1.322,0.884c0.33,0.375,0.565,0.823,0.705,1.339
		c0.14,0.518,0.211,1.094,0.211,1.728v7.123c0,0.329-0.071,0.688-0.211,1.076c-0.14,0.387-0.383,0.74-0.723,1.056
		c-0.341,0.319-0.774,0.577-1.305,0.778c-0.53,0.197-1.182,0.3-1.955,0.3c1.173,0.046,2.108,0.358,2.803,0.933
		c0.69,0.577,1.064,1.373,1.109,2.382L165.31,28.513z M160.054,8.167c0-0.939-0.471-1.409-1.411-1.409h-11.352v8.534h11.247
		c0.422,0,0.731-0.055,0.936-0.161c0.198-0.104,0.348-0.247,0.44-0.423c0.094-0.176,0.14-0.371,0.14-0.581c0-0.211,0-0.41,0-0.6
		V8.167z"/>
	<g>
		<path fill="#4CACD6" d="M2266.122,23.207l-0.384,3.875h-18.467V1.703h5.097v21.503H2266.122z"/>
		<path fill="#4CACD6" d="M2274.466,27.082h-5.027V1.703h5.027V27.082z"/>
		<path fill="#4CACD6" d="M2285.565,27.082l-8.238-25.378h5.133l6.667,21.503h2.688l6.634-21.503h5.13l-8.167,25.378H2285.565z"/>
		<path fill="#4CACD6" d="M2329.237,27.082h-5.236l-0.315-5.41c-0.047-0.699-0.116-1.297-0.209-1.798
			c-0.094-0.501-0.269-0.919-0.523-1.258c-0.256-0.337-0.617-0.586-1.081-0.75c-0.467-0.162-1.083-0.245-1.852-0.245h-8.621v9.461
			h-5.027V1.703h18.292c0.837,0,1.53,0.105,2.077,0.314c0.547,0.21,0.982,0.501,1.309,0.874c0.326,0.372,0.559,0.815,0.698,1.326
			c0.14,0.512,0.208,1.083,0.208,1.711v7.05c0,0.327-0.068,0.683-0.208,1.066c-0.14,0.384-0.378,0.733-0.716,1.047
			c-0.337,0.314-0.768,0.57-1.291,0.77c-0.524,0.195-1.169,0.296-1.938,0.296c1.163,0.047,2.088,0.354,2.775,0.926
			c0.686,0.569,1.053,1.354,1.1,2.355L2329.237,27.082z M2324.035,6.94c0-0.931-0.466-1.396-1.396-1.396h-11.24v8.448h11.135
			c0.419,0,0.727-0.053,0.926-0.157c0.197-0.104,0.342-0.245,0.436-0.42c0.093-0.173,0.14-0.367,0.14-0.575c0-0.209,0-0.407,0-0.595
			V6.94z"/>
		<path fill="#4CACD6" d="M2352.729,5.753h-14.975v7.087h14.486l-0.313,3.629h-14.173v6.737h14.975l-0.419,3.875h-19.583V1.703
			h19.409L2352.729,5.753z"/>
	</g>
	<g>
		<path fill="#FFFFFF" d="M2268.122,23.207l-0.384,3.875h-18.467V1.703h5.097v21.503H2268.122z"/>
		<path fill="#FFFFFF" d="M2276.466,27.082h-5.027V1.703h5.027V27.082z"/>
		<path fill="#FFFFFF" d="M2287.565,27.082l-8.238-25.378h5.133l6.667,21.503h2.688l6.634-21.503h5.13l-8.167,25.378H2287.565z"/>
		<path fill="#FFFFFF" d="M2331.237,27.082h-5.236l-0.315-5.41c-0.047-0.699-0.116-1.297-0.209-1.798
			c-0.094-0.501-0.269-0.919-0.523-1.258c-0.256-0.337-0.617-0.586-1.081-0.75c-0.467-0.162-1.083-0.245-1.852-0.245h-8.621v9.461
			h-5.027V1.703h18.292c0.837,0,1.53,0.105,2.077,0.314c0.547,0.21,0.982,0.501,1.309,0.874c0.326,0.372,0.559,0.815,0.698,1.326
			c0.14,0.512,0.208,1.083,0.208,1.711v7.05c0,0.327-0.068,0.683-0.208,1.066c-0.14,0.384-0.378,0.733-0.716,1.047
			c-0.337,0.314-0.768,0.57-1.291,0.77c-0.524,0.195-1.169,0.296-1.938,0.296c1.163,0.047,2.088,0.354,2.775,0.926
			c0.686,0.569,1.053,1.354,1.1,2.355L2331.237,27.082z M2326.035,6.94c0-0.931-0.466-1.396-1.396-1.396h-11.24v8.448h11.135
			c0.419,0,0.727-0.053,0.926-0.157c0.197-0.104,0.342-0.245,0.436-0.42c0.093-0.173,0.14-0.367,0.14-0.575c0-0.209,0-0.407,0-0.595
			V6.94z"/>
		<path fill="#FFFFFF" d="M2354.729,5.753h-14.975v7.087h14.486l-0.313,3.629h-14.173v6.737h14.975l-0.419,3.875h-19.583V1.703
			h19.409L2354.729,5.753z"/>
	</g>
	<g>
		<path fill="#4CACD6" d="M1588.766,27.272H1584V9.242l-9.132,16.079l-9.262-16.111v18.062h-4.599V3.221h5.923l7.938,13.928
			l7.843-13.928h6.055V27.272z"/>
		<path fill="#4CACD6" d="M1597.004,27.272c-1.502,0-2.671-0.385-3.508-1.157c-0.837-0.771-1.258-1.962-1.258-3.573V3.221h4.863
			v19.022c0,0.553,0.1,0.918,0.299,1.092c0.196,0.178,0.584,0.266,1.157,0.266h9.329c0.573,0,0.975-0.093,1.206-0.281
			c0.231-0.188,0.35-0.556,0.35-1.107V3.221h4.862v19.321c0,1.611-0.42,2.803-1.257,3.573c-0.837,0.772-2.006,1.157-3.508,1.157
			H1597.004z"/>
		<path fill="#4CACD6" d="M1623.766,6.959c-0.527,0-0.883,0.078-1.058,0.231c-0.178,0.155-0.267,0.486-0.267,0.994v6.781h11.911
			c0.727,0,1.324,0.072,1.787,0.215c0.463,0.145,0.827,0.365,1.093,0.662c0.265,0.297,0.444,0.662,0.545,1.092
			c0.1,0.43,0.15,0.942,0.15,1.539v6.053c0,0.773-0.296,1.424-0.878,1.953c-0.587,0.528-1.405,0.793-2.466,0.793h-15.848
			l-0.627-3.672h13.96c0.576,0,0.926-0.127,1.061-0.381c0.132-0.253,0.199-0.578,0.199-0.977V19.63c0-0.507-0.081-0.85-0.231-1.026
			c-0.156-0.176-0.533-0.265-1.125-0.265h-11.712c-0.775,0-1.39-0.214-1.853-0.645c-0.463-0.43-0.694-1.063-0.694-1.902v-9.76
			c0-0.815,0.285-1.489,0.858-2.018c0.573-0.529,1.39-0.794,2.447-0.794h13.597c1.061,0,1.853,0.254,2.386,0.761
			c0.527,0.509,0.791,1.191,0.791,2.051v4.599h-4.432V8.117c0-0.506-0.083-0.827-0.248-0.958c-0.166-0.133-0.524-0.199-1.076-0.199
			H1623.766z"/>
		<path fill="#4CACD6" d="M1646.263,27.272h-4.765V3.221h4.765V27.272z"/>
		<path fill="#4CACD6" d="M1659.528,27.272h-4.763c-0.754,0-1.43-0.07-2.035-0.215c-0.609-0.143-1.126-0.379-1.557-0.711
			c-0.431-0.331-0.76-0.771-0.991-1.323s-0.35-1.224-0.35-2.018V7.489c0-0.794,0.118-1.467,0.35-2.019
			c0.231-0.551,0.561-0.992,0.991-1.323c0.431-0.33,0.947-0.567,1.557-0.711c0.605-0.143,1.281-0.215,2.035-0.215h13.332
			c0.748,0,1.427,0.073,2.033,0.215c0.605,0.144,1.125,0.381,1.553,0.711c0.432,0.331,0.763,0.772,0.996,1.323
			c0.232,0.552,0.345,1.225,0.345,2.019v15.516c0,0.794-0.112,1.466-0.345,2.018c-0.233,0.552-0.564,0.992-0.996,1.323
			c-0.428,0.332-0.947,0.568-1.553,0.711c-0.606,0.145-1.285,0.215-2.033,0.215h-4.83v3.242h-3.739V27.272z M1654.599,22.277
			c0,0.552,0.091,0.915,0.28,1.092c0.188,0.177,0.567,0.265,1.141,0.265h3.509v-5.393h3.739v5.393h3.441
			c0.57,0,0.975-0.094,1.206-0.281c0.231-0.187,0.347-0.557,0.347-1.109V8.25c0-0.552-0.115-0.921-0.347-1.108
			c-0.231-0.188-0.636-0.281-1.206-0.281h-10.689c-0.573,0-0.953,0.087-1.141,0.264c-0.189,0.178-0.28,0.541-0.28,1.092V22.277z"/>
		<path fill="#4CACD6" d="M1681.264,27.272c-1.503,0-2.671-0.385-3.506-1.157c-0.84-0.771-1.26-1.962-1.26-3.573V3.221h4.862v19.022
			c0,0.553,0.103,0.918,0.302,1.092c0.196,0.178,0.581,0.266,1.157,0.266h9.326c0.576,0,0.978-0.093,1.209-0.281
			c0.231-0.188,0.348-0.556,0.348-1.107V3.221h4.862v19.321c0,1.611-0.418,2.803-1.255,3.573c-0.84,0.772-2.009,1.157-3.508,1.157
			H1681.264z"/>
		<path fill="#4CACD6" d="M1720.991,7.059h-14.188v6.716h13.726l-0.296,3.441h-13.43V23.6h14.188l-0.394,3.672h-18.561V3.221h18.395
			L1720.991,7.059z"/>
	</g>
	<g>
		<path fill="#FFFFFF" d="M1590.766,27.272H1586V9.242l-9.132,16.079l-9.262-16.111v18.062h-4.599V3.221h5.923l7.938,13.928
			l7.843-13.928h6.055V27.272z"/>
		<path fill="#FFFFFF" d="M1599.004,27.272c-1.502,0-2.671-0.385-3.508-1.157c-0.837-0.771-1.258-1.962-1.258-3.573V3.221h4.863
			v19.022c0,0.553,0.1,0.918,0.299,1.092c0.196,0.178,0.584,0.266,1.157,0.266h9.329c0.573,0,0.975-0.093,1.206-0.281
			c0.231-0.188,0.35-0.556,0.35-1.107V3.221h4.862v19.321c0,1.611-0.42,2.803-1.257,3.573c-0.837,0.772-2.006,1.157-3.508,1.157
			H1599.004z"/>
		<path fill="#FFFFFF" d="M1625.766,6.959c-0.527,0-0.883,0.078-1.058,0.231c-0.178,0.155-0.267,0.486-0.267,0.994v6.781h11.911
			c0.727,0,1.324,0.072,1.787,0.215c0.463,0.145,0.827,0.365,1.093,0.662c0.265,0.297,0.444,0.662,0.545,1.092
			c0.1,0.43,0.15,0.942,0.15,1.539v6.053c0,0.773-0.296,1.424-0.878,1.953c-0.587,0.528-1.405,0.793-2.466,0.793h-15.848
			l-0.627-3.672h13.96c0.576,0,0.926-0.127,1.061-0.381c0.132-0.253,0.199-0.578,0.199-0.977V19.63c0-0.507-0.081-0.85-0.231-1.026
			c-0.156-0.176-0.533-0.265-1.125-0.265h-11.712c-0.775,0-1.39-0.214-1.853-0.645c-0.463-0.43-0.694-1.063-0.694-1.902v-9.76
			c0-0.815,0.285-1.489,0.858-2.018c0.573-0.529,1.39-0.794,2.447-0.794h13.597c1.061,0,1.853,0.254,2.386,0.761
			c0.527,0.509,0.791,1.191,0.791,2.051v4.599h-4.432V8.117c0-0.506-0.083-0.827-0.248-0.958c-0.166-0.133-0.524-0.199-1.076-0.199
			H1625.766z"/>
		<path fill="#FFFFFF" d="M1648.263,27.272h-4.765V3.221h4.765V27.272z"/>
		<path fill="#FFFFFF" d="M1661.528,27.272h-4.763c-0.754,0-1.43-0.07-2.035-0.215c-0.609-0.143-1.126-0.379-1.557-0.711
			c-0.431-0.331-0.76-0.771-0.991-1.323s-0.35-1.224-0.35-2.018V7.489c0-0.794,0.118-1.467,0.35-2.019
			c0.231-0.551,0.561-0.992,0.991-1.323c0.431-0.33,0.947-0.567,1.557-0.711c0.605-0.143,1.281-0.215,2.035-0.215h13.332
			c0.748,0,1.427,0.073,2.033,0.215c0.605,0.144,1.125,0.381,1.553,0.711c0.432,0.331,0.763,0.772,0.996,1.323
			c0.232,0.552,0.345,1.225,0.345,2.019v15.516c0,0.794-0.112,1.466-0.345,2.018c-0.233,0.552-0.564,0.992-0.996,1.323
			c-0.428,0.332-0.947,0.568-1.553,0.711c-0.606,0.145-1.285,0.215-2.033,0.215h-4.83v3.242h-3.739V27.272z M1656.599,22.277
			c0,0.552,0.091,0.915,0.28,1.092c0.188,0.177,0.567,0.265,1.141,0.265h3.509v-5.393h3.739v5.393h3.441
			c0.57,0,0.975-0.094,1.206-0.281c0.231-0.187,0.347-0.557,0.347-1.109V8.25c0-0.552-0.115-0.921-0.347-1.108
			c-0.231-0.188-0.636-0.281-1.206-0.281h-10.689c-0.573,0-0.953,0.087-1.141,0.264c-0.189,0.178-0.28,0.541-0.28,1.092V22.277z"/>
		<path fill="#FFFFFF" d="M1683.264,27.272c-1.503,0-2.671-0.385-3.506-1.157c-0.84-0.771-1.26-1.962-1.26-3.573V3.221h4.862v19.022
			c0,0.553,0.103,0.918,0.302,1.092c0.196,0.178,0.581,0.266,1.157,0.266h9.326c0.576,0,0.978-0.093,1.209-0.281
			c0.231-0.188,0.348-0.556,0.348-1.107V3.221h4.862v19.321c0,1.611-0.418,2.803-1.255,3.573c-0.84,0.772-2.009,1.157-3.508,1.157
			H1683.264z"/>
		<path fill="#FFFFFF" d="M1722.991,7.059h-14.188v6.716h13.726l-0.296,3.441h-13.43V23.6h14.188l-0.394,3.672h-18.561V3.221h18.395
			L1722.991,7.059z"/>
	</g>
	<g>
		<g>
			<path fill="#4CACD6" d="M935.384,8.178c-0.529,0-0.879,0.077-1.056,0.23c-0.177,0.154-0.264,0.484-0.264,0.99v6.761h11.873
				c0.725,0,1.318,0.07,1.78,0.213c0.46,0.144,0.823,0.363,1.087,0.66c0.263,0.297,0.444,0.66,0.544,1.088
				c0.099,0.429,0.146,0.939,0.146,1.534v6.035c0,0.77-0.289,1.417-0.874,1.945c-0.579,0.526-1.4,0.791-2.453,0.791h-15.796
				l-0.628-3.659h13.919c0.568,0,0.922-0.128,1.051-0.381c0.135-0.253,0.199-0.577,0.199-0.974v-2.604
				c0-0.506-0.076-0.847-0.231-1.023c-0.153-0.176-0.526-0.264-1.122-0.264h-11.673c-0.768,0-1.385-0.214-1.848-0.644
				c-0.461-0.427-0.692-1.06-0.692-1.896V7.254c0-0.813,0.287-1.484,0.859-2.011c0.572-0.528,1.385-0.792,2.439-0.792H946.2
				c1.056,0,1.847,0.253,2.373,0.758c0.528,0.506,0.792,1.188,0.792,2.044v4.584h-4.42V9.332c0-0.504-0.081-0.823-0.248-0.955
				c-0.162-0.133-0.521-0.198-1.07-0.198H935.384z"/>
			<path fill="#4CACD6" d="M971.69,8.277h-14.146v6.694h13.685l-0.296,3.431h-13.389v6.365h14.146l-0.395,3.659h-18.499V4.452
				h18.335L971.69,8.277z M969.383,0.388l-6.033,2.53h-3.135l4.189-2.53H969.383z"/>
			<path fill="#4CACD6" d="M996.49,28.426h-4.945l-0.299-5.111c-0.045-0.659-0.109-1.226-0.196-1.698
				c-0.091-0.473-0.255-0.868-0.496-1.188c-0.24-0.318-0.581-0.555-1.021-0.709c-0.44-0.152-1.02-0.23-1.747-0.23h-8.145v8.937
				h-4.752V4.452h17.284c0.789,0,1.442,0.1,1.958,0.296c0.52,0.199,0.929,0.474,1.237,0.826c0.309,0.351,0.529,0.771,0.661,1.253
				c0.131,0.484,0.195,1.022,0.195,1.616v6.661c0,0.309-0.064,0.645-0.195,1.007c-0.132,0.362-0.357,0.691-0.677,0.988
				c-0.318,0.297-0.725,0.54-1.222,0.727c-0.493,0.187-1.104,0.28-1.83,0.28c1.101,0.044,1.976,0.335,2.625,0.873
				c0.646,0.54,0.993,1.281,1.037,2.226L996.49,28.426z M991.577,9.399c0-0.879-0.44-1.319-1.321-1.319h-10.615v7.98h10.52
				c0.394,0,0.687-0.05,0.874-0.149c0.187-0.098,0.323-0.23,0.411-0.396c0.089-0.164,0.132-0.346,0.132-0.544
				c0-0.196,0-0.383,0-0.561V9.399z"/>
			<path fill="#4CACD6" d="M1004.699,28.426h-4.746V4.452h4.746V28.426z"/>
			<path fill="#4CACD6" d="M1027.156,8.277h-14.146v6.694h13.685l-0.295,3.431h-13.39v6.365h14.146l-0.393,3.659h-18.5V4.452h18.336
				L1027.156,8.277z"/>
		</g>
		<g>
			<path fill="#FFFFFF" d="M937.271,8.178c-0.53,0-0.879,0.077-1.056,0.23c-0.177,0.154-0.264,0.484-0.264,0.99v6.761h11.872
				c0.726,0,1.319,0.07,1.781,0.213c0.46,0.144,0.823,0.363,1.087,0.66c0.262,0.297,0.444,0.66,0.544,1.088
				c0.099,0.429,0.146,0.939,0.146,1.534v6.035c0,0.77-0.289,1.417-0.874,1.945c-0.579,0.526-1.4,0.791-2.453,0.791h-15.796
				l-0.629-3.659h13.919c0.568,0,0.923-0.128,1.052-0.381c0.134-0.253,0.198-0.577,0.198-0.974v-2.604
				c0-0.506-0.075-0.847-0.23-1.023c-0.153-0.176-0.526-0.264-1.122-0.264h-11.674c-0.767,0-1.384-0.214-1.847-0.644
				c-0.461-0.427-0.692-1.06-0.692-1.896V7.254c0-0.813,0.287-1.484,0.859-2.011c0.571-0.528,1.384-0.792,2.438-0.792h13.556
				c1.056,0,1.846,0.253,2.373,0.758c0.528,0.506,0.792,1.188,0.792,2.044v4.584h-4.421V9.332c0-0.504-0.081-0.823-0.247-0.955
				c-0.162-0.133-0.521-0.198-1.07-0.198H937.271z"/>
			<path fill="#FFFFFF" d="M973.577,8.277h-14.146v6.694h13.685l-0.296,3.431h-13.389v6.365h14.146l-0.395,3.659h-18.499V4.452
				h18.335L973.577,8.277z M971.269,0.388l-6.032,2.53h-3.136l4.189-2.53H971.269z"/>
			<path fill="#FFFFFF" d="M998.377,28.426h-4.945l-0.299-5.111c-0.045-0.659-0.109-1.226-0.196-1.698
				c-0.091-0.473-0.255-0.868-0.496-1.188c-0.24-0.318-0.581-0.555-1.021-0.709c-0.44-0.152-1.021-0.23-1.748-0.23h-8.145v8.937
				h-4.751V4.452h17.284c0.788,0,1.442,0.1,1.958,0.296c0.519,0.199,0.929,0.474,1.237,0.826c0.309,0.351,0.528,0.771,0.66,1.253
				c0.132,0.484,0.195,1.022,0.195,1.616v6.661c0,0.309-0.063,0.645-0.195,1.007s-0.357,0.691-0.676,0.988s-0.725,0.54-1.222,0.727
				c-0.493,0.187-1.104,0.28-1.83,0.28c1.101,0.044,1.975,0.335,2.625,0.873c0.646,0.54,0.993,1.281,1.036,2.226L998.377,28.426z
				 M993.464,9.399c0-0.879-0.44-1.319-1.321-1.319h-10.616v7.98h10.521c0.394,0,0.687-0.05,0.874-0.149
				c0.187-0.098,0.322-0.23,0.411-0.396c0.088-0.164,0.132-0.346,0.132-0.544c0-0.196,0-0.383,0-0.561V9.399z"/>
			<path fill="#FFFFFF" d="M1006.586,28.426h-4.746V4.452h4.746V28.426z"/>
			<path fill="#FFFFFF" d="M1029.043,8.277h-14.146v6.694h13.685l-0.295,3.431h-13.39v6.365h14.146l-0.394,3.659h-18.499V4.452
				h18.335L1029.043,8.277z"/>
		</g>
	</g>
	<path fill="#593D3F" d="M83-43.542c0,11.046-8.954,20-20,20H30c-11.046,0-20-8.954-20-20v-2c0-11.046,8.954-20,20-20h33
		c11.046,0,20,8.954,20,20V-43.542z"/>
</g>
</svg>
