<?xml version="1.0" encoding="utf-8"?>
<!-- Generator: Adobe Illustrator 16.0.0, SVG Export Plug-In . SVG Version: 6.00 Build 0)  -->
<!DOCTYPE svg PUBLIC "-//W3C//DTD SVG 1.1//EN" "http://www.w3.org/Graphics/SVG/1.1/DTD/svg11.dtd">
<svg version="1.1" xmlns="http://www.w3.org/2000/svg" xmlns:xlink="http://www.w3.org/1999/xlink" x="0px" y="0px"
	 width="75.203px" height="73.398px" viewBox="0 0 75.203 73.398" enable-background="new 0 0 75.203 73.398" xml:space="preserve">
<g id="Calque_1">
	<g id="Layer_1_copy">
		<g>
			<g>
				<path fill="#1A1A1A" d="M57.212,73.399H17.991C8.097,73.399,0,65.301,0,55.407V19.066C0,9.169,8.097,1.074,17.991,1.074h39.221
					c9.895,0,17.991,8.096,17.991,17.991v36.342C75.203,65.302,67.106,73.399,57.212,73.399z"/>
			</g>
		</g>
		
			<linearGradient id="SVGID_1_" gradientUnits="userSpaceOnUse" x1="564.8936" y1="231.637" x2="738.5264" y2="58.0041" gradientTransform="matrix(0.3598 0 0 -0.3598 -196.884 89.3433)">
			<stop  offset="0.0179" style="stop-color:#F9BF7F;stop-opacity:0.1"/>
			<stop  offset="0.1787" style="stop-color:#F7BD7E;stop-opacity:0.4402"/>
			<stop  offset="0.2366" style="stop-color:#F0B879;stop-opacity:0.5627"/>
			<stop  offset="0.2779" style="stop-color:#E5AE71;stop-opacity:0.65"/>
			<stop  offset="0.3112" style="stop-color:#D4A065;stop-opacity:0.7206"/>
			<stop  offset="0.3395" style="stop-color:#BE8E56;stop-opacity:0.7804"/>
			<stop  offset="0.3487" style="stop-color:#B58650;stop-opacity:0.8"/>
			<stop  offset="0.4069" style="stop-color:#8E693E;stop-opacity:0.8926"/>
			<stop  offset="0.4744" style="stop-color:#5B4428"/>
			<stop  offset="0.5867" style="stop-color:#916B40"/>
			<stop  offset="0.6718" style="stop-color:#B58650"/>
			<stop  offset="0.681" style="stop-color:#BE8E56;stop-opacity:0.9748"/>
			<stop  offset="0.709" style="stop-color:#D4A065;stop-opacity:0.898"/>
			<stop  offset="0.7421" style="stop-color:#E5AE71;stop-opacity:0.8072"/>
			<stop  offset="0.7831" style="stop-color:#F0B879;stop-opacity:0.6949"/>
			<stop  offset="0.8405" style="stop-color:#F7BD7E;stop-opacity:0.5374"/>
			<stop  offset="1" style="stop-color:#F9BF7F;stop-opacity:0.1"/>
		</linearGradient>
		<path fill="url(#SVGID_1_)" d="M56.851,73.038h-38.5c-9.896,0-17.99-8.096-17.99-17.991V19.425c0-9.895,8.096-17.99,17.99-17.99
			h38.5c9.896,0,17.992,8.097,17.992,17.99v35.622C74.843,64.943,66.747,73.038,56.851,73.038z"/>
		
			<linearGradient id="SVGID_2_" gradientUnits="userSpaceOnUse" x1="564.8906" y1="58.0032" x2="738.5248" y2="231.6372" gradientTransform="matrix(0.3598 0 0 -0.3598 -196.884 89.3433)">
			<stop  offset="0.0179" style="stop-color:#F9BF7F;stop-opacity:0.1"/>
			<stop  offset="0.135" style="stop-color:#E4AE71;stop-opacity:0.3478"/>
			<stop  offset="0.3487" style="stop-color:#B58650;stop-opacity:0.8"/>
			<stop  offset="0.349" style="stop-color:#B58650;stop-opacity:0.8003"/>
			<stop  offset="0.4296" style="stop-color:#84623A;stop-opacity:0.8914"/>
			<stop  offset="0.491" style="stop-color:#664C2D;stop-opacity:0.9608"/>
			<stop  offset="0.5256" style="stop-color:#5B4428"/>
			<stop  offset="0.5907" style="stop-color:#8A673D"/>
			<stop  offset="0.6428" style="stop-color:#A97D4B"/>
			<stop  offset="0.6718" style="stop-color:#B58650"/>
			<stop  offset="0.7151" style="stop-color:#BF8F57;stop-opacity:0.8813"/>
			<stop  offset="0.9033" style="stop-color:#E9B274;stop-opacity:0.3652"/>
			<stop  offset="1" style="stop-color:#F9BF7F;stop-opacity:0.1"/>
		</linearGradient>
		<path fill="url(#SVGID_2_)" d="M56.851,73.038h-38.5c-9.896,0-17.99-8.096-17.99-17.991V19.425c0-9.895,8.096-17.99,17.99-17.99
			h38.5c9.896,0,17.992,8.097,17.992,17.99v35.622C74.843,64.943,66.747,73.038,56.851,73.038z"/>
		<path fill="#E3E3E3" d="M51.419,65.014h-27.6c-9.895,0-17.99-8.097-17.99-17.99v-27.6c0-9.895,8.098-17.99,17.99-17.99h27.6
			c9.895,0,17.99,8.097,17.99,17.99v27.6C69.409,56.918,61.313,65.014,51.419,65.014z"/>
		
			<radialGradient id="SVGID_3_" cx="651.7109" cy="63.7356" r="117.528" gradientTransform="matrix(0.3598 0 0 -0.3577 -196.884 87.579)" gradientUnits="userSpaceOnUse">
			<stop  offset="0" style="stop-color:#FCE5CB"/>
			<stop  offset="0.1413" style="stop-color:#FBD9B3"/>
			<stop  offset="0.3172" style="stop-color:#FACD9C"/>
			<stop  offset="0.5072" style="stop-color:#F9C58C"/>
			<stop  offset="0.7195" style="stop-color:#F9C182"/>
			<stop  offset="1" style="stop-color:#F9BF7F"/>
		</radialGradient>
		<path fill="url(#SVGID_3_)" d="M51.167,64.403H24.036c-9.895,0-17.991-8.097-17.991-17.991V19.677
			c0-9.895,8.097-17.99,17.991-17.99h27.131c9.895,0,17.991,8.097,17.991,17.99v26.734C69.158,56.306,61.062,64.403,51.167,64.403z"
			/>
	</g>
</g>
<g id="Calque_2_1_">
	<path fill="#593D3F" d="M-297.898-250.735c0,6.447-5.762,9.935-12.215,9.935h-1.874c-6.453,0-10.912-3.488-10.912-9.935v-1.874
		c0-6.456,4.458-13.191,10.912-13.191h1.874c6.453,0,12.215,6.736,12.215,13.191V-250.735z"/>
	<path fill="#593D3F" d="M-192.898-263.392c0,1.021-0.931,1.592-1.953,1.592h-0.297c-1.022,0-1.75-0.57-1.75-1.592v-0.297
		c0-1.023,0.728-2.111,1.75-2.111h0.297c1.022,0,1.953,1.088,1.953,2.111V-263.392z"/>
	<g>
		<path fill="#593D3F" d="M19.491,37.726h-1.695V31.31l-3.249,5.721l-3.296-5.732v6.428H9.614v-8.559h2.107l2.825,4.956l2.791-4.956
			h2.154V37.726z"/>
		<path fill="#593D3F" d="M22.422,37.726c-0.534,0-0.95-0.138-1.248-0.413c-0.298-0.274-0.447-0.698-0.447-1.271v-6.875h1.73v6.769
			c0,0.196,0.036,0.326,0.106,0.388c0.07,0.064,0.208,0.095,0.412,0.095h3.319c0.204,0,0.347-0.033,0.43-0.1
			c0.083-0.066,0.124-0.198,0.124-0.395v-6.757h1.73v6.875c0,0.573-0.149,0.997-0.447,1.271c-0.298,0.275-0.714,0.413-1.248,0.413
			H22.422z"/>
		<path fill="#593D3F" d="M31.945,30.497c-0.188,0-0.314,0.028-0.376,0.083c-0.063,0.055-0.094,0.172-0.094,0.354v2.413h4.238
			c0.259,0,0.471,0.025,0.635,0.076c0.165,0.051,0.294,0.13,0.389,0.235c0.094,0.106,0.159,0.236,0.194,0.389
			c0.036,0.153,0.053,0.335,0.053,0.548v2.154c0,0.274-0.104,0.506-0.313,0.694c-0.207,0.188-0.5,0.283-0.876,0.283h-5.639
			l-0.223-1.307h4.967c0.205,0,0.33-0.045,0.376-0.135c0.048-0.09,0.071-0.206,0.071-0.348v-0.93c0-0.181-0.028-0.302-0.082-0.365
			c-0.055-0.063-0.189-0.094-0.4-0.094h-4.167c-0.275,0-0.495-0.076-0.659-0.229c-0.165-0.153-0.247-0.379-0.247-0.677v-3.473
			c0-0.29,0.102-0.529,0.306-0.718s0.494-0.283,0.871-0.283h4.838c0.377,0,0.659,0.09,0.848,0.271s0.282,0.423,0.282,0.729v1.636
			h-1.577v-0.895c0-0.18-0.029-0.294-0.088-0.341c-0.059-0.047-0.187-0.071-0.383-0.071H31.945z"/>
		<path fill="#593D3F" d="M39.949,37.726h-1.695v-8.559h1.695V37.726z"/>
		<path fill="#593D3F" d="M44.669,37.726h-1.694c-0.268,0-0.509-0.025-0.724-0.077c-0.217-0.051-0.4-0.136-0.554-0.253
			c-0.153-0.118-0.271-0.274-0.353-0.471c-0.083-0.196-0.125-0.435-0.125-0.718v-5.521c0-0.283,0.042-0.522,0.125-0.719
			c0.081-0.196,0.199-0.353,0.353-0.471c0.153-0.117,0.337-0.202,0.554-0.253c0.215-0.051,0.456-0.077,0.724-0.077h4.743
			c0.268,0,0.509,0.025,0.724,0.077c0.216,0.051,0.4,0.136,0.554,0.253c0.153,0.118,0.27,0.275,0.354,0.471
			c0.083,0.196,0.123,0.436,0.123,0.719v5.521c0,0.283-0.04,0.522-0.123,0.718c-0.084,0.197-0.2,0.353-0.354,0.471
			c-0.153,0.117-0.338,0.202-0.554,0.253c-0.215,0.052-0.456,0.077-0.724,0.077H46v1.153h-1.331V37.726z M42.916,35.948
			c0,0.196,0.033,0.325,0.099,0.388c0.067,0.063,0.202,0.094,0.407,0.094h1.247v-1.919H46v1.919h1.224
			c0.204,0,0.348-0.033,0.431-0.1c0.082-0.066,0.122-0.198,0.122-0.395v-4.979c0-0.197-0.04-0.328-0.122-0.394
			c-0.083-0.067-0.227-0.101-0.431-0.101h-3.802c-0.205,0-0.34,0.031-0.407,0.094c-0.065,0.063-0.099,0.192-0.099,0.389V35.948z"/>
		<path fill="#593D3F" d="M52.403,37.726c-0.534,0-0.95-0.138-1.248-0.413c-0.298-0.274-0.447-0.698-0.447-1.271v-6.875h1.729v6.769
			c0,0.196,0.036,0.326,0.107,0.388c0.07,0.064,0.207,0.095,0.411,0.095h3.32c0.203,0,0.347-0.033,0.429-0.1
			c0.082-0.066,0.124-0.198,0.124-0.395v-6.757h1.73v6.875c0,0.573-0.149,0.997-0.447,1.271c-0.298,0.275-0.714,0.413-1.249,0.413
			H52.403z"/>
		<path fill="#593D3F" d="M66.541,30.532h-5.05v2.39h4.884l-0.106,1.224h-4.777v2.272h5.05l-0.142,1.307h-6.604v-8.559h6.544
			L66.541,30.532z"/>
	</g>
	<rect x="-133.898" y="-80.051" fill="none" width="54.75" height="31"/>
	<text transform="matrix(1 0 0 1 -133.8984 -71.3269)" fill="#593D3F" font-family="'AmericanCaptainPatrius02FRE'" font-size="12">LIVRE</text>
</g>
</svg>
