<?xml version="1.0" encoding="utf-8"?>
<!-- Generator: Adobe Illustrator 16.0.0, SVG Export Plug-In . SVG Version: 6.00 Build 0)  -->
<!DOCTYPE svg PUBLIC "-//W3C//DTD SVG 1.1//EN" "http://www.w3.org/Graphics/SVG/1.1/DTD/svg11.dtd">
<svg version="1.1" xmlns="http://www.w3.org/2000/svg" xmlns:xlink="http://www.w3.org/1999/xlink" x="0px" y="0px" width="300px"
	 height="77.25px" viewBox="0 0 300 77.25" enable-background="new 0 0 300 77.25" xml:space="preserve">
<g id="Calque_1">
	<g>
		<g>
			<path fill="#64D3ED" d="M86.235,31.91h-6.474v17.272h-4.099V31.91h-7.067l0.708-3.279h17.639L86.235,31.91z"/>
			<path fill="#64D3ED" d="M93.104,49.182c-0.642,0-1.221-0.061-1.739-0.184c-0.519-0.122-0.96-0.324-1.329-0.607
				c-0.367-0.283-0.649-0.659-0.848-1.131c-0.198-0.472-0.296-1.045-0.296-1.724V32.278c0-0.679,0.099-1.254,0.296-1.726
				c0.198-0.47,0.481-0.848,0.848-1.13c0.368-0.282,0.81-0.484,1.329-0.607c0.519-0.122,1.098-0.184,1.739-0.184h10.799
				c0.64,0,1.219,0.062,1.738,0.184c0.519,0.123,0.962,0.325,1.329,0.607c0.368,0.283,0.65,0.66,0.848,1.13
				c0.198,0.472,0.297,1.047,0.297,1.726v13.258c0,0.679-0.099,1.252-0.297,1.724s-0.479,0.848-0.848,1.131
				c-0.367,0.283-0.81,0.485-1.329,0.607c-0.519,0.123-1.098,0.184-1.738,0.184H93.104z M92.963,44.914
				c0,0.472,0.08,0.782,0.24,0.933c0.16,0.151,0.484,0.227,0.976,0.227h8.536c0.49,0,0.834-0.081,1.032-0.24
				c0.199-0.16,0.298-0.477,0.298-0.948V32.928c0-0.472-0.099-0.787-0.298-0.947c-0.198-0.161-0.542-0.24-1.032-0.24h-8.536
				c-0.492,0-0.816,0.075-0.976,0.225c-0.161,0.152-0.24,0.462-0.24,0.933V44.914z"/>
			<path fill="#64D3ED" d="M129.174,40.843c0,0.792-0.254,1.414-0.762,1.866c-0.509,0.452-1.414,0.678-2.713,0.678h-10.601v5.795
				h-4.015V28.63h14.926c1.169,0,1.988,0.265,2.459,0.792c0.471,0.528,0.706,1.254,0.706,2.177V40.843z M125.416,32.843
				c0-0.358-0.062-0.632-0.184-0.82c-0.123-0.188-0.447-0.282-0.976-0.282h-9.158v8.621h9.102c0.47,0,0.792-0.061,0.961-0.183
				c0.169-0.123,0.254-0.373,0.254-0.75V32.843z"/>
			<path fill="#64D3ED" d="M155.748,46.044l-0.311,3.138h-14.954V28.63h4.127v17.414H155.748z"/>
			<path fill="#64D3ED" d="M162.504,49.182h-4.071V28.63h4.071V49.182z"/>
			<path fill="#64D3ED" d="M171.493,49.182l-6.671-20.552h4.156l5.399,17.414h2.176l5.372-17.414h4.155l-6.614,20.552H171.493z"/>
			<path fill="#64D3ED" d="M206.857,49.182h-4.24l-0.255-4.381c-0.038-0.566-0.095-1.05-0.169-1.457
				c-0.076-0.405-0.217-0.744-0.424-1.018c-0.207-0.272-0.499-0.475-0.875-0.607c-0.377-0.131-0.876-0.198-1.499-0.198h-6.982v7.661
				h-4.071V28.63h14.813c0.677,0,1.239,0.085,1.682,0.254c0.443,0.17,0.796,0.406,1.059,0.707c0.265,0.302,0.454,0.66,0.566,1.075
				c0.112,0.414,0.169,0.876,0.169,1.385v5.71c0,0.264-0.057,0.552-0.169,0.863c-0.113,0.31-0.306,0.593-0.58,0.848
				c-0.272,0.254-0.621,0.462-1.045,0.622s-0.947,0.24-1.569,0.24c0.942,0.038,1.691,0.288,2.248,0.749
				c0.555,0.462,0.852,1.099,0.89,1.908L206.857,49.182z M202.645,32.871c0-0.753-0.377-1.13-1.13-1.13h-9.102v6.841h9.017
				c0.339,0,0.589-0.043,0.75-0.128c0.16-0.084,0.277-0.198,0.353-0.339c0.075-0.14,0.113-0.297,0.113-0.466c0-0.168,0-0.329,0-0.48
				V32.871z"/>
			<path fill="#64D3ED" d="M225.883,31.91h-12.127v5.738h11.731l-0.254,2.94h-11.478v5.456h12.127l-0.339,3.138h-15.859V28.63
				h15.717L225.883,31.91z"/>
		</g>
		<g>
			<path fill="#593D3F" d="M88.235,31.91h-6.474v17.272h-4.099V31.91h-7.067l0.708-3.279h17.639L88.235,31.91z"/>
			<path fill="#593D3F" d="M95.104,49.182c-0.642,0-1.221-0.061-1.739-0.184c-0.519-0.122-0.96-0.324-1.329-0.607
				c-0.367-0.283-0.649-0.659-0.848-1.131c-0.198-0.472-0.296-1.045-0.296-1.724V32.278c0-0.679,0.099-1.254,0.296-1.726
				c0.198-0.47,0.481-0.848,0.848-1.13c0.368-0.282,0.81-0.484,1.329-0.607c0.519-0.122,1.098-0.184,1.739-0.184h10.799
				c0.64,0,1.219,0.062,1.738,0.184c0.519,0.123,0.962,0.325,1.329,0.607c0.368,0.283,0.65,0.66,0.848,1.13
				c0.198,0.472,0.297,1.047,0.297,1.726v13.258c0,0.679-0.099,1.252-0.297,1.724s-0.479,0.848-0.848,1.131
				c-0.367,0.283-0.81,0.485-1.329,0.607c-0.519,0.123-1.098,0.184-1.738,0.184H95.104z M94.963,44.914
				c0,0.472,0.08,0.782,0.24,0.933c0.16,0.151,0.484,0.227,0.976,0.227h8.536c0.49,0,0.834-0.081,1.032-0.24
				c0.199-0.16,0.298-0.477,0.298-0.948V32.928c0-0.472-0.099-0.787-0.298-0.947c-0.198-0.161-0.542-0.24-1.032-0.24h-8.536
				c-0.492,0-0.816,0.075-0.976,0.225c-0.161,0.152-0.24,0.462-0.24,0.933V44.914z"/>
			<path fill="#593D3F" d="M131.174,40.843c0,0.792-0.254,1.414-0.762,1.866c-0.509,0.452-1.414,0.678-2.713,0.678h-10.601v5.795
				h-4.015V28.63h14.926c1.169,0,1.988,0.265,2.459,0.792c0.471,0.528,0.706,1.254,0.706,2.177V40.843z M127.416,32.843
				c0-0.358-0.062-0.632-0.184-0.82c-0.123-0.188-0.447-0.282-0.976-0.282h-9.158v8.621h9.102c0.47,0,0.792-0.061,0.961-0.183
				c0.169-0.123,0.254-0.373,0.254-0.75V32.843z"/>
			<path fill="#593D3F" d="M157.748,46.044l-0.311,3.138h-14.954V28.63h4.127v17.414H157.748z"/>
			<path fill="#593D3F" d="M164.504,49.182h-4.071V28.63h4.071V49.182z"/>
			<path fill="#593D3F" d="M173.493,49.182l-6.671-20.552h4.156l5.399,17.414h2.176l5.372-17.414h4.155l-6.614,20.552H173.493z"/>
			<path fill="#593D3F" d="M208.857,49.182h-4.24l-0.255-4.381c-0.038-0.566-0.095-1.05-0.169-1.457
				c-0.076-0.405-0.217-0.744-0.424-1.018c-0.207-0.272-0.499-0.475-0.875-0.607c-0.377-0.131-0.876-0.198-1.499-0.198h-6.982v7.661
				h-4.071V28.63h14.813c0.677,0,1.239,0.085,1.682,0.254c0.443,0.17,0.796,0.406,1.059,0.707c0.265,0.302,0.454,0.66,0.566,1.075
				c0.112,0.414,0.169,0.876,0.169,1.385v5.71c0,0.264-0.057,0.552-0.169,0.863c-0.113,0.31-0.306,0.593-0.58,0.848
				c-0.272,0.254-0.621,0.462-1.045,0.622s-0.947,0.24-1.569,0.24c0.942,0.038,1.691,0.288,2.248,0.749
				c0.555,0.462,0.852,1.099,0.89,1.908L208.857,49.182z M204.645,32.871c0-0.753-0.377-1.13-1.13-1.13h-9.102v6.841h9.017
				c0.339,0,0.589-0.043,0.75-0.128c0.16-0.084,0.277-0.198,0.353-0.339c0.075-0.14,0.113-0.297,0.113-0.466c0-0.168,0-0.329,0-0.48
				V32.871z"/>
			<path fill="#593D3F" d="M227.883,31.91h-12.127v5.738h11.731l-0.254,2.94h-11.478v5.456h12.127l-0.339,3.138h-15.859V28.63
				h15.717L227.883,31.91z"/>
		</g>
	</g>
</g>
<g id="Calque_2">
</g>
</svg>
