<?xml version="1.0" encoding="utf-8"?>
<!-- Generator: Adobe Illustrator 16.0.0, SVG Export Plug-In . SVG Version: 6.00 Build 0)  -->
<!DOCTYPE svg PUBLIC "-//W3C//DTD SVG 1.1//EN" "http://www.w3.org/Graphics/SVG/1.1/DTD/svg11.dtd">
<svg version="1.1" xmlns="http://www.w3.org/2000/svg" xmlns:xlink="http://www.w3.org/1999/xlink" x="0px" y="0px" width="300px"
	 height="77.25px" viewBox="0 0 300 77.25" enable-background="new 0 0 300 77.25" xml:space="preserve">
<g id="Calque_1">
	<g>
		<g>
			<path fill="#64D3ED" d="M61.827,31.964h-6.585v17.568h-4.169V31.964h-7.188l0.72-3.334h17.941L61.827,31.964z"/>
			<path fill="#64D3ED" d="M68.814,49.533c-0.653,0-1.241-0.064-1.77-0.188c-0.527-0.124-0.977-0.331-1.351-0.618
				c-0.373-0.288-0.661-0.672-0.862-1.149c-0.201-0.482-0.302-1.064-0.302-1.754V32.339c0-0.69,0.101-1.275,0.302-1.755
				c0.201-0.48,0.489-0.864,0.862-1.149c0.375-0.288,0.824-0.494,1.351-0.618c0.528-0.126,1.117-0.187,1.77-0.187h10.983
				c0.65,0,1.24,0.061,1.768,0.187c0.527,0.125,0.978,0.33,1.351,0.618c0.375,0.285,0.661,0.669,0.862,1.149
				c0.201,0.479,0.302,1.064,0.302,1.755v13.485c0,0.69-0.101,1.272-0.302,1.754c-0.201,0.478-0.488,0.861-0.862,1.149
				c-0.374,0.287-0.824,0.494-1.351,0.618c-0.528,0.124-1.118,0.188-1.768,0.188H68.814z M68.67,45.192
				c0,0.477,0.081,0.795,0.244,0.947c0.163,0.152,0.492,0.232,0.992,0.232h8.682c0.499,0,0.848-0.084,1.049-0.246
				c0.202-0.162,0.303-0.484,0.303-0.964v-12.16c0-0.482-0.101-0.8-0.303-0.964c-0.201-0.164-0.551-0.243-1.049-0.243h-8.682
				c-0.5,0-0.83,0.075-0.992,0.229c-0.164,0.155-0.244,0.468-0.244,0.948V45.192z"/>
			<path fill="#64D3ED" d="M105.501,41.05c0,0.805-0.259,1.437-0.776,1.897c-0.517,0.461-1.438,0.69-2.76,0.69H91.183v5.895H87.1
				V28.63h15.181c1.189,0,2.022,0.267,2.501,0.805c0.479,0.536,0.719,1.273,0.719,2.213V41.05z M101.678,32.912
				c0-0.363-0.063-0.641-0.187-0.833c-0.125-0.192-0.455-0.286-0.993-0.286h-9.315v8.768h9.258c0.479,0,0.805-0.063,0.978-0.185
				c0.172-0.126,0.259-0.379,0.259-0.763V32.912z"/>
			<path fill="#64D3ED" d="M141.126,49.533h-4.14V33.862l-7.936,13.974l-8.051-14.002v15.699h-3.996V28.63h5.146l6.9,12.104
				l6.815-12.104h5.261V49.533z"/>
			<path fill="#64D3ED" d="M148.285,49.533c-1.304,0-2.32-0.335-3.048-1.006c-0.728-0.672-1.092-1.706-1.092-3.105V28.63h4.226
				v16.531c0,0.48,0.086,0.798,0.26,0.948c0.171,0.154,0.508,0.231,1.006,0.231h8.107c0.499,0,0.849-0.082,1.05-0.246
				c0.201-0.161,0.302-0.482,0.302-0.961V28.63h4.227v16.791c0,1.399-0.364,2.434-1.092,3.105c-0.729,0.671-1.745,1.006-3.048,1.006
				H148.285z"/>
			<path fill="#64D3ED" d="M171.546,31.878c-0.459,0-0.766,0.067-0.919,0.201c-0.154,0.136-0.23,0.421-0.23,0.863v5.894h10.352
				c0.632,0,1.15,0.061,1.553,0.188c0.402,0.124,0.718,0.315,0.949,0.576c0.229,0.257,0.387,0.576,0.474,0.947
				c0.086,0.372,0.129,0.819,0.129,1.336v5.262c0,0.672-0.255,1.238-0.763,1.697c-0.507,0.458-1.221,0.69-2.141,0.69h-13.772
				l-0.546-3.192h12.133c0.499,0,0.805-0.11,0.92-0.33c0.116-0.22,0.173-0.505,0.173-0.85v-2.272c0-0.44-0.068-0.737-0.201-0.889
				c-0.135-0.154-0.46-0.231-0.978-0.231h-10.179c-0.672,0-1.208-0.185-1.61-0.56c-0.402-0.374-0.604-0.927-0.604-1.654v-8.481
				c0-0.709,0.249-1.294,0.748-1.755c0.498-0.459,1.207-0.688,2.127-0.688h11.817c0.92,0,1.609,0.22,2.071,0.659
				c0.459,0.443,0.689,1.035,0.689,1.784v3.997h-3.853v-2.186c0-0.44-0.071-0.719-0.215-0.833c-0.144-0.117-0.455-0.173-0.935-0.173
				H171.546z"/>
			<path fill="#64D3ED" d="M191.097,49.533h-4.141V28.63h4.141V49.533z"/>
			<path fill="#64D3ED" d="M202.627,49.533h-4.14c-0.653,0-1.242-0.064-1.77-0.188c-0.527-0.124-0.977-0.331-1.352-0.618
				c-0.373-0.288-0.661-0.672-0.862-1.149c-0.201-0.482-0.302-1.064-0.302-1.754V32.339c0-0.69,0.101-1.275,0.302-1.755
				c0.201-0.48,0.489-0.864,0.862-1.149c0.375-0.288,0.824-0.494,1.352-0.618c0.528-0.126,1.117-0.187,1.77-0.187h11.587
				c0.652,0,1.24,0.061,1.768,0.187c0.527,0.125,0.978,0.33,1.351,0.618c0.374,0.285,0.661,0.669,0.863,1.149
				c0.201,0.479,0.302,1.064,0.302,1.755v13.485c0,0.69-0.101,1.272-0.302,1.754c-0.203,0.478-0.489,0.861-0.863,1.149
				c-0.374,0.287-0.824,0.494-1.351,0.618c-0.528,0.124-1.116,0.188-1.768,0.188h-4.198v2.817h-3.249V49.533z M198.343,45.192
				c0,0.477,0.081,0.795,0.245,0.947c0.162,0.152,0.492,0.232,0.992,0.232h3.048v-4.689h3.249v4.689h2.99
				c0.498,0,0.848-0.084,1.049-0.246c0.201-0.162,0.302-0.484,0.302-0.964v-12.16c0-0.482-0.101-0.8-0.302-0.964
				c-0.201-0.164-0.552-0.243-1.049-0.243h-9.287c-0.5,0-0.83,0.075-0.992,0.229c-0.164,0.155-0.245,0.468-0.245,0.948V45.192z"/>
			<path fill="#64D3ED" d="M221.516,49.533c-1.304,0-2.32-0.335-3.048-1.006c-0.729-0.672-1.092-1.706-1.092-3.105V28.63h4.226
				v16.531c0,0.48,0.087,0.798,0.26,0.948c0.172,0.154,0.508,0.231,1.006,0.231h8.108c0.498,0,0.848-0.082,1.049-0.246
				c0.201-0.161,0.302-0.482,0.302-0.961V28.63h4.227v16.791c0,1.399-0.364,2.434-1.093,3.105c-0.729,0.671-1.745,1.006-3.048,1.006
				H221.516z"/>
			<path fill="#64D3ED" d="M256.048,31.964h-12.335v5.838h11.933l-0.258,2.99h-11.674v5.548h12.335l-0.345,3.192h-16.13V28.63
				h15.986L256.048,31.964z"/>
		</g>
		<g>
			<path fill="#593D3F" d="M63.827,31.964h-6.585v17.568h-4.169V31.964h-7.188l0.72-3.334h17.941L63.827,31.964z"/>
			<path fill="#593D3F" d="M70.814,49.533c-0.653,0-1.241-0.064-1.77-0.188c-0.527-0.124-0.977-0.331-1.351-0.618
				c-0.373-0.288-0.661-0.672-0.862-1.149c-0.201-0.482-0.302-1.064-0.302-1.754V32.339c0-0.69,0.101-1.275,0.302-1.755
				c0.201-0.48,0.489-0.864,0.862-1.149c0.375-0.288,0.824-0.494,1.351-0.618c0.528-0.126,1.117-0.187,1.77-0.187h10.983
				c0.65,0,1.24,0.061,1.768,0.187c0.527,0.125,0.978,0.33,1.351,0.618c0.375,0.285,0.661,0.669,0.862,1.149
				c0.201,0.479,0.302,1.064,0.302,1.755v13.485c0,0.69-0.101,1.272-0.302,1.754c-0.201,0.478-0.488,0.861-0.862,1.149
				c-0.374,0.287-0.824,0.494-1.351,0.618c-0.528,0.124-1.118,0.188-1.768,0.188H70.814z M70.67,45.192
				c0,0.477,0.081,0.795,0.244,0.947c0.163,0.152,0.492,0.232,0.992,0.232h8.682c0.499,0,0.848-0.084,1.049-0.246
				c0.202-0.162,0.303-0.484,0.303-0.964v-12.16c0-0.482-0.101-0.8-0.303-0.964c-0.201-0.164-0.551-0.243-1.049-0.243h-8.682
				c-0.5,0-0.83,0.075-0.992,0.229c-0.164,0.155-0.244,0.468-0.244,0.948V45.192z"/>
			<path fill="#593D3F" d="M107.501,41.05c0,0.805-0.259,1.437-0.776,1.897c-0.517,0.461-1.438,0.69-2.76,0.69H93.183v5.895H89.1
				V28.63h15.181c1.189,0,2.022,0.267,2.501,0.805c0.479,0.536,0.719,1.273,0.719,2.213V41.05z M103.678,32.912
				c0-0.363-0.063-0.641-0.187-0.833c-0.125-0.192-0.455-0.286-0.993-0.286h-9.315v8.768h9.258c0.479,0,0.805-0.063,0.978-0.185
				c0.172-0.126,0.259-0.379,0.259-0.763V32.912z"/>
			<path fill="#593D3F" d="M143.126,49.533h-4.14V33.862l-7.936,13.974l-8.051-14.002v15.699h-3.996V28.63h5.146l6.9,12.104
				l6.815-12.104h5.261V49.533z"/>
			<path fill="#593D3F" d="M150.285,49.533c-1.304,0-2.32-0.335-3.048-1.006c-0.728-0.672-1.092-1.706-1.092-3.105V28.63h4.226
				v16.531c0,0.48,0.086,0.798,0.26,0.948c0.171,0.154,0.508,0.231,1.006,0.231h8.107c0.499,0,0.849-0.082,1.05-0.246
				c0.201-0.161,0.302-0.482,0.302-0.961V28.63h4.227v16.791c0,1.399-0.364,2.434-1.092,3.105c-0.729,0.671-1.745,1.006-3.048,1.006
				H150.285z"/>
			<path fill="#593D3F" d="M173.546,31.878c-0.459,0-0.766,0.067-0.919,0.201c-0.154,0.136-0.23,0.421-0.23,0.863v5.894h10.352
				c0.632,0,1.15,0.061,1.553,0.188c0.402,0.124,0.718,0.315,0.949,0.576c0.229,0.257,0.387,0.576,0.474,0.947
				c0.086,0.372,0.129,0.819,0.129,1.336v5.262c0,0.672-0.255,1.238-0.763,1.697c-0.507,0.458-1.221,0.69-2.141,0.69h-13.772
				l-0.546-3.192h12.133c0.499,0,0.805-0.11,0.92-0.33c0.116-0.22,0.173-0.505,0.173-0.85v-2.272c0-0.44-0.068-0.737-0.201-0.889
				c-0.135-0.154-0.46-0.231-0.978-0.231h-10.179c-0.672,0-1.208-0.185-1.61-0.56c-0.402-0.374-0.604-0.927-0.604-1.654v-8.481
				c0-0.709,0.249-1.294,0.748-1.755c0.498-0.459,1.207-0.688,2.127-0.688h11.817c0.92,0,1.609,0.22,2.071,0.659
				c0.459,0.443,0.689,1.035,0.689,1.784v3.997h-3.853v-2.186c0-0.44-0.071-0.719-0.215-0.833c-0.144-0.117-0.455-0.173-0.935-0.173
				H173.546z"/>
			<path fill="#593D3F" d="M193.097,49.533h-4.141V28.63h4.141V49.533z"/>
			<path fill="#593D3F" d="M204.627,49.533h-4.14c-0.653,0-1.242-0.064-1.77-0.188c-0.527-0.124-0.977-0.331-1.352-0.618
				c-0.373-0.288-0.661-0.672-0.862-1.149c-0.201-0.482-0.302-1.064-0.302-1.754V32.339c0-0.69,0.101-1.275,0.302-1.755
				c0.201-0.48,0.489-0.864,0.862-1.149c0.375-0.288,0.824-0.494,1.352-0.618c0.528-0.126,1.117-0.187,1.77-0.187h11.587
				c0.652,0,1.24,0.061,1.768,0.187c0.527,0.125,0.978,0.33,1.351,0.618c0.374,0.285,0.661,0.669,0.863,1.149
				c0.201,0.479,0.302,1.064,0.302,1.755v13.485c0,0.69-0.101,1.272-0.302,1.754c-0.203,0.478-0.489,0.861-0.863,1.149
				c-0.374,0.287-0.824,0.494-1.351,0.618c-0.528,0.124-1.116,0.188-1.768,0.188h-4.198v2.817h-3.249V49.533z M200.343,45.192
				c0,0.477,0.081,0.795,0.245,0.947c0.162,0.152,0.492,0.232,0.992,0.232h3.048v-4.689h3.249v4.689h2.99
				c0.498,0,0.848-0.084,1.049-0.246c0.201-0.162,0.302-0.484,0.302-0.964v-12.16c0-0.482-0.101-0.8-0.302-0.964
				c-0.201-0.164-0.552-0.243-1.049-0.243h-9.287c-0.5,0-0.83,0.075-0.992,0.229c-0.164,0.155-0.245,0.468-0.245,0.948V45.192z"/>
			<path fill="#593D3F" d="M223.516,49.533c-1.304,0-2.32-0.335-3.048-1.006c-0.729-0.672-1.092-1.706-1.092-3.105V28.63h4.226
				v16.531c0,0.48,0.087,0.798,0.26,0.948c0.172,0.154,0.508,0.231,1.006,0.231h8.108c0.498,0,0.848-0.082,1.049-0.246
				c0.201-0.161,0.302-0.482,0.302-0.961V28.63h4.227v16.791c0,1.399-0.364,2.434-1.093,3.105c-0.729,0.671-1.745,1.006-3.048,1.006
				H223.516z"/>
			<path fill="#593D3F" d="M258.048,31.964h-12.335v5.838h11.933l-0.258,2.99h-11.674v5.548h12.335l-0.345,3.192h-16.13V28.63
				h15.986L258.048,31.964z"/>
		</g>
	</g>
</g>
<g id="Calque_2">
</g>
</svg>
