<?xml version="1.0" encoding="utf-8"?>
<!-- Generator: Adobe Illustrator 16.0.0, SVG Export Plug-In . SVG Version: 6.00 Build 0)  -->
<!DOCTYPE svg PUBLIC "-//W3C//DTD SVG 1.1//EN" "http://www.w3.org/Graphics/SVG/1.1/DTD/svg11.dtd">
<svg version="1.1" xmlns="http://www.w3.org/2000/svg" xmlns:xlink="http://www.w3.org/1999/xlink" x="0px" y="0px"
	 width="483.156px" height="77.25px" viewBox="0 0 483.156 77.25" enable-background="new 0 0 483.156 77.25" xml:space="preserve">
<g id="Calque_1">
	<g>
		<g>
			<path fill="#64D3ED" d="M131.268,31.622c-0.494,0-0.813,0.071-0.953,0.212c-0.142,0.141-0.212,0.433-0.212,0.873v11.197
				c0,0.423,0.075,0.702,0.226,0.834c0.149,0.132,0.454,0.198,0.913,0.198h10.904l-0.529,2.938h-12.255c-1.2,0-2.02-0.26-2.461-0.78
				s-0.662-1.328-0.662-2.422V31.198c0-0.493,0.074-0.904,0.226-1.231c0.149-0.326,0.352-0.585,0.608-0.781
				c0.256-0.194,0.547-0.335,0.874-0.423c0.326-0.089,0.665-0.133,1.018-0.133h11.303c0.229,0,0.472,0.031,0.729,0.093
				c0.255,0.063,0.489,0.168,0.701,0.317c0.212,0.151,0.388,0.349,0.529,0.596c0.142,0.248,0.212,0.565,0.212,0.953v3.97h-3.547
				v-1.984c0-0.407-0.053-0.666-0.158-0.781c-0.107-0.114-0.381-0.172-0.821-0.172H131.268z"/>
			<path fill="#64D3ED" d="M149.24,43.982l-1.245,3.891h-4.023l6.327-19.243h8.205l6.273,19.243h-4.024l-1.243-3.891H149.24z
				 M150.06,41.229h8.628l-3.016-9.793h-2.568L150.06,41.229z"/>
			<path fill="#64D3ED" d="M184.231,45.28c0,0.316-0.062,0.631-0.186,0.939c-0.124,0.309-0.314,0.587-0.569,0.833
				c-0.256,0.248-0.577,0.446-0.965,0.596c-0.39,0.15-0.84,0.225-1.351,0.225h-14.32V28.63h14.347c0.953,0,1.698,0.288,2.236,0.86
				c0.539,0.574,0.808,1.284,0.808,2.131V45.28z M180.42,32.919c0-0.477-0.079-0.821-0.238-1.033
				c-0.159-0.212-0.556-0.318-1.191-0.318h-8.363v13.394h8.39c0.336,0,0.596-0.027,0.781-0.08c0.187-0.053,0.323-0.137,0.41-0.252
				c0.088-0.114,0.146-0.26,0.172-0.437s0.04-0.379,0.04-0.608V32.919z"/>
			<path fill="#64D3ED" d="M191.299,43.982l-1.243,3.891h-4.023l6.325-19.243h8.206l6.272,19.243h-4.023l-1.243-3.891H191.299z
				 M192.12,41.229h8.628l-3.017-9.793h-2.567L192.12,41.229z"/>
			<path fill="#64D3ED" d="M211.177,47.873l-6.246-19.243h3.891l5.056,16.305h2.038l5.029-16.305h3.891l-6.192,19.243H211.177z"/>
			<path fill="#64D3ED" d="M244.291,47.873h-3.971l-0.239-4.102c-0.035-0.53-0.088-0.983-0.158-1.363
				c-0.071-0.379-0.203-0.697-0.397-0.954c-0.193-0.255-0.468-0.445-0.819-0.568c-0.354-0.123-0.82-0.186-1.403-0.186h-6.537v7.173
				h-3.813V28.63h13.87c0.635,0,1.16,0.08,1.574,0.238c0.415,0.159,0.746,0.38,0.992,0.662c0.248,0.282,0.425,0.618,0.53,1.006
				c0.105,0.388,0.158,0.82,0.158,1.297v5.347c0,0.247-0.053,0.517-0.158,0.807c-0.105,0.291-0.287,0.556-0.543,0.794
				c-0.255,0.237-0.582,0.432-0.979,0.582c-0.396,0.15-0.886,0.225-1.469,0.225c0.882,0.036,1.583,0.27,2.104,0.701
				c0.52,0.433,0.799,1.028,0.833,1.787L244.291,47.873z M240.346,32.601c0-0.705-0.353-1.058-1.059-1.058h-8.521v6.405h8.442
				c0.317,0,0.552-0.04,0.702-0.12c0.149-0.079,0.26-0.185,0.331-0.318c0.069-0.131,0.104-0.278,0.104-0.436c0-0.159,0-0.308,0-0.45
				V32.601z"/>
			<path fill="#64D3ED" d="M262.104,31.701h-11.354v5.374h10.984l-0.237,2.753h-10.747v5.108h11.354l-0.316,2.938h-14.85V28.63
				h14.717L262.104,31.701z"/>
			<path fill="#64D3ED" d="M287.223,31.701h-11.355v5.374h10.984l-0.237,2.753h-10.747v5.108h11.355l-0.317,2.938h-14.849V28.63
				h14.716L287.223,31.701z"/>
			<path fill="#64D3ED" d="M305.777,31.701h-6.062v16.172h-3.838V31.701h-6.617l0.661-3.07h16.518L305.777,31.701z"/>
			<path fill="#64D3ED" d="M320.415,31.622c-0.425,0-0.707,0.062-0.849,0.185c-0.144,0.124-0.212,0.389-0.212,0.794v5.426h9.529
				c0.582,0,1.06,0.057,1.431,0.171c0.371,0.115,0.659,0.292,0.873,0.53c0.211,0.238,0.354,0.53,0.437,0.874
				c0.077,0.343,0.119,0.754,0.119,1.231v4.843c0,0.618-0.235,1.139-0.703,1.562c-0.467,0.423-1.124,0.635-1.971,0.635h-12.679
				l-0.504-2.938h11.171c0.458,0,0.741-0.101,0.846-0.305c0.106-0.203,0.16-0.463,0.16-0.781v-2.091c0-0.406-0.063-0.68-0.186-0.821
				c-0.122-0.141-0.425-0.212-0.901-0.212h-9.369c-0.618,0-1.111-0.171-1.482-0.516c-0.37-0.344-0.555-0.852-0.555-1.522V30.88
				c0-0.653,0.23-1.191,0.687-1.614c0.461-0.423,1.112-0.636,1.961-0.636h10.877c0.849,0,1.482,0.204,1.907,0.608
				c0.424,0.407,0.635,0.954,0.635,1.642v3.679h-3.548v-2.011c0-0.405-0.066-0.662-0.198-0.768c-0.131-0.106-0.42-0.159-0.858-0.159
				H320.415z"/>
			<path fill="#64D3ED" d="M351.91,28.63l-3.97,8.523c0.602,0,1.095,0.076,1.482,0.225c0.388,0.15,0.702,0.354,0.941,0.608
				c0.236,0.257,0.405,0.547,0.502,0.874c0.097,0.326,0.161,0.657,0.198,0.992l0.635,8.02h-3.838l-0.45-6.617
				c-0.037-0.564-0.207-0.944-0.516-1.139c-0.31-0.194-0.728-0.291-1.258-0.291h-7.384v8.046h-3.787V28.63h3.787v8.523h5.979
				l3.921-8.523H351.91z"/>
			<path fill="#64D3ED" d="M358.317,47.873h-3.813V28.63h3.813V47.873z"/>
		</g>
		<g>
			<path fill="#593D3F" d="M133.356,31.622c-0.493,0-0.812,0.071-0.952,0.212c-0.143,0.141-0.213,0.433-0.213,0.873v11.197
				c0,0.423,0.076,0.702,0.226,0.834c0.15,0.132,0.454,0.198,0.913,0.198h10.905l-0.529,2.938h-12.255
				c-1.201,0-2.02-0.26-2.462-0.78c-0.441-0.52-0.662-1.328-0.662-2.422V31.198c0-0.493,0.075-0.904,0.226-1.231
				c0.15-0.326,0.352-0.585,0.609-0.781c0.255-0.194,0.547-0.335,0.873-0.423c0.326-0.089,0.665-0.133,1.018-0.133h11.304
				c0.229,0,0.471,0.031,0.728,0.093c0.256,0.063,0.49,0.168,0.701,0.317c0.212,0.151,0.388,0.349,0.529,0.596
				c0.142,0.248,0.213,0.565,0.213,0.953v3.97h-3.548v-1.984c0-0.407-0.053-0.666-0.157-0.781c-0.107-0.114-0.381-0.172-0.821-0.172
				H133.356z"/>
			<path fill="#593D3F" d="M151.329,43.982l-1.245,3.891h-4.023l6.327-19.243h8.205l6.273,19.243h-4.024l-1.243-3.891H151.329z
				 M152.149,41.229h8.628l-3.017-9.793h-2.567L152.149,41.229z"/>
			<path fill="#593D3F" d="M186.32,45.28c0,0.316-0.062,0.631-0.186,0.939c-0.124,0.309-0.313,0.587-0.568,0.833
				c-0.257,0.248-0.578,0.446-0.966,0.596c-0.39,0.15-0.839,0.225-1.351,0.225h-14.32V28.63h14.348c0.952,0,1.698,0.288,2.235,0.86
				c0.539,0.574,0.808,1.284,0.808,2.131V45.28z M182.509,32.919c0-0.477-0.079-0.821-0.237-1.033
				c-0.16-0.212-0.557-0.318-1.192-0.318h-8.363v13.394h8.391c0.335,0,0.596-0.027,0.781-0.08c0.186-0.053,0.322-0.137,0.41-0.252
				c0.087-0.114,0.145-0.26,0.171-0.437s0.04-0.379,0.04-0.608V32.919z"/>
			<path fill="#593D3F" d="M193.389,43.982l-1.244,3.891h-4.023l6.326-19.243h8.205l6.273,19.243h-4.023l-1.244-3.891H193.389z
				 M194.209,41.229h8.629l-3.017-9.793h-2.567L194.209,41.229z"/>
			<path fill="#593D3F" d="M213.266,47.873L207.02,28.63h3.891l5.057,16.305h2.038l5.028-16.305h3.892l-6.193,19.243H213.266z"/>
			<path fill="#593D3F" d="M246.38,47.873h-3.97l-0.24-4.102c-0.034-0.53-0.088-0.983-0.158-1.363
				c-0.071-0.379-0.203-0.697-0.396-0.954c-0.194-0.255-0.469-0.445-0.82-0.568c-0.354-0.123-0.82-0.186-1.402-0.186h-6.538v7.173
				h-3.813V28.63h13.87c0.635,0,1.16,0.08,1.574,0.238c0.416,0.159,0.746,0.38,0.993,0.662c0.248,0.282,0.424,0.618,0.529,1.006
				c0.106,0.388,0.159,0.82,0.159,1.297v5.347c0,0.247-0.053,0.517-0.159,0.807c-0.105,0.291-0.287,0.556-0.543,0.794
				c-0.255,0.237-0.581,0.432-0.979,0.582c-0.396,0.15-0.885,0.225-1.469,0.225c0.883,0.036,1.583,0.27,2.104,0.701
				c0.521,0.433,0.799,1.028,0.834,1.787L246.38,47.873z M242.436,32.601c0-0.705-0.354-1.058-1.06-1.058h-8.521v6.405h8.442
				c0.318,0,0.552-0.04,0.703-0.12c0.148-0.079,0.259-0.185,0.33-0.318c0.069-0.131,0.105-0.278,0.105-0.436c0-0.159,0-0.308,0-0.45
				V32.601z"/>
			<path fill="#593D3F" d="M264.193,31.701h-11.355v5.374h10.985l-0.238,2.753h-10.747v5.108h11.355l-0.317,2.938h-14.849V28.63
				h14.716L264.193,31.701z"/>
			<path fill="#593D3F" d="M289.312,31.701h-11.354v5.374h10.984l-0.238,2.753h-10.746v5.108h11.354l-0.317,2.938h-14.849V28.63
				h14.716L289.312,31.701z"/>
			<path fill="#593D3F" d="M307.866,31.701h-6.062v16.172h-3.838V31.701h-6.617l0.661-3.07h16.518L307.866,31.701z"/>
			<path fill="#593D3F" d="M322.504,31.622c-0.424,0-0.707,0.062-0.849,0.185c-0.143,0.124-0.211,0.389-0.211,0.794v5.426h9.528
				c0.583,0,1.061,0.057,1.432,0.171c0.37,0.115,0.659,0.292,0.872,0.53c0.211,0.238,0.354,0.53,0.437,0.874
				c0.077,0.343,0.119,0.754,0.119,1.231v4.843c0,0.618-0.235,1.139-0.703,1.562c-0.467,0.423-1.124,0.635-1.971,0.635h-12.679
				l-0.504-2.938h11.171c0.458,0,0.741-0.101,0.846-0.305c0.106-0.203,0.16-0.463,0.16-0.781v-2.091c0-0.406-0.062-0.68-0.186-0.821
				c-0.122-0.141-0.424-0.212-0.9-0.212h-9.37c-0.618,0-1.11-0.171-1.481-0.516s-0.556-0.852-0.556-1.522V30.88
				c0-0.653,0.23-1.191,0.687-1.614c0.461-0.423,1.112-0.636,1.961-0.636h10.877c0.85,0,1.482,0.204,1.907,0.608
				c0.424,0.407,0.636,0.954,0.636,1.642v3.679h-3.549v-2.011c0-0.405-0.065-0.662-0.197-0.768c-0.132-0.106-0.42-0.159-0.859-0.159
				H322.504z"/>
			<path fill="#593D3F" d="M354,28.63l-3.971,8.523c0.603,0,1.095,0.076,1.482,0.225c0.388,0.15,0.703,0.354,0.941,0.608
				c0.237,0.257,0.405,0.547,0.502,0.874c0.098,0.326,0.161,0.657,0.198,0.992l0.636,8.02h-3.839l-0.45-6.617
				c-0.036-0.564-0.207-0.944-0.515-1.139c-0.311-0.194-0.728-0.291-1.258-0.291h-7.384v8.046h-3.788V28.63h3.788v8.523h5.979
				l3.922-8.523H354z"/>
			<path fill="#593D3F" d="M360.406,47.873h-3.813V28.63h3.813V47.873z"/>
		</g>
	</g>
</g>
<g id="Calque_2">
</g>
</svg>
