<?xml version="1.0" encoding="utf-8"?>
<!-- Generator: Adobe Illustrator 16.0.0, SVG Export Plug-In . SVG Version: 6.00 Build 0)  -->
<!DOCTYPE svg PUBLIC "-//W3C//DTD SVG 1.1//EN" "http://www.w3.org/Graphics/SVG/1.1/DTD/svg11.dtd">
<svg version="1.1" xmlns="http://www.w3.org/2000/svg" xmlns:xlink="http://www.w3.org/1999/xlink" x="0px" y="0px"
	 width="76.225px" height="73.007px" viewBox="0 0 76.225 73.007" enable-background="new 0 0 76.225 73.007" xml:space="preserve">
<g id="Calque_1">
	<g id="Layer_1_copy">
		<g>
			<g>
				<path fill="#1A1A1A" d="M57.722,72.666H18.502c-9.895,0-17.991-8.097-17.991-17.99V18.333c0-9.896,8.098-17.991,17.991-17.991
					h39.221c9.896,0,17.991,8.096,17.991,17.991v36.342C75.714,64.569,67.617,72.666,57.722,72.666z"/>
			</g>
		</g>
		
			<linearGradient id="SVGID_1_" gradientUnits="userSpaceOnUse" x1="565.4041" y1="232.9312" x2="739.0372" y2="59.2979" gradientTransform="matrix(0.3598 0 0 -0.3598 -196.5572 89.0767)">
			<stop  offset="0.0179" style="stop-color:#B0B0B0;stop-opacity:0.1"/>
			<stop  offset="0.176" style="stop-color:#AEAEAE;stop-opacity:0.4345"/>
			<stop  offset="0.2329" style="stop-color:#A7A7A7;stop-opacity:0.5549"/>
			<stop  offset="0.2735" style="stop-color:#9C9C9C;stop-opacity:0.6408"/>
			<stop  offset="0.3063" style="stop-color:#8B8B8B;stop-opacity:0.7102"/>
			<stop  offset="0.3341" style="stop-color:#757575;stop-opacity:0.769"/>
			<stop  offset="0.3487" style="stop-color:#666666;stop-opacity:0.8"/>
			<stop  offset="0.4165" style="stop-color:#3F3F3F;stop-opacity:0.9079"/>
			<stop  offset="0.4744" style="stop-color:#1A1A1A"/>
			<stop  offset="0.5728" style="stop-color:#424242"/>
			<stop  offset="0.6718" style="stop-color:#666666"/>
			<stop  offset="0.6863" style="stop-color:#757575;stop-opacity:0.9601"/>
			<stop  offset="0.7139" style="stop-color:#8B8B8B;stop-opacity:0.8845"/>
			<stop  offset="0.7464" style="stop-color:#9C9C9C;stop-opacity:0.7953"/>
			<stop  offset="0.7867" style="stop-color:#A7A7A7;stop-opacity:0.6849"/>
			<stop  offset="0.8432" style="stop-color:#AEAEAE;stop-opacity:0.53"/>
			<stop  offset="1" style="stop-color:#B0B0B0;stop-opacity:0.1"/>
		</linearGradient>
		<path fill="url(#SVGID_1_)" d="M57.362,72.306h-38.5c-9.896,0-17.991-8.097-17.991-17.99V18.693c0-9.895,8.096-17.99,17.991-17.99
			h38.5c9.896,0,17.99,8.097,17.99,17.99v35.623C75.353,64.209,67.258,72.306,57.362,72.306z"/>
		
			<linearGradient id="SVGID_2_" gradientUnits="userSpaceOnUse" x1="565.4031" y1="59.2983" x2="739.0364" y2="232.9318" gradientTransform="matrix(0.3598 0 0 -0.3598 -196.5572 89.0767)">
			<stop  offset="0.0179" style="stop-color:#C9C9C9;stop-opacity:0.1"/>
			<stop  offset="0.0871" style="stop-color:#B4B4B4;stop-opacity:0.2464"/>
			<stop  offset="0.229" style="stop-color:#7F7F7F;stop-opacity:0.5467"/>
			<stop  offset="0.3487" style="stop-color:#4D4D4D;stop-opacity:0.8"/>
			<stop  offset="0.376" style="stop-color:#434343;stop-opacity:0.8309"/>
			<stop  offset="0.4716" style="stop-color:#252525;stop-opacity:0.9389"/>
			<stop  offset="0.5256" style="stop-color:#1A1A1A"/>
			<stop  offset="0.5449" style="stop-color:#222222"/>
			<stop  offset="0.6263" style="stop-color:#414141"/>
			<stop  offset="0.6718" style="stop-color:#4D4D4D"/>
			<stop  offset="0.8276" style="stop-color:#8F8F8F;stop-opacity:0.5728"/>
			<stop  offset="0.9416" style="stop-color:#B9B9B9;stop-opacity:0.26"/>
			<stop  offset="1" style="stop-color:#C9C9C9;stop-opacity:0.1"/>
		</linearGradient>
		<path fill="url(#SVGID_2_)" d="M57.362,72.306h-38.5c-9.896,0-17.991-8.097-17.991-17.99V18.693c0-9.895,8.096-17.99,17.991-17.99
			h38.5c9.896,0,17.99,8.097,17.99,17.99v35.623C75.353,64.209,67.258,72.306,57.362,72.306z"/>
		<path fill="#E3E3E3" d="M51.929,64.281H24.331c-9.896,0-17.991-8.096-17.991-17.99V18.693c0-9.896,8.097-17.992,17.991-17.992
			h27.599c9.896,0,17.99,8.097,17.99,17.992v27.598C69.92,56.186,61.824,64.281,51.929,64.281z"/>
		
			<radialGradient id="SVGID_3_" cx="652.2214" cy="65.0474" r="117.5228" gradientTransform="matrix(0.3598 0 0 -0.3577 -196.5572 87.3129)" gradientUnits="userSpaceOnUse">
			<stop  offset="0" style="stop-color:#C9C9C9"/>
			<stop  offset="0.1028" style="stop-color:#A2A2A2"/>
			<stop  offset="0.2149" style="stop-color:#808080"/>
			<stop  offset="0.3349" style="stop-color:#646464"/>
			<stop  offset="0.4632" style="stop-color:#4E4E4E"/>
			<stop  offset="0.6039" style="stop-color:#3F3F3F"/>
			<stop  offset="0.7662" style="stop-color:#363636"/>
			<stop  offset="1" style="stop-color:#333333"/>
		</radialGradient>
		<path fill="url(#SVGID_3_)" d="M51.677,63.67H24.547c-9.895,0-17.991-8.097-17.991-17.991V18.945
			c0-9.896,8.098-17.99,17.991-17.99h27.131c9.896,0,17.991,8.096,17.991,17.99v26.734C69.669,55.574,61.572,63.67,51.677,63.67z"/>
	</g>
	<g id="Calque_2">
		<g>
			<g>
				<path fill="#FFFFFF" d="M321.682,20.944c-0.109,2.571,0.689,4.717,2.914,6.108c1.171,0.733,2.452,1.296,3.702,1.897
					c0.332,0.158,0.518,0.283,0.431,0.685c-0.081,0.388-0.089,0.79-0.14,1.185c-0.179,1.416-0.642,2.713-1.444,3.916
					c-0.444,0.666-0.748,1.446-0.984,2.217c-0.318,1.032,0.266,1.813,0.919,2.536c1.068,1.18,2.47,1.875,3.851,2.594
					c1.742,0.908,3.403,1.916,4.745,3.391c0.347,0.379,0.824,0.676,1.294,0.898c2.357,1.115,5.771,0.486,7.639-1.334
					c0.531-0.52,1.093-1.033,1.718-1.422c1.234-0.771,2.521-1.457,3.795-2.166c1.092-0.611,2.102-1.32,2.921-2.281
					c0.748-0.881,0.929-1.844,0.421-2.906c-0.201-0.417-0.362-0.864-0.622-1.242c-1.118-1.62-1.607-3.428-1.74-5.364
					c-0.024-0.377,0.066-0.545,0.416-0.703c1.114-0.504,2.237-1.004,3.294-1.613c2.438-1.406,3.462-3.594,3.304-6.396
					c-0.38-0.059-0.45-0.316-0.457-0.697c-0.026-1.891-0.089-3.776-0.135-5.666c-0.008-0.289-0.003-0.578-0.003-0.912
					c0.388,0,0.694,0,1.023,0c-0.104-0.816-0.286-1.588-0.814-2.146c-0.518-0.549-0.649-1.152-0.655-1.844
					c-0.003-0.132-0.016-0.266-0.024-0.396c-0.362-4.752-2.544-8.476-6.534-11.027c-4.938-3.159-10.344-3.706-15.957-2.299
					c-3.615,0.908-6.7,2.74-8.983,5.764c-1.883,2.488-2.758,5.328-2.864,8.422c-0.017,0.426-0.09,0.778-0.416,1.111
					c-0.646,0.656-0.892,1.507-1.028,2.46c0.383,0,0.704,0,1.051,0c0,0.229,0.006,0.409,0,0.589
					c-0.056,1.986-0.122,3.975-0.163,5.962C322.141,20.627,322.114,20.915,321.682,20.944z"/>
				<path d="M321.682,20.944c0.432-0.029,0.459-0.317,0.467-0.686c0.041-1.988,0.107-3.977,0.163-5.962c0.006-0.181,0-0.359,0-0.589
					c-0.347,0-0.668,0-1.051,0c0.138-0.953,0.383-1.803,1.028-2.461c0.325-0.332,0.399-0.687,0.416-1.11
					c0.106-3.094,0.981-5.935,2.864-8.422c2.283-3.022,5.368-4.854,8.983-5.763c5.613-1.408,11.018-0.861,15.957,2.298
					c3.99,2.553,6.172,6.274,6.534,11.028c0.01,0.131,0.021,0.264,0.024,0.396c0.005,0.69,0.139,1.295,0.655,1.844
					c0.528,0.56,0.71,1.33,0.814,2.146c-0.329,0-0.637,0-1.023,0c0,0.334-0.005,0.625,0.003,0.914
					c0.046,1.889,0.107,3.774,0.135,5.664c0.006,0.381,0.077,0.641,0.457,0.699c0.158,2.803-0.864,4.989-3.304,6.396
					c-1.057,0.608-2.18,1.108-3.294,1.612c-0.35,0.16-0.441,0.326-0.416,0.703c0.133,1.938,0.622,3.746,1.74,5.365
					c0.26,0.378,0.421,0.825,0.622,1.242c0.508,1.063,0.327,2.026-0.421,2.905c-0.819,0.961-1.829,1.672-2.922,2.283
					c-1.272,0.709-2.56,1.395-3.795,2.164c-0.625,0.389-1.186,0.904-1.717,1.422c-1.867,1.822-5.281,2.449-7.639,1.336
					c-0.47-0.225-0.947-0.521-1.294-0.9c-1.342-1.475-3.003-2.48-4.745-3.389c-1.381-0.721-2.781-1.414-3.852-2.596
					c-0.652-0.721-1.236-1.504-0.919-2.534c0.237-0.771,0.541-1.553,0.985-2.217c0.804-1.203,1.266-2.5,1.444-3.916
					c0.051-0.396,0.059-0.798,0.14-1.186c0.087-0.4-0.099-0.525-0.431-0.686c-1.25-0.602-2.531-1.164-3.702-1.896
					C322.372,25.661,321.573,23.517,321.682,20.944z M343.599,27.724c0.237,0.528,0.648,0.911,1.182,1.063
					c0.805,0.229,1.634,0.472,2.459,0.5c1.87,0.063,3.63-0.514,5.325-1.252c1.462-0.635,2.873-1.371,4.006-2.533
					c0.18-0.186,0.326-0.4,0.49-0.604c-0.248,0.125-0.406,0.316-0.579,0.491c-0.177,0.175-0.356,0.349-0.557,0.494
					c-2.441,1.79-5.143,2.951-8.178,3.178c-1.528,0.115-3.017-0.101-4.123-1.358c-0.612-0.986-1.446-1.754-2.387-2.418
					c-0.837-0.592-1.729-0.684-2.532-0.043c-0.848,0.674-1.689,1.399-2.362,2.24c-0.735,0.913-1.648,1.342-2.738,1.521
					c-1.385,0.227-2.748,0.036-4.068-0.372c-2.428-0.752-4.753-1.706-6.602-3.563c0.207,0.291,0.435,0.564,0.694,0.799
					c1.149,1.033,2.513,1.705,3.927,2.287c1.712,0.707,3.467,1.238,5.348,1.137c1.425-0.074,2.663-0.488,3.553-1.75
					c0.479-0.676,1.125-1.262,1.777-1.786c1.239-0.996,2.103-1,3.346,0.005C342.305,26.347,342.928,27.063,343.599,27.724z
					 M356.255,10.309c0-0.146,0.008-0.241-0.003-0.337c-0.386-4.508-2.25-8.217-6.036-10.799c-4.768-3.25-10.005-3.854-15.487-2.391
					c-4.194,1.119-7.501,3.508-9.563,7.424c-0.993,1.887-1.48,3.912-1.602,6.102c0.726-0.156,1.398-0.296,2.067-0.457
					c0.117-0.027,0.225-0.138,0.311-0.232c0.878-0.938,1.567-1.973,1.587-3.323c0-0.03,0.05-0.062,0.101-0.121
					c0.348,1.087,0.365,2.144,0.074,3.289c8.161-0.752,16.271-0.75,24.392-0.003c-0.229-1.846-0.188-2.641,0.171-3.348
					c0.02,0.113,0.039,0.192,0.044,0.271c0.054,1.307,0.729,2.313,1.571,3.232c0.095,0.107,0.225,0.22,0.356,0.25
					C354.892,10.024,355.552,10.157,356.255,10.309z M339.935,11.536c0-0.028,0-0.062,0-0.092c-2.799,0-5.598-0.029-8.396,0.012
					c-1.737,0.025-3.48,0.088-5.205,0.263c-1.819,0.185-2.881,1.354-3.039,3.176c-0.054,0.593-0.043,1.194,0,1.788
					c0.118,1.564,0.158,3.148,0.432,4.689c0.394,2.193,1.834,3.545,3.947,4.152c1.688,0.486,3.381,0.309,5.047-0.181
					c1.025-0.304,1.824-0.925,2.367-1.853c0.301-0.514,0.579-1.041,0.865-1.563c0.858-1.577,2.147-2.54,3.978-2.523
					c1.87,0.019,3.164,1.016,3.998,2.654c0.217,0.428,0.437,0.855,0.677,1.27c0.53,0.924,1.277,1.604,2.301,1.943
					c1.156,0.385,2.346,0.578,3.567,0.518c3.12-0.159,5.23-1.916,5.748-4.851c0.357-2.03,0.398-4.088,0.268-6.143
					c-0.102-1.644-0.991-2.655-2.611-2.997c-0.805-0.17-1.645-0.248-2.465-0.253C347.588,11.522,343.76,11.536,339.935,11.536z
					 M341.745,39.701c-0.096,0.104-0.175,0.188-0.25,0.271c-0.553,0.611-0.648,0.635-1.447,0.361
					c-0.068-0.023-0.176-0.043-0.222-0.008c-0.646,0.475-1.069,0.09-1.49-0.363c-0.092-0.1-0.272-0.244-0.346-0.213
					c-0.684,0.305-0.959-0.137-1.39-0.559c-0.373-0.369-1.019-0.582-1.562-0.623c-0.835-0.061-1.479-0.48-2.173-0.826
					c-0.1-0.049-0.159-0.211-0.2-0.332c-0.163-0.483-0.454-0.827-0.99-0.972c-0.074,0.771,0.429,1.345,0.682,2
					c-0.104-0.059-0.174-0.129-0.231-0.205c-1.217-1.686-1.631-3.55-1.299-5.601c0.149-0.938,0.233-1.892,0.353-2.863
					c-0.381-0.067-0.699-0.125-1.09-0.192c0,0.354,0.005,0.649-0.003,0.944c-0.035,1.492-0.063,3-0.719,4.378
					c-0.659,1.387-0.526,2.622,0.472,3.776c0.668,0.771,1.337,1.545,1.979,2.291c-0.698-0.191-2.296-1.131-3.255-1.932
					c-1.243-1.033-1.373-1.453-0.568-2.868c1.097-1.926,1.679-3.986,1.866-6.174c0.017-0.154,0.003-0.313,0.003-0.468
					c-0.041,0.001-0.084,0.003-0.125,0.005c-0.018,0.092-0.043,0.187-0.054,0.278c-0.217,1.974-0.62,3.888-1.622,5.64
					c-0.302,0.528-0.519,1.107-0.758,1.672c-0.218,0.506-0.156,0.984,0.255,1.367c0.41,0.381,0.826,0.768,1.293,1.072
					c0.914,0.598,1.843,1.18,2.806,1.695c1.991,1.068,3.669,2.541,5.323,4.045c0.401,0.365,0.86,0.525,1.406,0.518
					c1.025-0.018,2.057,0.041,3.079-0.023c0.449-0.029,0.924-0.221,1.317-0.457c0.445-0.27,0.828-0.656,1.214-1.021
					c1.28-1.215,2.687-2.244,4.243-3.088c1.046-0.568,2.1-1.156,3.044-1.875c1.748-1.328,1.666-1.549,0.82-3.155
					c-0.948-1.812-1.649-3.681-1.885-5.715c-0.039-0.318-0.082-0.633-0.123-0.949c-0.054,0.006-0.106,0.015-0.16,0.021
					c0.073,0.605,0.089,1.227,0.234,1.814c0.272,1.121,0.565,2.242,0.952,3.326c0.303,0.852,0.796,1.635,1.122,2.479
					c0.104,0.275,0.063,0.748-0.112,0.963c-1.069,1.305-2.5,2.113-3.998,2.813c-0.066-0.07-0.133-0.143-0.199-0.213
					c0.161-0.08,0.37-0.121,0.479-0.248c0.688-0.803,1.402-1.59,2.013-2.449c0.577-0.809,0.625-1.754,0.223-2.658
					c-0.71-1.597-0.922-3.272-0.935-4.992c-0.002-0.259,0-0.517,0-0.821c-0.397,0.076-0.714,0.14-1.063,0.207
					c0.063,0.496,0.117,0.938,0.18,1.377c0.192,1.396,0.445,2.789,0.146,4.199c-0.238,1.133-0.679,2.178-1.464,3.051
					c0.119-0.342,0.31-0.65,0.438-0.982c0.122-0.313,0.188-0.652,0.291-1.024c-0.656,0.198-0.941,0.598-1.123,1.102
					c-0.038,0.104-0.098,0.25-0.185,0.287c-0.649,0.279-1.309,0.543-1.97,0.799c-0.188,0.072-0.393,0.084-0.579,0.148
					c-0.353,0.123-0.699,0.266-1.188,0.453C342.803,39.886,342.52,40.017,341.745,39.701z M344.99,30.934
					c-0.062-0.079-0.097-0.11-0.116-0.149c-0.044-0.09-0.115-0.184-0.11-0.272c0.057-1.043-0.688-1.63-1.285-2.306
					c-0.245-0.276-0.462-0.577-0.728-0.911c-0.258,2.378-0.924,3.382-2.248,3.36c0.408-1.287-0.06-2.424-0.603-3.668
					c-0.399,1.281-1.087,2.394-0.513,3.768c-0.881-0.227-1.485-0.619-1.896-1.291c-0.405-0.665-0.41-1.398-0.345-2.242
					c-0.125,0.135-0.179,0.188-0.228,0.248c-0.413,0.496-0.773,1.053-1.25,1.471c-0.324,0.283-0.467,0.529-0.485,0.946
					c-0.015,0.362-0.171,0.718-0.265,1.075c-0.066-0.014-0.131-0.025-0.194-0.038c0-0.464,0-0.927,0-1.392
					c-0.051-0.002-0.102-0.006-0.153-0.01c-0.021,0.163-0.048,0.326-0.065,0.455c-0.141-0.097-0.301-0.208-0.461-0.32
					c-0.039,0.041-0.077,0.08-0.112,0.119c0.094,0.397,0.187,0.799,0.285,1.196c0.212,0.849,0.212,0.849-0.084,1.229
					c-0.278-0.719-0.533-1.375-0.816-2.105c-0.087,0.477-0.157,0.863-0.229,1.25c-0.648-0.386-0.324-0.959-0.321-1.486
					c-0.598,0.356-0.353,1.291,0.459,1.924c0.063-0.274,0.125-0.527,0.176-0.739c0.281,0.544,0.563,1.09,0.87,1.688
					c0.171-0.336,0.291-0.574,0.459-0.899c0.189,0.268,0.316,0.433,0.424,0.61c0.104,0.172,0.185,0.355,0.305,0.598
					c0.225-0.458,0.462-0.887,0.924-0.641c0.304,0.162,0.475,0.574,0.633,0.782c0.269-0.087,0.563-0.289,0.788-0.229
					c0.294,0.076,0.531,0.363,0.809,0.572c0.487-0.371,0.615-0.349,1.338,0.381c0.378-0.57,0.835-0.875,1.318-0.361
					c0.291-0.237,0.508-0.532,0.781-0.6c0.227-0.056,0.518,0.16,0.744,0.242c0.202-0.24,0.394-0.646,0.707-0.801
					c0.445-0.218,0.661,0.257,0.87,0.576c0.236-0.368,0.457-0.713,0.741-1.159c0.188,0.376,0.303,0.606,0.466,0.938
					c0.306-0.623,0.578-1.182,0.847-1.728c0.077,0.252,0.156,0.519,0.256,0.847c0.28-0.392,0.597-0.668,0.688-1.006
					c0.082-0.293,0.133-0.716-0.237-1.052c-0.12,1.338-0.12,1.338-0.4,1.524c-0.059-0.354-0.117-0.713-0.199-1.196
					c-0.323,0.784-0.584,1.417-0.845,2.049c-0.092-0.026-0.186-0.056-0.277-0.083c0.155-0.775,0.313-1.553,0.47-2.328
					c-0.028-0.039-0.054-0.074-0.081-0.111c-0.161,0.105-0.322,0.215-0.457,0.306c-0.025-0.12-0.063-0.278-0.097-0.437
					c-0.05,0.006-0.099,0.01-0.148,0.017C345.061,29.989,345.028,30.438,344.99,30.934z M339.772,37.585
					c0.044-1.17,0.071-2.292-0.271-3.383c-0.061-0.188-0.286-0.322-0.436-0.481c-0.146,0.163-0.388,0.308-0.426,0.492
					c-0.163,0.774-0.266,1.562-0.396,2.343c-0.063,0.37,0.035,0.649,0.397,0.807c0.015,0.006,0.015,0.043,0.027,0.086
					c-0.139-0.016-0.264-0.029-0.426-0.047c-0.028,0.809,0.005,1.588,0.364,2.295c0.112,0.223,0.418,0.457,0.647,0.473
					c0.149,0.01,0.402-0.35,0.47-0.584c0.1-0.357,0.076-0.75,0.109-1.129c0.036-0.434-0.068-0.771-0.563-0.871
					C339.418,37.585,339.563,37.585,339.772,37.585z M341.027,37.519c0.183-0.191,0.553-0.412,0.536-0.604
					c-0.065-0.918-0.222-1.831-0.388-2.738c-0.033-0.171-0.26-0.307-0.4-0.457c-0.149,0.158-0.38,0.29-0.44,0.479
					c-0.357,1.102-0.278,2.24-0.296,3.399c0.227,0,0.385,0,0.488,0c-0.149,0.117-0.459,0.246-0.467,0.389
					c-0.027,0.57,0,1.154,0.09,1.721c0.027,0.191,0.288,0.473,0.459,0.486c0.183,0.012,0.462-0.203,0.563-0.391
					c0.403-0.742,0.443-1.559,0.429-2.426C341.346,37.441,341.158,37.488,341.027,37.519z M322.673,12.062
					c0.513-0.691,1.19-1.146,2.044-1.253c2.233-0.28,4.467-0.663,6.71-0.759c3.705-0.155,7.42-0.172,11.13-0.148
					c3.592,0.021,7.192,0.053,10.757,0.612c1.271,0.199,2.617,0.211,3.604,1.257c-0.454-0.691-1.123-1.027-1.906-1.176
					c-2.773-0.527-5.577-0.754-8.396-0.818c-6.211-0.144-12.423-0.287-18.617,0.351c-1.202,0.124-2.396,0.331-3.58,0.569
					C323.636,10.854,323.019,11.308,322.673,12.062z M337.927,36.954c0.104-0.856,0.22-1.672,0.291-2.489
					c0.021-0.253-0.036-0.528-0.128-0.771c-0.062-0.162-0.237-0.283-0.364-0.425c-0.144,0.138-0.378,0.253-0.419,0.416
					c-0.173,0.718-0.324,1.445-0.418,2.179C336.779,36.726,337.022,36.948,337.927,36.954z M343.786,32.825
					c-0.541,0.338-0.767,0.809-0.737,1.354c0.035,0.674,0.146,1.344,0.268,2.01c0.019,0.112,0.232,0.268,0.359,0.27
					c0.452,0.009,0.772-0.276,0.728-0.737c-0.082-0.83-0.247-1.653-0.393-2.476C343.987,33.11,343.878,32.991,343.786,32.825z
					 M335.366,35.372c0.03,0.248,0.03,0.436,0.076,0.607c0.118,0.417,0.49,0.484,0.827,0.471c0.107-0.006,0.247-0.314,0.285-0.504
					c0.09-0.451,0.188-0.918,0.172-1.373c-0.016-0.461-0.147-0.92-0.276-1.369c-0.034-0.125-0.233-0.293-0.347-0.286
					c-0.112,0.008-0.272,0.2-0.304,0.337C335.632,33.978,335.499,34.708,335.366,35.372z M341.89,36.942
					c0.714,0.006,1.133-0.226,1.087-0.627c-0.087-0.771-0.199-1.541-0.362-2.3c-0.059-0.269-0.313-0.709-0.457-0.7
					c-0.443,0.025-0.443,0.49-0.524,0.838c-0.011,0.047-0.011,0.1-0.006,0.146C341.712,35.173,341.801,36.044,341.89,36.942z
					 M335.703,24.872c1.236-2.041,2.565-3.938,5.269-4.129c-1.516-0.549-2.598-0.279-3.574,0.852
					C336.573,22.548,336.121,23.7,335.703,24.872z M335.113,35.94c0.041-1.162,0.435-2.316-0.38-3.474
					c-0.437,0.875-0.597,1.694-0.562,2.563C334.203,35.69,334.35,35.848,335.113,35.94z M344.702,35.937
					c0.744-0.076,0.962-0.213,0.926-0.828c-0.043-0.775-0.226-1.547-0.362-2.316c-0.016-0.09-0.125-0.162-0.201-0.256
					C344.25,33.624,344.778,34.79,344.702,35.937z M336.641,36.913c0.145,0.766,0.256,1.493,0.427,2.204
					c0.038,0.15,0.302,0.352,0.451,0.346c0.161-0.008,0.438-0.23,0.441-0.369c0.021-0.586,0.043-1.201-0.12-1.75
					c-0.063-0.217-0.609-0.291-0.938-0.43C336.879,36.901,336.841,36.913,336.641,36.913z M343.169,36.829
					c-0.411,0.139-0.699,0.213-0.962,0.334c-0.107,0.051-0.221,0.199-0.24,0.318c-0.071,0.439-0.158,0.889-0.133,1.326
					c0.016,0.227,0.207,0.545,0.402,0.635c0.316,0.146,0.543-0.146,0.601-0.428C342.969,38.33,343.051,37.63,343.169,36.829z
					 M346.429,32.179c-1.06,0.928-0.271,2.038-0.511,3.068c0.544-0.037,0.796-0.274,0.873-0.698
					C346.939,33.728,346.799,32.946,346.429,32.179z M333.434,32.188c-0.413,0.747-0.563,1.69-0.38,2.389
					c0.104,0.399,0.313,0.67,0.788,0.634c0.033-0.455,0.021-0.892,0.106-1.308C334.088,33.226,333.899,32.679,333.434,32.188z
					 M344.677,36.349c-1.156,0.184-1.237,0.27-1.291,1.274c-0.008,0.148-0.066,0.314-0.02,0.439c0.088,0.221,0.237,0.414,0.36,0.619
					c0.191-0.145,0.497-0.256,0.554-0.439C344.46,37.636,344.546,37.003,344.677,36.349z M335.141,36.401
					c0.155,0.672,0.286,1.331,0.472,1.971c0.041,0.139,0.303,0.309,0.444,0.295c0.142-0.012,0.347-0.215,0.388-0.369
					c0.278-1.057-0.056-1.622-1.095-1.934C335.336,36.36,335.32,36.37,335.141,36.401z M347.159,34.903
					c-0.331,0.271-0.758,0.448-0.848,0.731c-0.19,0.599-0.201,1.253-0.288,1.888C346.873,37.564,347.431,36.258,347.159,34.903z
					 M332.715,34.569c0.062-0.779,0.049-1.43,0.177-2.053c0.106-0.517-0.103-0.763-0.526-1.025c-0.393,0.896-0.513,1.77-0.146,2.658
					C332.284,34.307,332.504,34.396,332.715,34.569z M345.988,35.753c-0.707,0.158-1.146,0.4-1.114,1.101
					c0.008,0.212-0.044,0.429-0.087,0.64c-0.06,0.289-0.041,0.555,0.285,0.641c0.354,0.098,0.535-0.15,0.595-0.445
					C345.789,37.074,345.873,36.454,345.988,35.753z M333.838,35.823c0.141,0.703,0.253,1.379,0.426,2.038
					c0.033,0.129,0.345,0.291,0.479,0.254c0.142-0.039,0.298-0.285,0.314-0.459c0.028-0.252-0.059-0.52-0.095-0.779
					C334.858,36.081,334.792,36.014,333.838,35.823z M347.414,31.532c-0.348,0.22-0.622,0.426-0.471,0.936
					c0.101,0.338,0.09,0.715,0.107,1.076c0.016,0.3,0.003,0.601,0.003,0.918C347.919,34.278,348.097,32.51,347.414,31.532z
					 M332.615,35.103c-0.097,1.444,0.37,2.448,1.173,2.428c-0.044-0.391-0.125-0.775-0.12-1.161
					C333.675,35.653,333.263,35.315,332.615,35.103z M353.517,25.745c-2.43,1.191-4.854,0.945-7.379-0.053
					C347.582,26.745,351.581,27.182,353.517,25.745z M326.645,25.934c1.59,1.099,5.648,0.929,7.121-0.296
					C331.409,26.694,329.049,26.864,326.645,25.934z M342.082,20.424c-0.903-0.728-3.039-0.826-3.972-0.188
					C339.473,19.894,340.796,19.778,342.082,20.424z"/>
				<path fill="#FFFFFF" d="M356.255,10.309c-0.702-0.151-1.362-0.282-2.017-0.44c-0.133-0.031-0.263-0.144-0.356-0.25
					c-0.842-0.922-1.519-1.928-1.571-3.233c-0.005-0.079-0.024-0.158-0.044-0.272c-0.359,0.707-0.4,1.502-0.171,3.349
					c-8.121-0.747-16.229-0.749-24.392,0.003c0.291-1.146,0.272-2.202-0.074-3.289c-0.051,0.061-0.101,0.091-0.101,0.121
					c-0.02,1.352-0.709,2.385-1.587,3.324c-0.086,0.095-0.192,0.203-0.311,0.231c-0.669,0.161-1.343,0.3-2.067,0.457
					c0.12-2.188,0.607-4.215,1.602-6.101c2.062-3.916,5.367-6.305,9.563-7.424c5.482-1.463,10.721-0.86,15.487,2.39
					c3.786,2.582,5.65,6.291,6.036,10.799C356.262,10.067,356.255,10.163,356.255,10.309z"/>
				<path d="M339.935,11.536c3.825,0,7.652-0.014,11.478,0.013c0.82,0.005,1.66,0.083,2.465,0.253
					c1.62,0.342,2.511,1.354,2.611,2.997c0.132,2.055,0.091,4.112-0.268,6.144c-0.518,2.934-2.628,4.689-5.748,4.85
					c-1.223,0.062-2.411-0.133-3.567-0.518c-1.022-0.341-1.771-1.021-2.301-1.943c-0.24-0.413-0.46-0.842-0.677-1.27
					c-0.834-1.64-2.128-2.637-3.998-2.654c-1.829-0.017-3.118,0.947-3.978,2.523c-0.286,0.521-0.564,1.049-0.865,1.563
					c-0.543,0.928-1.342,1.549-2.367,1.853c-1.666,0.489-3.358,0.667-5.047,0.181c-2.113-0.606-3.555-1.959-3.947-4.152
					c-0.272-1.541-0.313-3.124-0.432-4.689c-0.043-0.594-0.054-1.195,0-1.787c0.158-1.82,1.22-2.992,3.039-3.177
					c1.725-0.175,3.468-0.235,5.205-0.262c2.799-0.041,5.598-0.013,8.396-0.013C339.935,11.476,339.935,11.508,339.935,11.536z
					 M356.071,17.479c-0.166-0.046-0.274-0.084-0.388-0.105c-4.697-0.957-9.423-1.225-14.176-0.49
					c-4.645,0.717-8.937,2.313-12.658,5.25c-0.938,0.742-1.799,1.581-2.696,2.376c0.011,0.071,0.022,0.144,0.033,0.215
					c0.652,0.201,1.296,0.47,1.967,0.591c1.319,0.237,2.596-0.115,3.876-0.398c1.449-0.321,2.517-1.133,3.221-2.43
					c0.285-0.522,0.541-1.063,0.856-1.568c0.908-1.455,2.275-2.104,3.946-2.031c1.697,0.074,3.06,0.787,3.873,2.359
					c0.235,0.455,0.475,0.91,0.738,1.351c0.605,1.009,1.475,1.707,2.614,2.003c0.93,0.239,1.867,0.467,2.813,0.59
					c2.363,0.303,3.9-0.556,4.953-2.703C355.813,20.92,355.974,19.227,356.071,17.479z"/>
				<path fill="#FFFFFF" d="M341.745,39.701c0.774,0.316,1.059,0.186,1.455-0.516c0.49-0.189,0.838-0.332,1.189-0.455
					c0.188-0.063,0.393-0.076,0.579-0.146c0.661-0.256,1.319-0.521,1.97-0.801c0.087-0.037,0.146-0.182,0.185-0.287
					c0.182-0.504,0.467-0.902,1.123-1.102c-0.104,0.373-0.17,0.711-0.291,1.026c-0.131,0.332-0.319,0.641-0.438,0.98
					c0.785-0.871,1.225-1.917,1.464-3.05c0.299-1.409,0.046-2.805-0.146-4.198c-0.063-0.439-0.115-0.882-0.18-1.377
					c0.351-0.068,0.666-0.132,1.063-0.209c0,0.307-0.002,0.563,0,0.822c0.013,1.721,0.225,3.396,0.935,4.992
					c0.402,0.904,0.354,1.848-0.223,2.657c-0.609,0.859-1.324,1.646-2.013,2.449c-0.107,0.127-0.316,0.17-0.479,0.25
					c0.066,0.07,0.133,0.141,0.199,0.213c1.498-0.699,2.929-1.508,3.998-2.813c0.176-0.217,0.217-0.688,0.112-0.963
					c-0.326-0.846-0.819-1.629-1.122-2.481c-0.387-1.084-0.68-2.205-0.952-3.324c-0.146-0.59-0.161-1.211-0.234-1.815
					c0.053-0.007,0.106-0.015,0.16-0.021c0.041,0.315,0.084,0.631,0.123,0.948c0.234,2.034,0.936,3.903,1.885,5.716
					c0.846,1.606,0.927,1.825-0.82,3.155c-0.944,0.719-1.998,1.307-3.045,1.873c-1.557,0.846-2.962,1.875-4.242,3.088
					c-0.386,0.365-0.769,0.752-1.215,1.023c-0.394,0.234-0.867,0.426-1.316,0.455c-1.022,0.066-2.054,0.008-3.079,0.023
					c-0.546,0.01-1.005-0.15-1.406-0.516c-1.654-1.506-3.332-2.979-5.324-4.045c-0.962-0.518-1.891-1.1-2.805-1.695
					c-0.467-0.307-0.883-0.693-1.293-1.074c-0.411-0.381-0.473-0.859-0.255-1.365c0.239-0.565,0.456-1.145,0.758-1.674
					c1.002-1.752,1.405-3.664,1.622-5.639c0.011-0.093,0.036-0.188,0.054-0.277c0.041-0.003,0.084-0.005,0.125-0.006
					c0,0.155,0.014,0.313-0.003,0.467c-0.188,2.188-0.771,4.248-1.866,6.176c-0.805,1.413-0.675,1.833,0.568,2.868
					c0.959,0.799,2.557,1.738,3.255,1.932c-0.643-0.746-1.312-1.52-1.979-2.291c-0.998-1.154-1.131-2.391-0.473-3.777
					c0.655-1.378,0.685-2.886,0.72-4.378c0.008-0.295,0.003-0.591,0.003-0.945c0.391,0.068,0.709,0.125,1.09,0.193
					c-0.118,0.973-0.202,1.924-0.354,2.863c-0.331,2.051,0.082,3.914,1.3,5.6c0.059,0.078,0.128,0.148,0.231,0.205
					c-0.253-0.654-0.756-1.227-0.682-1.999c0.536,0.146,0.827,0.488,0.99,0.971c0.041,0.123,0.102,0.283,0.2,0.334
					c0.694,0.346,1.338,0.766,2.173,0.824c0.543,0.041,1.188,0.256,1.562,0.623c0.431,0.424,0.706,0.863,1.39,0.561
					c0.072-0.031,0.253,0.113,0.346,0.213c0.421,0.453,0.845,0.836,1.489,0.361c0.047-0.035,0.153-0.016,0.223,0.008
					c0.799,0.273,0.896,0.25,1.446-0.361C341.571,39.888,341.65,39.804,341.745,39.701z M335.67,43.101
					c-0.019,0.045-0.036,0.09-0.055,0.135c0.536,0.508,1.088,1,1.601,1.529c0.444,0.463,0.954,0.676,1.592,0.666
					c0.761-0.014,1.526,0.059,2.284,0.006c0.462-0.031,0.992-0.117,1.35-0.373c0.824-0.59,1.56-1.299,2.329-1.957
					c-0.033-0.053-0.065-0.104-0.1-0.154c-0.848,0.48-1.691,0.963-2.646,1.506c0.201-0.295,0.324-0.475,0.514-0.752
					c-0.732,0.242-1.34,0.451-1.949,0.643c-0.932,0.295-1.788,0.213-2.663-0.303C337.228,43.634,336.425,43.408,335.67,43.101z"/>
				<path fill="#FFFFFF" d="M344.99,30.934c0.038-0.496,0.071-0.942,0.104-1.389c0.051-0.007,0.1-0.011,0.148-0.017
					c0.034,0.157,0.07,0.315,0.097,0.437c0.135-0.09,0.296-0.199,0.457-0.306c0.026,0.037,0.053,0.072,0.081,0.111
					c-0.155,0.775-0.313,1.553-0.471,2.328c0.094,0.027,0.188,0.057,0.278,0.083c0.261-0.632,0.521-1.265,0.845-2.049
					c0.082,0.483,0.142,0.843,0.199,1.196c0.28-0.188,0.28-0.188,0.4-1.524c0.37,0.336,0.318,0.759,0.236,1.052
					c-0.092,0.338-0.407,0.614-0.688,1.006c-0.1-0.328-0.179-0.595-0.256-0.847c-0.269,0.546-0.541,1.104-0.847,1.728
					c-0.163-0.332-0.278-0.563-0.466-0.938c-0.284,0.446-0.505,0.791-0.741,1.159c-0.209-0.319-0.425-0.794-0.87-0.576
					c-0.313,0.153-0.505,0.561-0.707,0.801c-0.228-0.082-0.519-0.298-0.744-0.242c-0.273,0.066-0.49,0.361-0.781,0.6
					c-0.484-0.514-0.94-0.209-1.319,0.361c-0.722-0.729-0.85-0.752-1.337-0.381c-0.276-0.209-0.515-0.496-0.809-0.572
					c-0.225-0.059-0.521,0.144-0.788,0.229c-0.158-0.208-0.329-0.62-0.633-0.782c-0.462-0.246-0.699,0.183-0.924,0.641
					c-0.12-0.241-0.199-0.426-0.305-0.598c-0.106-0.179-0.233-0.344-0.424-0.61c-0.168,0.325-0.288,0.563-0.459,0.899
					c-0.309-0.6-0.589-1.146-0.87-1.688c-0.051,0.212-0.111,0.465-0.176,0.739c-0.812-0.633-1.057-1.566-0.459-1.924
					c-0.003,0.527-0.327,1.102,0.321,1.486c0.07-0.387,0.143-0.773,0.229-1.25c0.283,0.73,0.538,1.389,0.816,2.105
					c0.296-0.383,0.296-0.383,0.084-1.229c-0.101-0.397-0.191-0.799-0.285-1.196c0.035-0.039,0.073-0.078,0.112-0.119
					c0.16,0.113,0.32,0.225,0.461,0.32c0.019-0.129,0.044-0.291,0.065-0.455c0.053,0.004,0.104,0.008,0.153,0.01
					c0,0.465,0,0.928,0,1.392c0.063,0.013,0.128,0.024,0.194,0.038c0.094-0.357,0.25-0.713,0.265-1.075
					c0.02-0.417,0.161-0.663,0.485-0.946c0.477-0.418,0.837-0.975,1.25-1.471c0.049-0.061,0.103-0.113,0.228-0.248
					c-0.065,0.844-0.062,1.577,0.344,2.242c0.411,0.672,1.017,1.064,1.896,1.291c-0.574-1.374,0.112-2.484,0.513-3.768
					c0.543,1.244,1.011,2.381,0.603,3.668c1.323,0.021,1.989-0.982,2.248-3.36c0.266,0.334,0.481,0.635,0.728,0.912
					c0.597,0.675,1.342,1.262,1.285,2.305c-0.005,0.09,0.066,0.185,0.11,0.272C344.893,30.823,344.928,30.854,344.99,30.934z"/>
				<path fill="#FFFFFF" d="M339.772,37.585c-0.209,0-0.354,0-0.5,0c0.495,0.098,0.601,0.438,0.563,0.871
					c-0.033,0.377-0.011,0.77-0.109,1.129c-0.066,0.232-0.319,0.594-0.47,0.582c-0.229-0.014-0.535-0.25-0.647-0.473
					c-0.359-0.707-0.394-1.486-0.364-2.295c0.162,0.02,0.287,0.033,0.426,0.049c-0.014-0.043-0.014-0.08-0.027-0.088
					c-0.362-0.156-0.46-0.436-0.397-0.806c0.13-0.782,0.231-1.567,0.396-2.343c0.038-0.186,0.278-0.329,0.426-0.492
					c0.148,0.159,0.375,0.295,0.436,0.482C339.844,35.293,339.816,36.415,339.772,37.585z"/>
				<path fill="#FFFFFF" d="M341.027,37.519c0.131-0.029,0.319-0.078,0.574-0.143c0.016,0.867-0.024,1.684-0.429,2.426
					c-0.103,0.188-0.382,0.402-0.563,0.391c-0.171-0.016-0.432-0.295-0.459-0.486c-0.09-0.566-0.117-1.148-0.09-1.721
					c0.008-0.143,0.316-0.271,0.467-0.389c-0.104,0-0.263,0-0.488,0c0.018-1.159-0.063-2.298,0.296-3.399
					c0.062-0.188,0.291-0.32,0.44-0.479c0.142,0.15,0.367,0.286,0.4,0.457c0.166,0.907,0.321,1.82,0.388,2.739
					C341.579,37.105,341.209,37.326,341.027,37.519z"/>
				<path fill="#FFFFFF" d="M322.673,12.062c0.347-0.754,0.964-1.208,1.742-1.365c1.185-0.238,2.378-0.445,3.58-0.569
					c6.194-0.638,12.406-0.493,18.617-0.351c2.819,0.064,5.623,0.291,8.396,0.818c0.783,0.146,1.452,0.484,1.906,1.176
					c-0.985-1.046-2.332-1.058-3.604-1.257c-3.563-0.562-7.165-0.592-10.757-0.612c-3.71-0.022-7.425-0.007-11.13,0.148
					c-2.243,0.096-4.477,0.479-6.71,0.759C323.864,10.915,323.185,11.368,322.673,12.062z"/>
				<path fill="#FFFFFF" d="M343.599,27.724c-0.671-0.658-1.294-1.377-2.021-1.965c-1.243-1.005-2.105-1.001-3.346-0.005
					c-0.652,0.524-1.299,1.11-1.777,1.786c-0.89,1.262-2.128,1.676-3.553,1.75c-1.881,0.103-3.636-0.43-5.348-1.137
					c-1.414-0.582-2.776-1.254-3.927-2.287c-0.262-0.233-0.487-0.508-0.694-0.799c1.848,1.855,4.174,2.811,6.602,3.563
					c1.32,0.408,2.685,0.599,4.068,0.372c1.09-0.181,2.003-0.607,2.738-1.521c0.673-0.841,1.516-1.566,2.362-2.24
					c0.804-0.641,1.695-0.549,2.532,0.043c0.939,0.664,1.773,1.432,2.387,2.418L343.599,27.724z"/>
				<path fill="#FFFFFF" d="M337.927,36.954c-0.905-0.006-1.148-0.229-1.038-1.09c0.094-0.732,0.245-1.461,0.418-2.179
					c0.041-0.163,0.275-0.278,0.419-0.416c0.127,0.142,0.304,0.263,0.364,0.425c0.092,0.241,0.149,0.518,0.128,0.771
					C338.147,35.282,338.032,36.098,337.927,36.954z"/>
				<path fill="#FFFFFF" d="M343.786,32.825c0.092,0.166,0.2,0.285,0.225,0.418c0.146,0.822,0.311,1.646,0.393,2.477
					c0.046,0.461-0.274,0.746-0.728,0.736c-0.127-0.002-0.342-0.155-0.359-0.269c-0.12-0.665-0.231-1.336-0.268-2.01
					C343.02,33.634,343.245,33.163,343.786,32.825z"/>
				<path fill="#FFFFFF" d="M335.366,35.372c0.134-0.664,0.267-1.396,0.435-2.117c0.03-0.137,0.19-0.329,0.304-0.337
					c0.112-0.007,0.313,0.161,0.347,0.286c0.129,0.449,0.262,0.908,0.276,1.369c0.019,0.455-0.082,0.922-0.172,1.373
					c-0.038,0.188-0.178,0.498-0.285,0.504c-0.337,0.015-0.709-0.054-0.827-0.471C335.396,35.808,335.396,35.62,335.366,35.372z"/>
				<path fill="#FFFFFF" d="M341.89,36.942c-0.09-0.898-0.179-1.771-0.264-2.643c-0.005-0.048-0.005-0.102,0.006-0.146
					c0.081-0.348,0.081-0.813,0.524-0.838c0.144-0.009,0.398,0.434,0.457,0.7c0.163,0.759,0.275,1.528,0.362,2.3
					C343.023,36.718,342.604,36.948,341.89,36.942z"/>
				<path fill="#FFFFFF" d="M335.703,24.872c0.418-1.172,0.869-2.324,1.693-3.277c0.978-1.131,2.06-1.398,3.574-0.852
					C338.269,20.936,336.94,22.831,335.703,24.872z"/>
				<path fill="#FFFFFF" d="M335.113,35.94c-0.763-0.094-0.909-0.25-0.94-0.91c-0.035-0.867,0.125-1.688,0.562-2.563
					C335.547,33.625,335.154,34.778,335.113,35.94z"/>
				<path fill="#FFFFFF" d="M344.702,35.937c0.075-1.146-0.452-2.313,0.361-3.4c0.076,0.094,0.187,0.166,0.201,0.256
					c0.138,0.771,0.319,1.541,0.362,2.316C345.664,35.724,345.447,35.86,344.702,35.937z"/>
				<path fill="#FFFFFF" d="M343.625,27.7c1.106,1.26,2.595,1.476,4.123,1.359c3.035-0.227,5.735-1.388,8.178-3.178
					c0.199-0.146,0.38-0.319,0.557-0.494c0.173-0.175,0.331-0.367,0.579-0.49c-0.164,0.201-0.312,0.418-0.49,0.603
					c-1.133,1.163-2.544,1.897-4.006,2.532c-1.695,0.738-3.455,1.314-5.325,1.252c-0.825-0.027-1.654-0.271-2.459-0.5
					c-0.532-0.149-0.943-0.532-1.182-1.062L343.625,27.7z"/>
				<path fill="#FFFFFF" d="M336.641,36.913c0.199,0,0.237-0.012,0.263,0c0.327,0.139,0.873,0.213,0.938,0.43
					c0.163,0.549,0.141,1.164,0.12,1.75c-0.003,0.139-0.28,0.361-0.441,0.369c-0.149,0.006-0.413-0.195-0.451-0.346
					C336.897,38.406,336.786,37.679,336.641,36.913z"/>
				<path fill="#FFFFFF" d="M343.169,36.829c-0.118,0.801-0.199,1.5-0.332,2.188c-0.058,0.281-0.283,0.572-0.601,0.428
					c-0.195-0.092-0.388-0.408-0.402-0.635c-0.025-0.438,0.062-0.889,0.133-1.328c0.021-0.117,0.133-0.268,0.24-0.316
					C342.469,37.042,342.758,36.968,343.169,36.829z"/>
				<path fill="#FFFFFF" d="M346.429,32.179c0.369,0.77,0.51,1.549,0.362,2.37c-0.077,0.424-0.329,0.661-0.873,0.698
					C346.159,34.217,345.37,33.104,346.429,32.179z"/>
				<path fill="#FFFFFF" d="M333.434,32.188c0.465,0.489,0.653,1.036,0.516,1.715c-0.087,0.416-0.073,0.853-0.106,1.308
					c-0.475,0.036-0.684-0.233-0.788-0.634C332.871,33.88,333.021,32.937,333.434,32.188z"/>
				<path fill="#FFFFFF" d="M344.677,36.349c-0.131,0.654-0.217,1.288-0.396,1.895c-0.057,0.184-0.361,0.295-0.554,0.438
					c-0.123-0.205-0.272-0.396-0.36-0.617c-0.048-0.125,0.012-0.291,0.02-0.439C343.439,36.618,343.52,36.532,344.677,36.349z"/>
				<path fill="#FFFFFF" d="M335.141,36.401c0.179-0.031,0.194-0.041,0.209-0.037c1.039,0.313,1.373,0.877,1.095,1.934
					c-0.041,0.154-0.244,0.357-0.388,0.369c-0.143,0.014-0.403-0.156-0.444-0.295C335.427,37.732,335.297,37.074,335.141,36.401z"/>
				<path fill="#FFFFFF" d="M347.159,34.903c0.272,1.354-0.285,2.661-1.136,2.62c0.087-0.635,0.098-1.29,0.288-1.888
					C346.401,35.353,346.827,35.175,347.159,34.903z"/>
				<path fill="#FFFFFF" d="M332.715,34.569c-0.211-0.174-0.432-0.264-0.497-0.42c-0.365-0.89-0.245-1.763,0.146-2.658
					c0.425,0.264,0.634,0.51,0.526,1.025C332.763,33.141,332.776,33.79,332.715,34.569z"/>
				<path fill="#FFFFFF" d="M345.988,35.753c-0.114,0.701-0.198,1.321-0.321,1.934c-0.06,0.295-0.239,0.543-0.595,0.447
					c-0.326-0.088-0.345-0.354-0.285-0.643c0.043-0.209,0.095-0.426,0.087-0.639C344.842,36.153,345.281,35.911,345.988,35.753z"/>
				<path fill="#FFFFFF" d="M333.838,35.823c0.954,0.189,1.021,0.258,1.125,1.054c0.036,0.259,0.123,0.527,0.095,0.779
					c-0.018,0.174-0.174,0.42-0.313,0.459c-0.136,0.037-0.446-0.125-0.479-0.254C334.091,37.203,333.978,36.526,333.838,35.823z"/>
				<path fill="#FFFFFF" d="M347.414,31.532c0.684,0.978,0.505,2.746-0.359,2.93c0-0.317,0.013-0.618-0.003-0.918
					c-0.019-0.361-0.008-0.738-0.107-1.076C346.792,31.958,347.067,31.752,347.414,31.532z"/>
				<path fill="#FFFFFF" d="M332.615,35.103c0.648,0.215,1.061,0.551,1.053,1.268c-0.005,0.386,0.076,0.77,0.12,1.161
					C332.985,37.55,332.518,36.547,332.615,35.103z"/>
				<path fill="#FFFFFF" d="M353.517,25.745c-1.937,1.437-5.936,1-7.379-0.053C348.662,26.69,351.088,26.938,353.517,25.745z"/>
				<path fill="#FFFFFF" d="M326.645,25.934c2.403,0.933,4.765,0.763,7.121-0.296C332.294,26.862,328.235,27.03,326.645,25.934z"/>
				<path fill="#FFFFFF" d="M342.082,20.424c-1.286-0.646-2.608-0.53-3.972-0.188C339.043,19.598,341.178,19.696,342.082,20.424z"/>
				<path d="M356.071,17.479c-0.097,1.746-0.258,3.439-1.024,5.006c-1.052,2.147-2.59,3.006-4.953,2.702
					c-0.946-0.122-1.885-0.35-2.813-0.589c-1.141-0.296-2.009-0.995-2.614-2.003c-0.265-0.438-0.503-0.896-0.738-1.351
					c-0.813-1.572-2.176-2.285-3.873-2.359c-1.671-0.07-3.038,0.576-3.946,2.031c-0.315,0.505-0.571,1.046-0.856,1.568
					c-0.704,1.297-1.771,2.107-3.221,2.43c-1.28,0.283-2.557,0.637-3.876,0.398c-0.671-0.121-1.313-0.39-1.967-0.591
					c-0.011-0.071-0.022-0.144-0.033-0.215c0.897-0.795,1.759-1.634,2.696-2.376c3.723-2.938,8.016-4.533,12.658-5.25
					c4.753-0.732,9.479-0.467,14.176,0.49C355.796,17.396,355.905,17.435,356.071,17.479z"/>
				<path d="M335.67,43.101c0.755,0.309,1.559,0.533,2.256,0.943c0.875,0.516,1.731,0.6,2.663,0.305
					c0.609-0.191,1.217-0.4,1.949-0.645c-0.188,0.277-0.313,0.457-0.514,0.752c0.954-0.541,1.799-1.023,2.646-1.504
					c0.033,0.051,0.065,0.102,0.1,0.152c-0.771,0.66-1.505,1.367-2.329,1.957c-0.356,0.258-0.888,0.344-1.35,0.375
					c-0.758,0.053-1.523-0.02-2.284-0.008c-0.638,0.01-1.146-0.203-1.592-0.664c-0.513-0.529-1.063-1.021-1.601-1.529
					C335.634,43.191,335.652,43.146,335.67,43.101z"/>
			</g>
			<polygon points="358.541,13.665 358.112,20.94 357.061,22.088 356.916,13.665 			"/>
			<polygon points="321.261,13.709 321.677,21.437 322.935,20.929 323.581,13.655 			"/>
		</g>
	</g>
</g>
<g id="Calque_2_1_">
	<g>
		<g id="Layer_2">
			<path fill="#E2E2E2" d="M18.182,8.157c0,0,0.303,2.715,0.766,3.103c0.464,0.378,2.744,1.258,2.999,1.532
				c0.255,0.274,0.255,1.344,0.255,1.344l5.497,4.958c0,0,1.703-2.526,3.529-3.208c1.826-0.681,6.66-2.09,7.701-1.92
				c1.04,0.17,8.306,1.296,10.634,3.472l3.349-2.536c0,0-0.464-0.794-0.511-1.599c0,0,3.16-1.135,4.05-2.043
				c0.889-0.899,2.933-3.255,3.103-3.576c0.171-0.322,1.012,0.208,1.012,0.208s1.429,1.674,1.789,3.065c0,0-0.332,0.709-0.918,1.202
				c-0.587,0.491-5.185,4.635-5.156,5.014c0.037,0.379-0.076,1.088-0.076,1.088l-1.655-0.738l-2.8,3.065
				c0,0,1.115,2.592,1.059,4.134c-0.057,1.533-0.35,4.201-0.671,5.336c-0.322,1.135-0.72,2.971-0.72,2.971s-0.047,0.833-0.095,1.306
				c-0.046,0.473,0.872,1.305,0.824,2.167c-0.048,0.859,0.32,1.561-2.092,3.689c0,0-0.548,0.605-0.548,1.183
				s0.057,2.261-0.189,2.857c-0.246,0.596-0.852,1.229-0.852,1.229s7.332,6.622,8.903,6.386l0.443,0.218c0,0,1.42-0.767,2.129-0.719
				c0.71,0.037,3.104,0,2.962,4.455l-0.294,0.492c0,0-7.342,0.898-8.146,0.35c-0.805-0.539-5.8-2.79-9.972-7.284
				c0,0-2.999,2.555-5.544,2.299c-2.545-0.255-6.461-3.614-6.461-3.614s-3.255,4.135-8.193,6.963v0.275
				c0,0-7.029,1.778-10.463-0.587c0,0,0.501-4.106,4.475-4.333c0,0,1.183,0.133,2.09,0.965c0,0,8.165-5.657,8.401-6.926l0.265-0.426
				l-0.029-0.86c0,0,0.492-1.098,0.54-2.005c0.038-0.909-3.312-2.82-3.283-3.634c0.028-0.813,0.775-2.819,0.775-2.819
				s0.284-1.467-0.671-3.822s-0.426-8.373-0.293-8.704c0.133-0.331,0.133-0.331,0.133-0.331l-6.292-5.866l-1.447,0.596
				c0,0-0.548-2.166-1.428-3.046c-0.88-0.88-2.98-2.658-2.895-2.923c0.085-0.265,0.908-2.204,1.703-2.252
				C16.677,8.251,16.223,7.532,18.182,8.157z"/>
		</g>
		<g id="Layer_3">
			<path fill="#848484" d="M14.775,10.456c0,0-1.656,1.75-1.476,6.982c0,0,0.69,1.4,1.627,0.908c0,0,2.299-0.69,2.763-4.541
				l-0.152-0.388c0,0-1.485,3.463-2.62,3.472c-1.136,0-0.805-0.994-0.805-0.994s-0.076-2.696,0.871-4.73
				C15.938,9.112,14.775,10.456,14.775,10.456z"/>
			<path fill="#878787" d="M62.513,11.25c0,0,2.024,5.071,0.132,7.635c0,0-1.154,1.381-2.62-1.457c0,0-0.482-2.772,1.003-4.475
				c1.485-1.703,0.624-0.549,0.624-0.549s-2.517,3.557,0.274,6.168l0.757-0.53c0,0,1.163-2.422-0.293-6.33L62.513,11.25z"/>
			<path fill="#2D2D2D" d="M30.773,28.62c0,0,1.183-2.517,3.585-2.328c0,0,0.889,0.605,1.646,0.634
				c0.748,0.038,1.041,0.028,1.041,0.028s0.88,4.418-1.41,5.61c-2.29,1.192-3.936-0.672-3.936-0.672S30.319,29.339,30.773,28.62z"/>
			<path fill="#3F3F3F" d="M42.504,26.804c0,0,0.832,0.852,3.235-0.341c2.403-1.192,2.962,2.848,2.962,2.848
				s-1.41,3.907-3.019,3.671s-2.403-0.217-2.847-1.978C42.39,29.244,41.794,27.646,42.504,26.804z"/>
			<path fill="#474747" d="M39.41,33.332c0,0,2.47-0.397,1.836,4.38c0,0-0.189,0.474-1.079-2.63l-1.125,2.876l-0.464-1.088
				L39.41,33.332z"/>
			<path fill="#848484" d="M30.281,39.092c0,0,0.501-1.608,1.362-1.608c0.861,0,0.634,1.315,0.634,1.315l-0.379-0.132
				c0,0-0.274,3.708-1.069,3.982L30.281,39.092z"/>
			<path fill="#848484" d="M46.902,38.525"/>
			<path fill="#848484" d="M47.906,37.891l1.069,1.533c0,0,0.756,2.299-0.379,3.094c0,0-0.18,0.567-1.362-3.69l-0.332-0.303
				C46.902,38.525,47.527,37.541,47.906,37.891z"/>
			<path fill="#848484" d="M19.183,16.387c0,0,1.239-2.81,3.292-3.604l0.265,1.353l-1.883,2.157l-0.625-0.501L19.183,16.387z"/>
			<path fill="#848484" d="M52.939,13.294c0,0,2.743,2.942,2.933,4.475l-0.775-0.255l-1.646-2.621L52.939,13.294z"/>
			<path fill="#848484" d="M29.59,43.994l-4.418,4.381c0,0,2.933-1.901,7.654-0.758C32.825,47.617,29.836,45.697,29.59,43.994z"/>
			<path fill="#848484" d="M48.994,45.46l3.576,3.046c0,0-1.986-1.409-7.54,0.852C45.03,49.358,48.824,46.52,48.994,45.46z"/>
		</g>
		<g id="Layer_1_2_">
			<g>
				<g>
					<path d="M26.547,31.236c0.019,0.132,0.038,0.255,0.066,0.388c0.095-0.028,0.18-0.047,0.274-0.076
						c-0.823-2.999-1.021-6.14-0.577-9.224c0.028-0.18-0.246-0.255-0.274-0.076c-0.454,3.132-0.265,6.32,0.577,9.375
						c0.048,0.18,0.303,0.104,0.274-0.076c-0.019-0.132-0.038-0.255-0.066-0.388C26.792,30.98,26.518,31.057,26.547,31.236
						L26.547,31.236z"/>
				</g>
			</g>
			<g>
				<g>
					<path d="M50.294,18.285c0.112,0.151,0.217,0.312,0.312,0.482c0.085,0.161,0.331,0.019,0.246-0.142
						c-0.095-0.17-0.198-0.331-0.313-0.482C50.434,17.991,50.189,18.133,50.294,18.285L50.294,18.285z"/>
				</g>
			</g>
			<g>
				<g>
					<path d="M26.102,23.403c0.378-2.753,2.091-5.156,4.352-6.717c2.526-1.75,5.601-2.479,8.628-2.706
						c-0.009-0.095-0.028-0.189-0.037-0.274c-0.086,0.028-0.18,0.057-0.266,0.085c-0.151,0.047-0.123,0.274,0.038,0.274
						c2.138,0.038,4.182,0.653,6.206,1.268c1.911,0.586,3.955,1.277,5.241,2.904c0.113,0.142,0.313-0.057,0.199-0.198
						c-1.278-1.618-3.303-2.337-5.204-2.923c-2.1-0.644-4.229-1.296-6.442-1.334c0.01,0.095,0.027,0.189,0.038,0.274
						c0.085-0.028,0.18-0.057,0.265-0.085c0.142-0.047,0.133-0.293-0.038-0.274c-3.112,0.227-6.301,0.984-8.884,2.829
						c-2.251,1.608-3.983,4.03-4.361,6.812C25.809,23.507,26.083,23.583,26.102,23.403L26.102,23.403z"/>
				</g>
			</g>
			<g>
				<g>
					<path d="M51.645,34.415c-0.274-1.552,0.426-3.065,0.805-4.542c0.35-1.353,0.577-2.734,0.605-4.134
						c0.057-2.573-0.624-5.146-2.28-7.162c-0.113-0.142-0.312,0.057-0.198,0.199c1.77,2.138,2.355,4.938,2.166,7.663
						c-0.104,1.429-0.396,2.829-0.804,4.201c-0.369,1.268-0.805,2.507-0.568,3.841C51.409,34.67,51.684,34.595,51.645,34.415
						L51.645,34.415z"/>
				</g>
			</g>
			<g>
				<g>
					<path d="M26.357,31.009c0.521,0.899,0.757,1.92,0.663,2.961c-0.085,0.918-0.596,1.703-0.71,2.602
						c-0.17,1.287,0.89,2.081,1.779,2.811c0.482,0.397,1.021,0.822,1.258,1.419c0.331,0.832-0.199,1.589-0.36,2.393
						c-0.312,1.665,1.514,2.857,2.574,3.823c1.656,1.494,3.368,2.941,5.279,4.096c0.161,0.096,0.303-0.151,0.142-0.245
						c-1.722-1.041-3.283-2.31-4.777-3.652c-0.7-0.624-1.41-1.239-2.072-1.901c-0.332-0.331-0.653-0.691-0.814-1.136
						c-0.189-0.511-0.066-1.003,0.095-1.494c0.218-0.653,0.445-1.287,0.189-1.959c-0.18-0.482-0.549-0.87-0.927-1.211
						c-0.917-0.813-2.365-1.608-2.072-3.065c0.104-0.52,0.359-1.002,0.511-1.514c0.123-0.416,0.189-0.851,0.199-1.277
						c0.028-0.983-0.227-1.939-0.719-2.791C26.509,30.707,26.263,30.848,26.357,31.009L26.357,31.009z"/>
				</g>
			</g>
			<g>
				<g>
					<path d="M51.324,34.784c0.597,0.567,0.898,1.381,0.814,2.194c-0.086,0.881-0.654,1.496-1.249,2.102
						c-0.483,0.491-0.966,0.983-1.184,1.655c-0.255,0.747-0.188,1.562-0.227,2.337c-0.058,1.021-0.416,1.74-1.135,2.46
						c-0.615,0.605-1.221,1.22-1.836,1.826c-1.239,1.229-2.564,2.439-4.153,3.206c-1.769,0.853-3.888,1.146-5.695,0.247
						c-0.161-0.086-0.303,0.16-0.142,0.245c3.443,1.731,7.067-0.529,9.546-2.876c0.728-0.69,1.429-1.42,2.146-2.119
						c0.616-0.596,1.222-1.183,1.429-2.044c0.228-0.907,0.066-1.854,0.237-2.762c0.18-0.984,0.86-1.58,1.523-2.271
						c0.577-0.605,1.002-1.276,1.04-2.128c0.038-0.853-0.293-1.674-0.908-2.261C51.39,34.453,51.191,34.651,51.324,34.784
						L51.324,34.784z"/>
				</g>
			</g>
			<g>
				<g>
					<path d="M30.605,28.521c0.511-1.306,1.816-2.157,3.217-2.129c0.179,0,0.179-0.284,0-0.284
						c-1.533-0.038-2.933,0.908-3.491,2.337C30.264,28.615,30.539,28.691,30.605,28.521L30.605,28.521z"/>
				</g>
			</g>
			<g>
				<g>
					<path d="M33.935,26.298c0.549,0.208,1.088,0.435,1.646,0.634c0.18,0.066,0.341,0.123,0.53,0.104
						c0.246-0.019,0.473-0.227,0.653,0.17c0.057,0.124,0.038,0.303,0.047,0.426c0.095,1.164,0.095,2.365-0.501,3.396
						c-0.095,0.161,0.152,0.303,0.246,0.142c0.653-1.135,0.719-2.63,0.511-3.898c-0.057-0.34-0.199-0.624-0.587-0.605
						c-0.265,0.01-0.454,0.095-0.748,0.019c-0.189-0.057-0.378-0.142-0.567-0.218c-0.388-0.151-0.767-0.293-1.154-0.444
						C33.841,25.957,33.765,26.231,33.935,26.298L33.935,26.298z"/>
				</g>
			</g>
			<g>
				<g>
					<path d="M30.246,28.493c0.057,2.024,0.719,4.116,2.961,4.503c0.946,0.161,1.797-0.066,2.479-0.757
						c0.756-0.785,1.041-1.882,1.286-2.914c0.048-0.18-0.227-0.255-0.274-0.076c-0.218,0.899-0.445,1.854-1.031,2.583
						c-0.653,0.813-1.533,1.069-2.545,0.86c-2.015-0.416-2.536-2.393-2.592-4.2C30.52,28.303,30.236,28.303,30.246,28.493
						L30.246,28.493z"/>
				</g>
			</g>
			<g>
				<g>
					<path d="M42.402,26.96c-0.17-0.189-0.396-0.047-0.511,0.142c-0.236,0.407-0.188,1.003-0.132,1.438
						c0.161,1.117,0.397,2.422,1.031,3.387c0.521,0.794,1.409,1.211,2.355,1.088c0.956-0.123,1.722-0.785,2.167-1.608
						c0.084-0.161-0.161-0.303-0.246-0.142c-0.767,1.419-2.782,2.157-3.918,0.681c-0.49-0.644-0.69-1.476-0.87-2.242
						c-0.094-0.397-0.188-0.804-0.245-1.211c-0.028-0.199-0.048-0.397-0.038-0.596c0,0,0.143-0.795,0.199-0.729
						C42.327,27.292,42.526,27.092,42.402,26.96L42.402,26.96z"/>
				</g>
			</g>
			<g>
				<g>
					<path d="M47.35,31.501c0.426-0.757,1.211-1.703,1.089-2.621c-0.114-0.776-0.663-1.599-1.23-2.128
						c-0.559-0.511-1.315-0.833-2.081-0.719c-1.004,0.151-1.921,1.164-2.933,0.53c-0.152-0.095-0.294,0.151-0.143,0.246
						c0.567,0.359,1.154,0.293,1.76,0.038c0.908-0.378,1.665-0.794,2.63-0.293c0.767,0.397,1.382,1.258,1.646,2.072
						c0.313,0.956-0.53,1.939-0.975,2.734C47.02,31.52,47.265,31.662,47.35,31.501L47.35,31.501z"/>
				</g>
			</g>
			<g>
				<g>
					<path d="M39.394,33.157c-0.18-0.218-0.445-0.142-0.577,0.095c-0.123,0.236-0.151,0.558-0.208,0.823
						c-0.075,0.35-0.161,0.7-0.236,1.05c-0.199,0.87-0.738,2.213,0.208,2.838c0.085,0.057,0.18-0.01,0.208-0.084
						c0.378-0.975,0.757-1.95,1.135-2.915c-0.095,0-0.18,0-0.273,0c0.15,0.54,0.312,1.089,0.463,1.628
						c0.095,0.33,0.133,0.927,0.397,1.163c0.501,0.444,0.681-0.7,0.672-0.975c-0.01-0.435-0.113-0.879-0.199-1.305
						c-0.094-0.464-0.18-0.956-0.369-1.391c-0.283-0.644-0.86-1.126-1.598-1.003c-0.181,0.029-0.104,0.303,0.075,0.274
						c1.419-0.236,1.637,2.082,1.77,3.027c0.037,0.303,0.075,0.635-0.02,0.928c-0.075,0.236-0.123,0.255-0.218,0.027
						c-0.066-0.141-0.085-0.302-0.132-0.453c-0.189-0.662-0.379-1.325-0.568-1.987c-0.037-0.142-0.227-0.123-0.273,0
						c-0.379,0.975-0.758,1.95-1.135,2.915c0.066-0.029,0.141-0.058,0.208-0.086c-0.738-0.491-0.265-1.656-0.114-2.346
						c0.076-0.351,0.161-0.7,0.236-1.051c0.039-0.179,0.077-0.35,0.114-0.53c0-0.009,0.114-0.567,0.227-0.435
						C39.309,33.497,39.508,33.289,39.394,33.157L39.394,33.157z"/>
				</g>
			</g>
			<g>
				<g>
					<path d="M32.97,39.722c-0.208-0.189-0.511-0.634-0.842-0.463c-0.388,0.198-0.407,0.879-0.463,1.239
						c-0.114,0.689-0.265,1.381-0.474,2.053c-0.132,0.416-0.454,0.975-0.065,1.344c0.653,0.614,1.759-0.086,2.1-0.701
						c0.227-0.416,0.293-0.897,0.227-1.372c-0.104-0.671-0.53-1.238-0.605-1.92c-0.019-0.18-0.303-0.18-0.284,0
						c0.085,0.757,0.596,1.4,0.634,2.167c0.038,0.832-0.577,1.863-1.533,1.74c-0.71-0.095-0.265-0.936-0.142-1.353
						c0.114-0.388,0.218-0.785,0.303-1.191c0.076-0.379,0.123-0.758,0.189-1.136c0.038-0.171,0.085-0.597,0.331-0.597
						c0.085,0,0.359,0.322,0.426,0.389C32.904,40.044,33.103,39.845,32.97,39.722L32.97,39.722z"/>
				</g>
			</g>
			<g>
				<g>
					<path d="M45.412,41.028c0.406-0.142,0.728-0.406,0.897-0.813c0.038-0.085,0.038-0.198,0.077-0.273c0-0.152,0.037-0.152,0.122,0
						c0.085,0.065,0.142,0.16,0.151,0.273c0.132,0.35,0.17,0.747,0.208,1.116c0.066,0.672,0.057,1.354,0.057,2.024
						c0,0.389,0.104,0.587-0.35,0.529c-0.417-0.047-0.832-0.112-1.24-0.188c0.029,0.057,0.067,0.113,0.096,0.171
						c0.236-1.041,0.615-2.139,0.416-3.217c-0.038-0.18-0.312-0.104-0.274,0.075c0.199,1.013-0.189,2.081-0.417,3.065
						c-0.018,0.066,0.02,0.161,0.096,0.171c0.435,0.084,0.879,0.15,1.315,0.198c0.207,0.028,0.481,0.095,0.604-0.123
						c0.151-0.265,0.029-0.813,0.029-1.116c-0.01-0.511-0.01-1.013-0.048-1.523c-0.038-0.426-0.095-0.861-0.218-1.277
						c-0.066-0.218-0.151-0.567-0.397-0.652c-0.15-0.047-0.293,0.028-0.368,0.16c-0.096,0.161-0.076,0.37-0.161,0.539
						c-0.143,0.275-0.379,0.465-0.673,0.568C45.165,40.811,45.241,41.084,45.412,41.028L45.412,41.028z"/>
				</g>
			</g>
			<g>
				<g>
					<path d="M33.812,41.397c0.01-0.454,0.511-0.747,0.871-0.397c0.113,0.104,0.161,0.284,0.293,0.369
						c0.142,0.095,0.208,0.076,0.359,0.028c0.246-0.085-0.151-0.397,0.474-0.198c0.217,0.075,0.331,0.34,0.463,0.501
						c0.161,0.199,0.312,0.331,0.567,0.379c0.076,0.009,0.189-0.039,0.18-0.133c0.161-0.085,0.331-0.18,0.492-0.265
						c0.095,0.057,0.18,0.132,0.236,0.227c0.085,0.095,0.142,0.208,0.208,0.312c0.066,0.114,0.217,0.077,0.255-0.037
						c0.057-0.151,0.18-0.492,0.34-0.577c0.275-0.133,0.483,0.037,0.615,0.237c0.114,0.17,0.219,0.32,0.407,0.416
						c0.085,0.038,0.17,0.009,0.208-0.086c0.151-0.387,0.614-0.605,1.012-0.482c0.257,0.086,0.37,0.369,0.625,0.436
						c0.161,0.037,0.284-0.02,0.379-0.143c0.057-0.075,0.057-0.17,0.094-0.255c0.237-0.492,0.577-0.123,0.729,0.171
						c0.057,0.104,0.236,0.084,0.256-0.038c0.133-0.7,0.993-0.871,1.353-0.246c0.066,0.104,0.228,0.085,0.256-0.038
						c0.133-0.444,0.653-0.615,1.031-0.359c0.151,0.104,0.293-0.142,0.142-0.246c-0.539-0.36-1.268-0.076-1.447,0.53
						c0.085-0.01,0.171-0.02,0.255-0.038c-0.481-0.832-1.692-0.644-1.873,0.313c0.085-0.01,0.171-0.02,0.256-0.038
						c-0.171-0.332-0.473-0.757-0.908-0.597c-0.142,0.058-0.228,0.151-0.284,0.284c-0.028,0.076-0.028,0.265-0.075,0.313
						c-0.132,0.104-0.303-0.104-0.389-0.171c-0.577-0.454-1.447-0.15-1.702,0.502c0.066-0.029,0.142-0.057,0.208-0.086
						c-0.397-0.188-0.436-0.842-0.993-0.795c-0.426,0.039-0.663,0.54-0.795,0.891c0.085-0.01,0.17-0.02,0.255-0.039
						c-0.189-0.33-0.463-0.747-0.899-0.728c-0.321,0.019-0.605,0.265-0.558,0.596c0.057-0.047,0.123-0.095,0.18-0.132
						c-0.511-0.086-0.605-0.768-1.116-0.918c-0.142-0.038-0.284-0.047-0.417,0.028c-0.208,0.122-0.18,0.198-0.417-0.019
						c-0.255-0.236-0.52-0.445-0.898-0.322C33.689,40.659,33.5,41,33.5,41.349C33.528,41.585,33.812,41.585,33.812,41.397
						L33.812,41.397z"/>
				</g>
			</g>
			<g>
				<g>
					<path d="M39.242,44.576c0.209,0.483,0.634,0.965,1.222,0.852c0.246-0.047,0.407-0.208,0.539-0.416
						c0.161-0.274,0.132-0.473,0.643-0.332c0.171,0.048,0.322,0.143,0.493,0.171c0.245,0.048,0.614,0.104,0.832-0.048
						c0.065-0.047,0.095-0.113,0.142-0.17c0-0.18,0.113-0.246,0.341-0.198c0.076,0.057,0.151,0.113,0.227,0.17
						c0.483,0.265,0.767-0.104,0.899-0.549c-0.076,0.019-0.161,0.038-0.236,0.066c0.378,0.313,0.927,0.085,0.983-0.407
						c0.019-0.18-0.265-0.18-0.284,0c-0.132,0.284-0.302,0.351-0.491,0.209c-0.086-0.066-0.208-0.048-0.237,0.065
						c-0.066,0.218-0.198,0.426-0.482,0.379c-0.094-0.019-0.236-0.18-0.33-0.227c-0.133-0.057-0.294-0.086-0.427-0.02
						c-0.122,0.066-0.122,0.143-0.179,0.246c-0.152,0.265-0.219,0.265-0.53,0.236c-0.236-0.028-0.417-0.104-0.634-0.198
						c-0.294-0.124-0.54-0.171-0.758,0.104c-0.217,0.266-0.217,0.644-0.671,0.663c-0.416,0.019-0.663-0.397-0.804-0.729
						C39.422,44.264,39.177,44.415,39.242,44.576L39.242,44.576z"/>
				</g>
			</g>
			<g>
				<g>
					<path d="M39.101,44.509c-0.028,0.379-0.236,0.521-0.644,0.417c-0.142-0.114-0.227-0.247-0.236-0.417
						c-0.029-0.047-0.039-0.113-0.076-0.151c-0.104-0.094-0.236-0.094-0.36-0.047c-0.123,0.047-0.16,0.171-0.264,0.228
						c-0.407,0.217-0.501-0.189-0.615-0.397c-0.114-0.199-0.18-0.322-0.417-0.322c-0.35-0.01-0.653,0.331-1.012,0.255
						c-0.435-0.085-0.284-0.426-0.492-0.671c-0.095-0.113-0.208-0.151-0.35-0.132c-0.104,0.019-0.17,0.084-0.265,0.132
						c-0.369,0.198-0.946,0.265-1.021-0.341c-0.019-0.18-0.303-0.18-0.284,0c0.048,0.341,0.227,0.634,0.568,0.738
						c0.151,0.048,0.322,0.048,0.473,0.019c0.208-0.038,0.426-0.265,0.596-0.18c0.18,0.085,0.161,0.35,0.293,0.502
						c0.076,0.084,0.18,0.15,0.293,0.18c0.17,0.057,0.359,0.037,0.521-0.01c0.123-0.029,0.227-0.095,0.35-0.123
						c0.095-0.057,0.189-0.076,0.293-0.038c0.123-0.028,0.189,0.01,0.208,0.123c0.217,0.256,0.274,0.606,0.7,0.606
						c0.17,0,0.227-0.096,0.359-0.152c0.123-0.048,0.142-0.123,0.265,0.01c0.039,0.038,0.057,0.151,0.095,0.198
						c0.436,0.625,1.287,0.237,1.315-0.444C39.385,44.33,39.101,44.33,39.101,44.509L39.101,44.509z"/>
				</g>
			</g>
			<g>
				<g>
					<path d="M33.425,42.022c0.028,0.075,0.047,0.16,0.076,0.236c0.019,0.075,0.094,0.122,0.17,0.095
						c0.076-0.02,0.123-0.104,0.095-0.171c-0.028-0.076-0.047-0.16-0.076-0.236c-0.019-0.076-0.095-0.124-0.17-0.095
						C33.453,41.87,33.396,41.956,33.425,42.022L33.425,42.022z"/>
				</g>
			</g>
			<g>
				<g>
					<path d="M33.415,42.428c0.161,0.009,0.35-0.104,0.293-0.284c-0.066-0.227-0.18-0.454-0.265-0.681
						c-0.066-0.171-0.34-0.095-0.274,0.075c0.095,0.237,0.18,0.474,0.274,0.71c0.01-0.048,0.029-0.095,0.038-0.143
						c-0.009,0.029-0.038,0.048-0.066,0.038C33.235,42.135,33.235,42.419,33.415,42.428L33.415,42.428z"/>
				</g>
			</g>
			<g>
				<g>
					<path d="M33.434,40.886c-0.057-0.104-0.104-0.208-0.161-0.312c-0.085-0.161-0.331-0.02-0.246,0.141
						c0.057,0.104,0.104,0.209,0.161,0.313C33.273,41.188,33.519,41.047,33.434,40.886L33.434,40.886z"/>
				</g>
			</g>
			<g>
				<g>
					<path d="M14.257,54.253c0.208-2.062,2.564-4.389,4.759-3.765c1.05,0.303,1.901,1.211,2.649,1.958
						c0.833,0.833,1.589,1.722,2.29,2.659c0.104,0.142,0.35,0,0.246-0.143c-0.813-1.097-1.712-2.129-2.696-3.074
						c-0.814-0.776-1.731-1.665-2.914-1.77c-2.243-0.208-4.409,2.006-4.617,4.134C13.954,54.434,14.238,54.434,14.257,54.253
						L14.257,54.253z"/>
				</g>
			</g>
			<g>
				<g>
					<path d="M13.907,54.708c1.438,0.964,3.188,1.145,4.882,1.201c1.911,0.066,3.869,0.085,5.686-0.605
						c0.17-0.066,0.094-0.341-0.076-0.274c-1.741,0.672-3.614,0.653-5.449,0.605c-1.693-0.047-3.453-0.199-4.9-1.174
						C13.897,54.358,13.756,54.604,13.907,54.708L13.907,54.708z"/>
				</g>
			</g>
			<g>
				<g>
					<path d="M24.096,55.267c3.236-1.959,6.15-4.399,8.638-7.248c0.123-0.132-0.076-0.341-0.199-0.198
						c-2.479,2.829-5.373,5.251-8.581,7.199C23.793,55.116,23.935,55.361,24.096,55.267L24.096,55.267z"/>
				</g>
			</g>
			<g>
				<g>
					<path d="M20.615,51.34c1.722-0.993,3.321-2.177,4.844-3.444c0.756-0.634,1.495-1.276,2.213-1.948
						c0.644-0.605,1.334-1.192,1.675-2.034c0.066-0.17-0.208-0.246-0.274-0.076c-0.35,0.871-1.164,1.505-1.845,2.129
						c-0.681,0.634-1.391,1.249-2.1,1.836c-1.467,1.211-3,2.346-4.655,3.292C20.312,51.179,20.454,51.425,20.615,51.34L20.615,51.34
						z"/>
				</g>
			</g>
			<g>
				<g>
					<path d="M44.72,49.448c2.829,2.696,5.743,5.44,9.385,6.982c0.171,0.066,0.313-0.17,0.142-0.246
						c-3.623-1.533-6.518-4.258-9.328-6.935C44.787,49.126,44.588,49.325,44.72,49.448L44.72,49.448z"/>
				</g>
			</g>
			<g>
				<g>
					<path d="M48.514,45.427c2.733,2.678,5.941,4.947,9.376,6.632c0.16,0.076,0.312-0.16,0.141-0.246
						c-3.414-1.675-6.603-3.917-9.318-6.585C48.581,45.096,48.382,45.304,48.514,45.427L48.514,45.427z"/>
				</g>
			</g>
			<g>
				<g>
					<path d="M54.351,56.667c2.678,0.133,5.346,0.037,8.004-0.283c0.18-0.02,0.18-0.304,0-0.284
						c-2.658,0.321-5.336,0.416-8.004,0.284C54.172,56.374,54.172,56.657,54.351,56.667L54.351,56.667z"/>
				</g>
			</g>
			<g>
				<g>
					<path d="M53.927,56.042c0.992-1.911,2.658-3.435,4.663-4.229c1.146-0.454,2.385-0.737,3.321,0.266
						c0.436,0.473,0.681,1.068,0.861,1.674c0.132,0.454,0.69,2.271-0.36,2.053c-0.18-0.037-0.255,0.237-0.075,0.274
						c0.492,0.104,0.898-0.246,0.983-0.728c0.123-0.663-0.198-1.504-0.425-2.12c-0.455-1.229-1.447-2.317-2.867-2.128
						c-2.688,0.359-5.127,2.46-6.358,4.797C53.594,56.061,53.841,56.203,53.927,56.042L53.927,56.042z"/>
				</g>
			</g>
			<g>
				<g>
					<path d="M50.151,17.461c1.116-0.908,2.167-1.873,3.159-2.914c0.048-0.057,0.058-0.151,0-0.199
						c-0.35-0.322-0.548-0.709-0.614-1.182c-0.037,0.047-0.066,0.094-0.104,0.132c1.921-0.529,3.69-1.551,5.109-2.952
						c0.7-0.69,1.258-1.466,1.778-2.289c0.955-1.504,2.289,1.599,2.517,2.336c0.057,0.17,0.331,0.104,0.274-0.076
						c-0.188-0.596-0.445-1.173-0.766-1.712c-0.266-0.435-0.577-0.917-1.041-1.154c-0.388-0.199-0.767-0.142-1.051,0.199
						c-0.341,0.407-0.568,0.917-0.889,1.343c-1.495,1.958-3.623,3.387-5.998,4.04c-0.058,0.019-0.114,0.076-0.104,0.133
						c0.066,0.548,0.294,1.002,0.69,1.381c0-0.066,0-0.132,0-0.199c-0.994,1.041-2.043,2.006-3.159,2.914
						C49.81,17.376,50.01,17.575,50.151,17.461L50.151,17.461z"/>
				</g>
			</g>
			<g>
				<g>
					<path d="M14.588,9.912c-0.284,0.35-0.218,0.757,0.047,1.107c0.417,0.549,1.022,0.994,1.523,1.466
						c1.164,1.107,2.185,2.242,2.346,3.917c0.009,0.104,0.113,0.18,0.217,0.123c0.397-0.208,0.804-0.417,1.202-0.625
						c0.161-0.084,0.019-0.331-0.142-0.245c-0.397,0.208-0.804,0.416-1.202,0.624c0.076,0.038,0.142,0.085,0.218,0.123
						c-0.114-1.183-0.615-2.186-1.391-3.065c-0.407-0.454-0.861-0.88-1.296-1.296c-0.369-0.35-1.778-1.325-1.305-1.92
						C14.9,9.968,14.701,9.77,14.588,9.912L14.588,9.912z"/>
				</g>
			</g>
			<g>
				<g>
					<path d="M19.99,15.91c2.072,1.94,4.125,3.907,6.14,5.913c0.133,0.132,0.332-0.076,0.199-0.199
						c-2.015-2.006-4.059-3.973-6.14-5.913C20.056,15.579,19.858,15.787,19.99,15.91L19.99,15.91z"/>
				</g>
			</g>
			<g>
				<g>
					<path d="M14.522,10.366c0.303-1.249,1.362-2.252,2.648-2.431c0.454-0.066,1.012-0.047,1.211,0.454
						c0.104,0.275,0.085,0.596,0.133,0.89c0.076,0.53,0.274,1.041,0.567,1.485c0.605,0.937,1.448,1.381,2.47,1.722
						c0.426,0.142,0.624,0.303,0.671,0.776c0.028,0.274,0.009,0.501,0.123,0.766c0.217,0.521,0.653,0.928,1.069,1.296
						c1.343,1.23,2.687,2.46,4.04,3.68c0.132,0.123,0.341-0.076,0.199-0.199c-1.325-1.211-2.649-2.413-3.964-3.623
						c-0.605-0.549-1.154-1.069-1.173-1.93c-0.01-0.521-0.218-0.795-0.71-0.994c-0.671-0.255-1.287-0.416-1.835-0.908
						c-0.53-0.473-0.927-1.116-1.098-1.807c-0.132-0.52-0.028-1.201-0.426-1.617c-0.359-0.37-0.975-0.341-1.447-0.256
						c-1.334,0.246-2.422,1.306-2.734,2.611C14.21,10.46,14.474,10.536,14.522,10.366L14.522,10.366z"/>
				</g>
			</g>
			<g>
				<g>
					<path d="M14.2,10.356c-0.775,1.125-1.097,2.507-1.258,3.841c-0.085,0.663-0.161,1.334-0.17,1.997
						c-0.01,0.539,0.028,1.135,0.359,1.58c0.7,0.956,2.005,0.549,2.677-0.189c0.937-1.022,1.438-2.526,1.637-3.87
						c0.028-0.18-0.246-0.255-0.274-0.076c-0.17,1.164-0.558,2.309-1.21,3.283c-0.36,0.54-0.852,1.05-1.533,1.126
						c-0.719,0.076-1.202-0.407-1.325-1.079c-0.095-0.492-0.038-1.003,0-1.495c0.047-0.596,0.104-1.202,0.198-1.788
						c0.18-1.116,0.501-2.242,1.145-3.188C14.551,10.347,14.304,10.205,14.2,10.356L14.2,10.356z"/>
				</g>
			</g>
			<g>
				<g>
					<path d="M14.484,10.952c-0.492,0.975-0.729,2.025-0.823,3.103c-0.047,0.568-0.095,1.173-0.076,1.741
						c0.009,0.34,0.17,0.757,0.445,0.974c0.558,0.445,1.249,0.029,1.608-0.463c0.682-0.946,1.107-2.091,1.646-3.113
						c0.085-0.161-0.161-0.303-0.246-0.142c-0.378,0.729-0.709,1.466-1.097,2.195c-0.284,0.53-1.315,2.28-1.921,1.031
						c-0.18-0.379-0.123-0.814-0.113-1.23c0.01-0.417,0.028-0.823,0.076-1.239c0.104-0.946,0.331-1.864,0.757-2.715
						C14.806,10.934,14.56,10.792,14.484,10.952L14.484,10.952z"/>
				</g>
			</g>
			<g>
				<g>
					<path d="M61.939,11.813c0.624,0.965,0.804,2.1,0.898,3.226c0.095,1.116,0.048,2.403-0.795,3.245
						c-0.255,0.255-0.501,0.303-0.775,0.028c-0.189-0.199-0.36-0.425-0.501-0.662c-0.246-0.436-0.417-0.909-0.493-1.4
						c-0.197-1.221,0.161-2.46,0.729-3.538c0.085-0.161-0.161-0.303-0.246-0.142c-0.624,1.192-0.994,2.554-0.729,3.897
						c0.123,0.625,0.389,1.24,0.775,1.741c0.218,0.284,0.549,0.738,0.965,0.625c0.492-0.142,0.88-0.794,1.061-1.23
						c0.255-0.596,0.34-1.239,0.331-1.882c-0.02-1.372-0.218-2.886-0.966-4.059C62.091,11.52,61.844,11.662,61.939,11.813
						L61.939,11.813z"/>
				</g>
			</g>
			<g>
				<g>
					<path d="M62.26,11.804c0.322,1.192,0.719,2.403,0.738,3.643c0.01,0.605-0.066,1.202-0.218,1.788
						c-0.142,0.539-0.331,1.296-0.832,1.627c-0.625,0.416-1.259-0.435-1.552-0.89c-0.274-0.436-0.464-0.927-0.549-1.429
						c-0.218-1.239,0.246-2.289,0.852-3.339c0.095-0.161-0.151-0.303-0.246-0.142c-0.672,1.173-1.145,2.337-0.852,3.699
						c0.133,0.615,0.407,1.211,0.795,1.712c0.303,0.388,0.737,0.861,1.276,0.795c1.136-0.132,1.448-2.025,1.553-2.895
						c0.188-1.599-0.284-3.113-0.691-4.636C62.488,11.548,62.214,11.624,62.26,11.804L62.26,11.804z"/>
				</g>
			</g>
			<g>
				<g>
					<path d="M33.207,40.697c0.18,0.208,0.321,0.454,0.426,0.709c0.066,0.171,0.341,0.096,0.274-0.075
						c-0.123-0.312-0.284-0.587-0.501-0.832C33.292,40.356,33.084,40.555,33.207,40.697L33.207,40.697z"/>
				</g>
			</g>
			<g>
				<g>
					<path d="M14.257,54.708c0-0.199,0-0.397,0-0.587c0-0.18-0.284-0.18-0.284,0c0,0.199,0,0.396,0,0.587
						C13.973,54.888,14.257,54.888,14.257,54.708L14.257,54.708z"/>
				</g>
			</g>
			<g>
				<g>
					<path d="M54.682,56.392c-0.406-0.18-0.822-0.369-1.229-0.549c-0.16-0.075-0.313,0.17-0.143,0.246
						c0.407,0.18,0.824,0.369,1.23,0.549C54.701,56.704,54.853,56.467,54.682,56.392L54.682,56.392z"/>
				</g>
			</g>
			<g>
				<g>
					<path d="M52.006,20.555c0.095-0.114,0.198-0.237,0.293-0.35c0.048-0.057,0.057-0.142,0-0.199c-0.048-0.047-0.151-0.057-0.198,0
						c-0.095,0.114-0.199,0.236-0.294,0.35c-0.047,0.057-0.057,0.142,0,0.199C51.854,20.602,51.958,20.612,52.006,20.555
						L52.006,20.555z"/>
				</g>
			</g>
			<g>
				<g>
					<path d="M50.037,17.187c-0.094,0.038-0.198,0.076-0.293,0.113c-0.075,0.029-0.122,0.095-0.094,0.17
						c0.019,0.066,0.104,0.132,0.169,0.095c0.096-0.038,0.199-0.076,0.294-0.113c0.076-0.028,0.123-0.095,0.095-0.17
						C50.198,17.225,50.113,17.159,50.037,17.187L50.037,17.187z"/>
				</g>
			</g>
			<g>
				<g>
					<path d="M28.609,26.345c0.463,1.646,1.135,3.302,0.548,5.015c-0.019,0.047,0.057,0.066,0.066,0.019
						c0.586-1.722-0.085-3.387-0.549-5.052C28.666,26.279,28.59,26.298,28.609,26.345L28.609,26.345z"/>
				</g>
			</g>
			<g>
				<g>
					<path d="M26.093,24.945c-0.208-0.397-0.322-0.898,0.038-1.249c0.029-0.028-0.019-0.085-0.047-0.047
						c-0.378,0.369-0.265,0.908-0.047,1.334C26.054,25.021,26.111,24.983,26.093,24.945L26.093,24.945z"/>
				</g>
			</g>
			<g>
				<g>
					<path d="M29.271,31.321c0-0.019,0-0.038,0-0.056c0-0.047-0.076-0.047-0.076,0c0,0.019,0,0.038,0,0.056
						C29.196,31.369,29.271,31.369,29.271,31.321L29.271,31.321z"/>
				</g>
			</g>
			<g>
				<g>
					<path d="M29.082,31.539c-0.057,0.142-0.123,0.274-0.18,0.416c-0.019,0.038,0.047,0.076,0.057,0.038
						c0.057-0.142,0.123-0.275,0.18-0.417C29.167,31.539,29.101,31.501,29.082,31.539L29.082,31.539z"/>
				</g>
			</g>
			<g>
				<g>
					<path d="M28.703,32.485c0.047,0,0.047-0.075,0-0.075C28.656,32.41,28.656,32.485,28.703,32.485L28.703,32.485z"/>
				</g>
			</g>
			<g>
				<g>
					<path d="M50.671,22.986c-0.69,0.861-0.756,2.034-0.898,3.084c-0.198,1.485-0.351,2.98-0.463,4.485c0,0.047,0.066,0.047,0.075,0
						c0.095-1.315,0.228-2.63,0.388-3.936c0.151-1.173,0.181-2.621,0.946-3.585C50.747,23.005,50.7,22.949,50.671,22.986
						L50.671,22.986z"/>
				</g>
			</g>
			<g>
				<g>
					<path d="M49.356,30.725c-0.01,0.255,0.086,0.454,0.208,0.682c0.171,0.303,0.436,0.823,0.01,1.06
						c-0.038,0.019,0,0.085,0.038,0.056c0.7-0.387-0.209-1.324-0.18-1.797C49.432,30.678,49.366,30.678,49.356,30.725L49.356,30.725
						z"/>
				</g>
			</g>
			<g>
				<g>
					<path d="M26.878,34.859c0.236-0.199,0.473-0.407,0.719-0.605c0.217-0.189,0.492-0.369,0.681-0.586
						c0.227-0.265,0.114-0.492-0.104-0.738c-0.028-0.038-0.085,0.019-0.047,0.047c0.454,0.511-0.123,0.833-0.473,1.126
						c-0.274,0.236-0.549,0.463-0.823,0.7C26.792,34.841,26.84,34.888,26.878,34.859L26.878,34.859z"/>
				</g>
			</g>
			<g>
				<g>
					<path d="M51.721,34.737c-0.577-0.151-1.287-0.36-1.476-1.003c-0.123-0.444-0.095-0.794-0.369-1.191
						c-0.028-0.038-0.085,0-0.058,0.038c0.237,0.34,0.257,0.625,0.332,1.022c0.038,0.189,0.075,0.34,0.188,0.492
						c0.313,0.445,0.861,0.596,1.362,0.719C51.75,34.822,51.768,34.746,51.721,34.737L51.721,34.737z"/>
				</g>
			</g>
			<g>
				<g>
					<path d="M27.265,38.398c0.322,0.397,0.748,0.682,1.249,0.795c0.359,0.085,1.022,0.15,1.324-0.113
						c0.114-0.104,0.114-0.18,0.142-0.322c0.085-0.454,0.322-0.757,0.671-1.068c0.303-0.266,0.653-0.436,1.022-0.133
						c0.151,0.123,0.255,0.331,0.312,0.52c0.114,0.352,0.104,0.738,0.18,1.098c0.009,0.048,0.076,0.029,0.066-0.019
						c-0.123-0.567-0.047-1.362-0.605-1.722c-0.34-0.219-0.69-0.086-0.975,0.16c-0.208,0.18-0.435,0.398-0.577,0.635
						c-0.18,0.303-0.104,0.69-0.482,0.879c-0.322,0.161-0.861,0.076-1.183-0.027c-0.435-0.133-0.804-0.389-1.087-0.748
						C27.284,38.313,27.237,38.37,27.265,38.398L27.265,38.398z"/>
				</g>
			</g>
			<g>
				<g>
					<path d="M50.321,39.467c-0.879,0.71-1.807-0.436-2.261-1.116c-0.208-0.313-0.397-0.729-0.852-0.644
						c-1.079,0.208-0.927,1.825-0.822,2.583c0.009,0.047,0.075,0.047,0.075,0c-0.075-0.577-0.161-1.221,0.057-1.779
						c0.198-0.511,0.757-1.04,1.268-0.473c0.17,0.198,0.284,0.443,0.445,0.652c0.501,0.652,1.324,1.476,2.146,0.823
						C50.406,39.486,50.349,39.439,50.321,39.467L50.321,39.467z"/>
				</g>
			</g>
			<g>
				<g>
					<path d="M39.896,40.952c0.019-0.396,0.047-0.785,0.065-1.183c0-0.047-0.065-0.047-0.075,0c-0.02,0.397-0.048,0.786-0.067,1.183
						C39.819,40.99,39.886,40.99,39.896,40.952L39.896,40.952z"/>
				</g>
			</g>
			<g>
				<g>
					<path d="M42.082,40.64c-0.134-0.474-0.275-0.946-0.408-1.419c-0.009-0.048-0.085-0.028-0.065,0.019
						c0.133,0.474,0.273,0.946,0.406,1.419C42.024,40.707,42.1,40.687,42.082,40.64L42.082,40.64z"/>
				</g>
			</g>
			<g>
				<g>
					<path d="M43.169,39.921c0.048,0,0.048-0.076,0-0.076C43.122,39.855,43.122,39.921,43.169,39.921L43.169,39.921z"/>
				</g>
			</g>
			<g>
				<g>
					<path d="M36.301,40.366c0.038-0.199,0.085-0.397,0.123-0.586c0.009-0.048-0.057-0.066-0.066-0.02
						c-0.038,0.198-0.085,0.397-0.123,0.587C36.215,40.394,36.291,40.414,36.301,40.366L36.301,40.366z"/>
				</g>
			</g>
			<g>
				<g>
					<path d="M31.929,38.672c0.038-0.321-0.359-0.303-0.492-0.066c-0.132,0.256-0.094,0.634-0.123,0.908
						c-0.038,0.463-0.085,0.928-0.18,1.381c-0.095,0.417-0.227,0.833-0.435,1.202c-0.048,0.075-0.085,0.189-0.18,0.218
						c-0.123,0.028-0.094-0.114-0.113-0.236c-0.047-0.266-0.085-0.54-0.132-0.805c-0.076-0.473-0.152-0.956-0.237-1.429
						c-0.057-0.331-0.066-0.682-0.312-0.927c-0.029-0.028-0.085,0.019-0.047,0.048c0.236,0.227,0.246,0.586,0.293,0.889
						c0.047,0.303,0.095,0.596,0.142,0.898c0.095,0.596,0.199,1.192,0.293,1.788c0,0.028,0.047,0.038,0.057,0.019
						c0.397-0.51,0.615-1.088,0.748-1.712c0.057-0.293,0.095-0.587,0.133-0.89c0.019-0.198,0.038-0.397,0.056-0.586
						c0.01-0.095,0.019-0.199,0.028-0.293c-0.019-0.237,0.123-0.369,0.436-0.397C31.854,38.72,31.929,38.72,31.929,38.672
						L31.929,38.672z"/>
				</g>
			</g>
			<g>
				<g>
					<path d="M46.339,38.644c0.652-0.359,0.794,1.173,0.852,1.438c0.094,0.454,0.207,0.908,0.321,1.363
						c0.065,0.245,0.17,1.04,0.511,1.088c0.359,0.047,0.625-0.776,0.7-1.031c0.208-0.729,0.086-1.485-0.095-2.205
						c-0.009-0.047-0.076-0.028-0.066,0.02c0.208,0.804,0.322,1.655,0,2.44c-0.057,0.143-0.217,0.559-0.369,0.615
						c-0.113-0.038-0.218-0.075-0.331-0.113c-0.066-0.123-0.113-0.246-0.151-0.379c-0.104-0.321-0.17-0.662-0.255-0.993
						c-0.086-0.359-0.171-0.729-0.246-1.089c-0.065-0.312-0.076-0.69-0.236-0.974c-0.143-0.256-0.397-0.378-0.663-0.228
						C46.262,38.606,46.301,38.672,46.339,38.644L46.339,38.644z"/>
				</g>
			</g>
			<g>
				<g>
					<path d="M36.462,45.059c0.303,0.273,0.652,0.491,1.031,0.634c0.047,0.019,0.057-0.058,0.019-0.067
						c-0.369-0.142-0.709-0.35-1.003-0.614C36.48,44.983,36.424,45.03,36.462,45.059L36.462,45.059z"/>
				</g>
			</g>
			<g>
				<g>
					<path d="M39.092,46.004c0.047,0,0.047-0.075,0-0.075S39.045,46.004,39.092,46.004L39.092,46.004z"/>
				</g>
			</g>
			<g>
				<g>
					<path d="M33.879,40.678c0.113-0.246,0.189-0.512,0.227-0.785c0.01-0.048-0.066-0.066-0.066-0.02
						c-0.038,0.265-0.114,0.521-0.217,0.767C33.802,40.678,33.86,40.715,33.879,40.678L33.879,40.678z"/>
				</g>
			</g>
			<g>
				<g>
					<path d="M44.494,41.236c-0.236-0.614-0.407-1.248-0.521-1.893c-0.011-0.047-0.076-0.027-0.066,0.021
						c0.104,0.652,0.284,1.276,0.521,1.892C44.437,41.302,44.503,41.284,44.494,41.236L44.494,41.236z"/>
				</g>
			</g>
			<g>
				<g>
					<path d="M30.151,43.923c0.463,1.286,1.117,2.497,1.939,3.595c0.028,0.038,0.085,0,0.057-0.038
						c-0.823-1.088-1.476-2.289-1.939-3.575C30.208,43.867,30.142,43.884,30.151,43.923L30.151,43.923z"/>
				</g>
			</g>
			<g>
				<g>
					<path d="M48.581,43.119c-0.72,1.41-1.42,2.829-2.091,4.267c-0.02,0.038,0.037,0.076,0.057,0.038
						c0.672-1.438,1.371-2.857,2.091-4.267C48.666,43.119,48.599,43.081,48.581,43.119L48.581,43.119z"/>
				</g>
			</g>
			<g>
				<g>
					<path d="M30.719,30.063c0.36,0.444,1.003,0.548,1.419,0.113c0.208-0.208,0.265-0.482,0.274-0.775
						c0-0.255-0.029-0.501,0.303-0.53c0.161-0.009,0.18,0,0.265,0.179c0.009,0.02,0.038,0.02,0.047,0.01
						c0.397-0.228,0.974,0.019,1.391,0.113c0.378,0.085,0.738,0.123,1.003,0.435c0.227,0.274,0.359,0.625,0.776,0.587
						c0.047,0,0.047-0.076,0-0.076c-0.511,0.047-0.568-0.511-0.89-0.747c-0.198-0.151-0.454-0.18-0.69-0.237
						c-0.35-0.075-0.709-0.189-1.069-0.236c-0.246-0.028-0.501,0.104-0.625-0.151c-0.009-0.019-0.028-0.019-0.047-0.01
						c-0.218,0.114-0.482-0.038-0.558,0.246c-0.085,0.322,0.113,0.653-0.104,0.975c-0.36,0.53-1.05,0.53-1.438,0.038
						C30.738,29.978,30.69,30.035,30.719,30.063L30.719,30.063z"/>
				</g>
			</g>
			<g>
				<g>
					<path d="M32.63,34.595c0.085-0.104,0.18-0.199,0.293-0.265c0.047-0.028,0.132-0.095,0.199-0.084
						c0.218,0.028,0.104,0.161,0.057,0.246c-0.142,0.255-0.293,0.501-0.445,0.748c-0.019,0.038,0.038,0.076,0.057,0.038
						c0.132-0.227,0.265-0.454,0.407-0.681c0.057-0.095,0.189-0.255,0.113-0.378c-0.161-0.236-0.625,0.189-0.728,0.322
						C32.545,34.585,32.601,34.632,32.63,34.595L32.63,34.595z"/>
				</g>
			</g>
			<g>
				<g>
					<path d="M44.617,35.021c-0.123-0.189-0.18-0.397-0.171-0.625c-0.009,0.01-0.028,0.028-0.038,0.038
						c0.161-0.019,0.303,0.095,0.322,0.256c0,0.047,0.075,0.047,0.075,0c-0.019-0.199-0.188-0.35-0.388-0.332
						c-0.019,0-0.037,0.019-0.037,0.038c-0.01,0.236,0.057,0.463,0.188,0.662C44.588,35.096,44.644,35.058,44.617,35.021
						L44.617,35.021z"/>
				</g>
			</g>
			<g>
				<g>
					<path d="M36.509,29.694c0.407-0.236,0.738-0.548,1.05-0.908c0.132-0.152,0.255-0.313,0.369-0.464
						c0.114-0.142,0.274-0.426,0.454-0.501c0.511-0.218,0.54,0.094,0.663,0.341c0.397,0.757,1.276,0.265,1.873,0.038
						c0.037-0.019,0.028-0.085-0.02-0.066c-0.577,0.218-1.372,0.672-1.797-0.009c-0.143-0.227-0.199-0.473-0.521-0.445
						c-0.388,0.028-0.644,0.501-0.852,0.776c-0.359,0.464-0.748,0.88-1.268,1.183C36.433,29.656,36.47,29.713,36.509,29.694
						L36.509,29.694z"/>
				</g>
			</g>
			<g>
				<g>
					<path d="M42.26,29.278c0.237-0.312,0.521-0.833,0.842-1.069c0.577-0.417,1.117,0.066,1.41,0.548
						c0.331,0.53,0.605,0.984,1.116,1.353c0.038,0.028,0.076-0.038,0.038-0.057c-0.521-0.378-0.795-0.871-1.135-1.391
						c-0.172-0.265-0.369-0.501-0.672-0.615c-0.805-0.321-1.269,0.681-1.665,1.201C42.166,29.278,42.232,29.315,42.26,29.278
						L42.26,29.278z"/>
				</g>
			</g>
			<g>
				<g>
					<path d="M45.355,30.46c-0.181,0-0.351,0-0.53,0c-0.048,0-0.048,0.076,0,0.076c0.18,0,0.35,0,0.53,0
						C45.402,30.536,45.402,30.46,45.355,30.46L45.355,30.46z"/>
				</g>
			</g>
			<g>
				<g>
					<path d="M45.052,28.984c0.151-0.227,0.304-0.454,0.53-0.615c0.359-0.256,0.719-0.161,1.078,0.057
						c0.132,0.075,0.246,0.132,0.397,0.151c0.265,0.028,0.86-0.17,0.89,0.313c0,0.047,0.075,0.047,0.075,0
						c-0.009-0.17-0.085-0.275-0.246-0.351c-0.179-0.085-0.359-0.038-0.549-0.038c-0.359,0-0.511-0.17-0.813-0.312
						c-0.624-0.293-1.116,0.312-1.429,0.766C44.967,28.994,45.023,29.022,45.052,28.984L45.052,28.984z"/>
				</g>
			</g>
			<g>
				<g>
					<path d="M27.038,19.789c-0.34,1.514-0.189,3.056,0.435,4.475c0.019,0.038,0.076,0.009,0.057-0.038
						c-0.625-1.391-0.766-2.933-0.426-4.418C27.114,19.76,27.048,19.741,27.038,19.789L27.038,19.789z"/>
				</g>
			</g>
			<g>
				<g>
					<path d="M27.758,25.04c0.047,0,0.047-0.076,0-0.076C27.71,24.973,27.71,25.04,27.758,25.04L27.758,25.04z"/>
				</g>
			</g>
			<g>
				<g>
					<path d="M27.729,25.077c0.056,0.095,0.113,0.199,0.17,0.293c0.019,0.038,0.084,0,0.057-0.038
						c-0.057-0.094-0.114-0.199-0.171-0.293C27.767,25.001,27.71,25.04,27.729,25.077L27.729,25.077z"/>
				</g>
			</g>
			<g>
				<g>
					<path d="M28.344,26.099c0.047,0,0.047-0.076,0-0.076C28.297,26.033,28.297,26.099,28.344,26.099L28.344,26.099z"/>
				</g>
			</g>
			<g>
				<g>
					<path d="M51.097,19.817c0.189,1.287-0.02,2.574-0.605,3.737c-0.019,0.038,0.038,0.076,0.057,0.038
						c0.596-1.182,0.813-2.479,0.615-3.793C51.164,19.75,51.097,19.77,51.097,19.817L51.097,19.817z"/>
				</g>
			</g>
			<g>
				<g>
					<path d="M32.705,24.803c-0.076,0.019-0.151,0.028-0.227,0.047c0.009,0.019,0.009,0.047,0.019,0.066
						c0.511-0.189,1.031-0.284,1.57-0.303c0.048,0,0.048-0.076,0-0.076c-0.548,0.009-1.079,0.113-1.589,0.303
						c-0.038,0.019-0.029,0.076,0.019,0.066c0.076-0.019,0.151-0.028,0.227-0.047C32.772,24.859,32.753,24.793,32.705,24.803
						L32.705,24.803z"/>
				</g>
			</g>
			<g>
				<g>
					<path d="M35.421,24.973c0.123,0.057,0.236,0.114,0.359,0.18c0.038,0.019,0.076-0.038,0.038-0.057
						c-0.123-0.057-0.237-0.113-0.359-0.18C35.411,24.888,35.373,24.955,35.421,24.973L35.421,24.973z"/>
				</g>
			</g>
			<g>
				<g>
					<path d="M45.535,25.03c0.737-0.028,1.418,0.227,1.948,0.748c0.028,0.028,0.085-0.019,0.047-0.047
						c-0.539-0.53-1.239-0.804-1.995-0.767C45.487,24.955,45.487,25.03,45.535,25.03L45.535,25.03z"/>
				</g>
			</g>
			<g>
				<g>
					<path d="M39.829,46.402c0.908,0.321,1.798-0.057,2.621-0.436c0.038-0.019,0.009-0.085-0.038-0.057
						c-0.804,0.378-1.684,0.748-2.573,0.436C39.81,46.317,39.792,46.392,39.829,46.402L39.829,46.402z"/>
				</g>
			</g>
			<g>
				<g>
					<path d="M36.849,49.797c0.038,0.228,0.189,0.408,0.397,0.493c0.161,0.075,0.473,0.123,0.625-0.029
						c0.123-0.123-0.066-0.435-0.161-0.539c-0.179-0.218-0.435-0.34-0.719-0.331c-0.047,0-0.047,0.076,0,0.076
						c0.227-0.01,0.436,0.076,0.596,0.227c0.104,0.095,0.35,0.426,0.189,0.549c-0.142,0.104-0.397,0.048-0.53-0.028
						c-0.17-0.085-0.293-0.237-0.321-0.435C36.906,49.732,36.84,49.75,36.849,49.797L36.849,49.797z"/>
				</g>
			</g>
			<g>
				<g>
					<path d="M29.063,17.537c-0.321,0.322-0.69,0.682-0.728,1.164c-0.028,0.36,0.132,0.729,0.492,0.852
						c0.53,0.18,1.135-0.255,1.637-0.369c0.776-0.161,1.514,0.151,2.271,0.019c0.625-0.114,1.202-0.539,1.75-0.842
						c0.634-0.36,1.306-0.691,1.902-1.107c0.7-0.474,1.353-1.429,0.69-2.214c-0.028-0.038-0.075,0.019-0.047,0.047
						c0.861,1.021-0.455,1.996-1.249,2.45c-0.445,0.256-0.889,0.502-1.334,0.757c-0.463,0.265-0.937,0.586-1.438,0.756
						c-0.54,0.18-1.041,0.038-1.589-0.009c-0.407-0.028-0.813,0.009-1.211,0.124c-0.577,0.17-1.409,0.681-1.76-0.104
						c-0.246-0.559,0.312-1.135,0.671-1.486C29.148,17.556,29.101,17.509,29.063,17.537L29.063,17.537z"/>
				</g>
			</g>
			<g>
				<g>
					<path d="M36.641,14.727c-0.132-0.151-0.321-0.218-0.52-0.189c-0.048,0.009-0.028,0.076,0.019,0.066
						c0.17-0.019,0.341,0.038,0.455,0.17C36.622,14.813,36.679,14.765,36.641,14.727L36.641,14.727z"/>
				</g>
			</g>
			<g>
				<g>
					<path d="M40.624,16.137c-0.132,0.095-0.218,0.265-0.17,0.426c0.047,0.142,0.189,0.228,0.34,0.217
						c0.143-0.019,0.246-0.123,0.228-0.274c-0.019-0.142-0.15-0.265-0.303-0.227c-0.048,0.01-0.028,0.076,0.019,0.066
						c0.114-0.028,0.218,0.085,0.218,0.189c0,0.123-0.123,0.18-0.227,0.17c-0.274-0.038-0.246-0.378-0.058-0.51
						C40.7,16.175,40.662,16.118,40.624,16.137L40.624,16.137z"/>
				</g>
			</g>
			<g>
				<g>
					<path d="M43.217,17.632c0.019,0.019,0.037,0.038,0.057,0.057c0.028,0.028,0.085-0.019,0.047-0.047
						c-0.019-0.019-0.037-0.038-0.057-0.057C43.225,17.556,43.178,17.603,43.217,17.632L43.217,17.632z"/>
				</g>
			</g>
			<g>
				<g>
					<path d="M16.906,50.753c1.523-0.406,2.791,0.7,3.822,1.666c0.975,0.907,1.863,1.892,2.687,2.933
						c0.028,0.037,0.076-0.02,0.047-0.048c-0.956-1.22-2.024-2.365-3.188-3.396c-0.937-0.823-2.082-1.57-3.387-1.221
						C16.84,50.697,16.859,50.763,16.906,50.753L16.906,50.753z"/>
				</g>
			</g>
			<g>
				<g>
					<path d="M23.907,54.623c3.065-2.033,5.922-4.361,8.524-6.953c0.028-0.028-0.019-0.085-0.047-0.048
						c-2.602,2.593-5.449,4.92-8.505,6.944C23.841,54.585,23.869,54.651,23.907,54.623L23.907,54.623z"/>
				</g>
			</g>
			<g>
				<g>
					<path d="M26.234,47.111c2.082-0.273,4.182-0.132,6.207,0.417c0.047,0.01,0.066-0.057,0.019-0.066
						c-2.034-0.549-4.134-0.69-6.225-0.417C26.187,47.044,26.187,47.111,26.234,47.111L26.234,47.111z"/>
				</g>
			</g>
			<g>
				<g>
					<path d="M62.554,53.25c-0.397-1.759-2.64-1.646-3.937-1.106c-1.826,0.767-3.036,2.403-4.115,3.993
						c-0.028,0.037,0.038,0.075,0.058,0.037c0.927-1.381,1.938-2.781,3.405-3.633c1.297-0.757,4.059-1.333,4.522,0.719
						C62.497,53.317,62.563,53.298,62.554,53.25L62.554,53.25z"/>
				</g>
			</g>
			<g>
				<g>
					<path d="M45.165,48.833c2.801,2.507,5.781,4.806,8.932,6.859c0.038,0.027,0.075-0.039,0.038-0.058
						c-3.142-2.053-6.121-4.343-8.913-6.849C45.184,48.757,45.128,48.805,45.165,48.833L45.165,48.833z"/>
				</g>
			</g>
			<g>
				<g>
					<path d="M22.138,12.996c0.18,0.019,0.303-0.151,0.161-0.303c-0.293-0.321-0.946,0.322-1.164,0.501
						c-0.586,0.463-1.088,1.022-1.57,1.58c-0.397,0.454-0.823,0.899-1.003,1.495c-0.009,0.047,0.057,0.066,0.066,0.02
						c0.228-0.767,0.927-1.429,1.457-1.997c0.256-0.274,0.511-0.539,0.795-0.785c0.18-0.151,0.359-0.303,0.548-0.445
						c0.085-0.066,0.17-0.123,0.265-0.18c0.132-0.132,0.284-0.123,0.445,0.047C22.091,12.92,22.091,12.996,22.138,12.996
						L22.138,12.996z"/>
				</g>
			</g>
			<g>
				<g>
					<path d="M22.214,13.09c-0.378-0.501-1.306,0.577-1.562,0.814c-0.728,0.69-1.362,1.476-1.882,2.336
						c-0.028,0.038,0.038,0.076,0.057,0.038c0.378-0.624,0.814-1.221,1.315-1.76c0.217-0.236,1.684-1.816,2.005-1.391
						C22.176,13.157,22.242,13.128,22.214,13.09L22.214,13.09z"/>
				</g>
			</g>
			<g>
				<g>
					<path d="M22.459,14.216c0.047-0.085,0.047-0.161-0.047-0.218c-0.17-0.104-0.369,0.161-0.464,0.256
						c-0.577,0.567-1.079,1.21-1.504,1.901c-0.029,0.038,0.038,0.076,0.057,0.038c0.255-0.417,0.539-0.813,0.842-1.183
						c0.123-0.151,0.255-0.293,0.387-0.436c0.085-0.085,0.17-0.18,0.256-0.265c0.038-0.038,0.066-0.066,0.104-0.104
						c0.066-0.095,0.17-0.104,0.293-0.019C22.374,14.216,22.431,14.254,22.459,14.216L22.459,14.216z"/>
				</g>
			</g>
			<g>
				<g>
					<path d="M15.496,9.439c-0.17-0.303,0.189-0.625,0.482-0.464c0.274,0.151,0.312,0.511,0.151,0.757
						c-0.066,0.104-0.161,0.189-0.265,0.246c-0.161,0.095-0.416,0.095-0.501-0.104c-0.123-0.274,0.151-0.521,0.34-0.681
						c0.038-0.028-0.019-0.076-0.047-0.047c-0.227,0.189-0.625,0.643-0.247,0.908c0.313,0.227,0.738-0.132,0.852-0.417
						c0.132-0.322-0.048-0.766-0.435-0.785c-0.322-0.019-0.54,0.35-0.389,0.615C15.459,9.514,15.515,9.477,15.496,9.439
						L15.496,9.439z"/>
				</g>
			</g>
			<g>
				<g>
					<path d="M15.619,10.394c0.085,0.502,0.359,0.927,0.776,1.221c0.038,0.028,0.075-0.038,0.038-0.057
						c-0.397-0.284-0.662-0.7-0.747-1.182C15.676,10.337,15.61,10.356,15.619,10.394L15.619,10.394z"/>
				</g>
			</g>
			<g>
				<g>
					<path d="M17.038,11.804c0.104,0.123,0.199,0.246,0.303,0.369c0.029,0.038,0.076-0.019,0.047-0.047
						c-0.104-0.123-0.199-0.246-0.303-0.369C17.067,11.718,17.01,11.775,17.038,11.804L17.038,11.804z"/>
				</g>
			</g>
			<g>
				<g>
					<path d="M18.344,13.157c0.047,0,0.047-0.076,0-0.076C18.297,13.081,18.297,13.157,18.344,13.157L18.344,13.157z"/>
				</g>
			</g>
			<g>
				<g>
					<path d="M21.779,15.276c-0.104,0.123-0.199,0.246-0.303,0.369c-0.029,0.038,0.019,0.085,0.047,0.048
						c0.104-0.124,0.199-0.246,0.303-0.369C21.854,15.285,21.806,15.238,21.779,15.276L21.779,15.276z"/>
				</g>
			</g>
			<g>
				<g>
					<path d="M22.327,15.342c-0.255,0.218-0.463,0.492-0.615,0.795c-0.019,0.038,0.038,0.076,0.057,0.038
						c0.151-0.303,0.35-0.568,0.605-0.776C22.412,15.361,22.365,15.314,22.327,15.342L22.327,15.342z"/>
				</g>
			</g>
			<g>
				<g>
					<path d="M24.759,19.136c0.066,0.075,0.123,0.161,0.189,0.236c0.028,0.038,0.085,0,0.057-0.038
						c-0.066-0.076-0.123-0.161-0.189-0.236C24.787,19.07,24.73,19.107,24.759,19.136L24.759,19.136z"/>
				</g>
			</g>
			<g>
				<g>
					<path d="M52.772,13.819c0.047,0,0.047-0.075,0-0.075C52.724,13.753,52.724,13.819,52.772,13.819L52.772,13.819z"/>
				</g>
			</g>
			<g>
				<g>
					<path d="M52.734,13.336c-0.019-0.019-0.133-0.151-0.171-0.104c0,0,0.199,0.208,0.218,0.228c0.161,0.17,0.321,0.35,0.473,0.521
						c0.322,0.378,0.625,0.766,0.899,1.182c0.521,0.786,0.955,1.618,1.305,2.489c0.02,0.038,0.086,0.019,0.066-0.019
						c-0.681-1.722-1.702-3.265-3.018-4.561c-0.028-0.028-0.085,0.01-0.057,0.047c0.076,0.095,0.151,0.19,0.236,0.274
						C52.716,13.421,52.762,13.365,52.734,13.336L52.734,13.336z"/>
				</g>
			</g>
			<g>
				<g>
					<path d="M52.772,13.781c1.002,1.125,1.815,2.394,2.422,3.774c0.019,0.038,0.075,0.01,0.057-0.038
						c-0.606-1.391-1.429-2.658-2.432-3.794C52.791,13.696,52.743,13.744,52.772,13.781L52.772,13.781z"/>
				</g>
			</g>
			<g>
				<g>
					<path d="M53.036,14.793c0.814,0.927,1.505,1.93,2.082,3.008c0.02,0.038,0.085,0,0.057-0.038
						c-0.577-1.088-1.277-2.101-2.091-3.027C53.055,14.708,53.009,14.755,53.036,14.793L53.036,14.793z"/>
				</g>
			</g>
			<g>
				<g>
					<path d="M52.214,15.598c-0.587,0.35-0.833,1.088-0.568,1.722c0.02,0.038,0.086,0.019,0.066-0.019
						c-0.255-0.605-0.027-1.306,0.539-1.637C52.289,15.635,52.251,15.569,52.214,15.598L52.214,15.598z"/>
				</g>
			</g>
			<g>
				<g>
					<path d="M51.437,18.795c0.047,0,0.047-0.076,0-0.076C51.39,18.729,51.39,18.795,51.437,18.795L51.437,18.795z"/>
				</g>
			</g>
			<g>
				<g>
					<path d="M52.809,18.057c0.066-0.076,0.123-0.161,0.189-0.236c0.028-0.038-0.038-0.076-0.057-0.038
						c-0.066,0.076-0.123,0.161-0.189,0.236C52.716,18.057,52.781,18.095,52.809,18.057L52.809,18.057z"/>
				</g>
			</g>
			<g>
				<g>
					<path d="M61.107,9.855c-0.322-0.095-0.502,0.274-0.493,0.549c0.01,0.255,0.171,0.709,0.474,0.747
						c0.313,0.038,0.341-0.435,0.331-0.634c-0.019-0.293-0.143-0.586-0.436-0.681c-0.047-0.01-0.066,0.056-0.019,0.066
						c0.369,0.123,0.444,0.615,0.359,0.946c-0.057,0.208-0.256,0.255-0.417,0.095c-0.075-0.076-0.141-0.199-0.17-0.303
						c-0.075-0.227-0.057-0.852,0.36-0.729C61.135,9.94,61.154,9.874,61.107,9.855L61.107,9.855z"/>
				</g>
			</g>
			<g>
				<g>
					<path d="M61.239,10.158c0.492,0.766,0.852,1.589,1.079,2.469c0.009,0.047,0.075,0.028,0.065-0.019
						c-0.227-0.89-0.586-1.723-1.078-2.488C61.276,10.082,61.22,10.12,61.239,10.158L61.239,10.158z"/>
				</g>
			</g>
			<g>
				<g>
					<path d="M61.344,10.952c-0.143-0.047-0.123-0.056-0.048,0.038c0.048,0.057,0.104,0.104,0.161,0.161
						c0.132,0.151,0.255,0.322,0.35,0.501c0.18,0.313,0.322,0.653,0.454,0.984c0.019,0.038,0.086,0.019,0.066-0.019
						c-0.274-0.682-0.577-1.363-1.163-1.826c-0.029-0.028-0.076,0.009-0.057,0.047c0.047,0.104,0.094,0.142,0.207,0.18
						C61.362,11.038,61.381,10.961,61.344,10.952L61.344,10.952z"/>
				</g>
			</g>
			<g>
				<g>
					<path d="M14.436,10.186c0.303-0.265,0.606-0.53,0.899-0.795c0.028-0.028-0.01-0.076-0.047-0.057
						c-0.445,0.312-0.823,0.7-1.126,1.154c-0.028,0.038,0.038,0.076,0.057,0.038c0.293-0.445,0.663-0.823,1.098-1.125
						c-0.019-0.019-0.028-0.038-0.047-0.057c-0.303,0.265-0.605,0.53-0.899,0.795C14.352,10.167,14.408,10.214,14.436,10.186
						L14.436,10.186z"/>
				</g>
			</g>
			<g>
				<g>
					<path d="M15.402,10.101c0.104-0.142,0.076-0.076,0.114-0.246c0.01-0.029-0.038-0.066-0.057-0.038
						c-0.605,0.662-1.079,1.4-1.438,2.224c-0.019,0.038,0.047,0.075,0.057,0.038c0.171-0.388,0.359-0.757,0.587-1.107
						c0.113-0.189,0.246-0.369,0.378-0.539c0.076-0.095,0.151-0.189,0.227-0.284c0.028-0.038,0.236-0.293,0.076-0.085
						C15.307,10.101,15.373,10.139,15.402,10.101L15.402,10.101z"/>
				</g>
			</g>
			<g>
				<g>
					<path d="M39.346,41.926c-0.047-0.037-0.075-0.084-0.085-0.141c-0.009,0.018-0.02,0.027-0.038,0.047
						c0.275,0.037,0.313,0.577,0.341,0.784c0.01,0.048,0.075,0.048,0.075,0c-0.027-0.255-0.075-0.813-0.406-0.851
						c-0.028,0-0.038,0.028-0.038,0.047c0.01,0.076,0.047,0.123,0.095,0.17C39.338,42.002,39.385,41.956,39.346,41.926
						L39.346,41.926z"/>
				</g>
			</g>
			<g>
				<g>
					<path d="M38.126,42.296c0-0.114,0-0.218,0.01-0.332c0-0.047-0.066-0.047-0.076,0c-0.019,0.151-0.028,0.313-0.019,0.464
						c0,0.048,0.076,0.048,0.076,0c-0.01-0.151,0-0.313,0.019-0.464c-0.029,0-0.047,0-0.076,0c0,0.114,0,0.218-0.01,0.332
						C38.051,42.343,38.126,42.343,38.126,42.296L38.126,42.296z"/>
				</g>
			</g>
			<g>
				<g>
					<path d="M39.678,42.04c-0.066,0.19-0.096,0.38-0.104,0.568c0,0.048,0.065,0.048,0.076,0c0.009-0.188,0.037-0.369,0.104-0.549
						C39.762,42.012,39.697,41.993,39.678,42.04L39.678,42.04z"/>
				</g>
			</g>
			<g>
				<g>
					<path d="M37.927,42.04c0.114,0.881,0.123,1.751,0.029,2.631c0,0.048,0.066,0.048,0.076,0c0.094-0.88,0.085-1.76-0.028-2.631
						C37.994,42.002,37.918,42.002,37.927,42.04L37.927,42.04z"/>
				</g>
			</g>
			<g>
				<g>
					<path d="M36.65,41.87c0,0.266,0,0.54,0,0.805c0,0.047,0.076,0.047,0.076,0c0-0.265,0-0.539,0-0.805
						C36.717,41.833,36.65,41.833,36.65,41.87L36.65,41.87z"/>
				</g>
			</g>
			<g>
				<g>
					<path d="M36.584,43.147c-0.028,0.331-0.066,0.653-0.095,0.984c0,0.047,0.066,0.047,0.076,0
						c0.029-0.331,0.066-0.653,0.095-0.984C36.66,43.1,36.584,43.1,36.584,43.147L36.584,43.147z"/>
				</g>
			</g>
			<g>
				<g>
					<path d="M35.279,41.123c0.104,0.397,0.152,0.804,0.142,1.221c0,0.047,0.066,0.047,0.076,0c0.019-0.426-0.028-0.833-0.142-1.239
						C35.335,41.056,35.269,41.076,35.279,41.123L35.279,41.123z"/>
				</g>
			</g>
			<g>
				<g>
					<path d="M35.449,42.513c0-0.047,0.01-0.104,0.01-0.151c0-0.038-0.057-0.047-0.066-0.009c-0.123,0.378-0.265,0.757-0.435,1.125
						c-0.02,0.038,0.047,0.076,0.057,0.038c0.17-0.369,0.312-0.747,0.435-1.136c-0.019,0-0.047-0.009-0.066-0.009
						c0,0.048-0.01,0.104-0.01,0.151C35.373,42.56,35.439,42.56,35.449,42.513L35.449,42.513z"/>
				</g>
			</g>
			<g>
				<g>
					<path d="M33.699,41.008c0.151,0.341,0.227,0.701,0.246,1.079c0,0.048,0.076,0.048,0.076,0
						c-0.019-0.388-0.104-0.757-0.255-1.106C33.737,40.933,33.68,40.971,33.699,41.008L33.699,41.008z"/>
				</g>
			</g>
			<g>
				<g>
					<path d="M33.917,41.889c-0.18,0.265-0.303,0.558-0.369,0.87c-0.009,0.047,0.056,0.066,0.066,0.019
						c0.075-0.302,0.188-0.586,0.369-0.852C34.001,41.879,33.935,41.851,33.917,41.889L33.917,41.889z"/>
				</g>
			</g>
			<g>
				<g>
					<path d="M39.508,43.081c-0.095,0.086-0.17,0.19-0.218,0.303c-0.019,0.038,0.038,0.076,0.057,0.038
						c0.048-0.113,0.123-0.208,0.209-0.284C39.593,43.1,39.546,43.053,39.508,43.081L39.508,43.081z"/>
				</g>
			</g>
			<g>
				<g>
					<path d="M39.583,43.1c-0.027,0.094,0.01,0.198,0.096,0.255c0.037,0.028,0.075-0.038,0.037-0.057
						c-0.057-0.037-0.085-0.104-0.065-0.17C39.669,43.072,39.593,43.053,39.583,43.1L39.583,43.1z"/>
				</g>
			</g>
			<g>
				<g>
					<path d="M39.526,43.29c0-0.01,0-0.019,0.01-0.028c0.01-0.048-0.057-0.067-0.066-0.02c-0.104,0.521-0.142,1.04-0.132,1.57
						c0,0.047,0.075,0.047,0.075,0c-0.01-0.521,0.029-1.04,0.133-1.551c-0.02-0.01-0.047-0.01-0.066-0.02c0,0.01,0,0.02-0.01,0.029
						C39.451,43.308,39.517,43.328,39.526,43.29L39.526,43.29z"/>
				</g>
			</g>
			<g>
				<g>
					<path d="M41.495,41.908c-0.104,0.379-0.189,0.757-0.256,1.146c-0.01,0.047,0.057,0.065,0.066,0.019
						c0.065-0.388,0.151-0.767,0.256-1.146C41.57,41.879,41.505,41.861,41.495,41.908L41.495,41.908z"/>
				</g>
			</g>
			<g>
				<g>
					<path d="M41.277,43.451c0.01,0.35,0.057,0.69,0.142,1.021c0.01,0.047,0.076,0.028,0.066-0.02
						c-0.085-0.331-0.133-0.662-0.142-1.002C41.344,43.403,41.277,43.403,41.277,43.451L41.277,43.451z"/>
				</g>
			</g>
			<g>
				<g>
					<path d="M42.696,41.822c-0.01,0.37-0.01,0.748-0.02,1.117c0,0.048,0.066,0.048,0.076,0c0.01-0.369,0.01-0.747,0.02-1.117
						C42.772,41.776,42.696,41.776,42.696,41.822L42.696,41.822z"/>
				</g>
			</g>
			<g>
				<g>
					<path d="M42.781,43.081c0.085,0.389,0.228,0.757,0.426,1.098c0.019,0.038,0.086,0,0.057-0.037
						c-0.189-0.341-0.331-0.701-0.416-1.088C42.838,43.014,42.772,43.034,42.781,43.081L42.781,43.081z"/>
				</g>
			</g>
			<g>
				<g>
					<path d="M44.181,41.567c-0.058,0.359-0.085,0.71-0.104,1.069c0,0.048,0.066,0.048,0.076,0c0.019-0.35,0.047-0.7,0.104-1.051
						C44.258,41.539,44.191,41.52,44.181,41.567L44.181,41.567z"/>
				</g>
			</g>
			<g>
				<g>
					<path d="M44.124,42.864c0.161,0.482,0.322,0.955,0.493,1.438c0.019,0.048,0.084,0.028,0.065-0.02
						c-0.161-0.481-0.322-0.954-0.491-1.438C44.172,42.806,44.106,42.816,44.124,42.864L44.124,42.864z"/>
				</g>
			</g>
			<g>
				<g>
					<path d="M45.648,42.059c0-0.047,0.009-0.095,0.009-0.142c0-0.038-0.047-0.048-0.065-0.019c-0.284,0.397-0.37,0.87-0.247,1.343
						c0.011,0.048,0.076,0.029,0.067-0.019c-0.124-0.454-0.029-0.908,0.245-1.287c-0.019-0.01-0.047-0.01-0.065-0.019
						c0,0.047-0.01,0.095-0.01,0.142C45.572,42.106,45.648,42.106,45.648,42.059L45.648,42.059z"/>
				</g>
			</g>
			<g>
				<g>
					<path d="M39.622,43.014c0.047,0,0.047-0.075,0-0.075C39.574,42.939,39.574,43.014,39.622,43.014L39.622,43.014z"/>
				</g>
			</g>
			<g>
				<g>
					<path d="M39.622,42.466c0.009,0.246-0.02,0.482-0.086,0.709c-0.01,0.048,0.057,0.066,0.066,0.019
						c0.066-0.236,0.095-0.481,0.085-0.728C39.697,42.428,39.622,42.419,39.622,42.466L39.622,42.466z"/>
				</g>
			</g>
			<g>
				<g>
					<path d="M39.687,43.308c0.066-0.076,0.057-0.198-0.028-0.246c-0.037-0.019-0.066,0.028-0.047,0.057
						c0.066,0.075,0.123,0.152,0.188,0.228c0.028,0.037,0.075-0.019,0.048-0.048c-0.066-0.075-0.123-0.151-0.189-0.227
						c-0.02,0.019-0.028,0.038-0.047,0.057c0.047,0.028,0.057,0.095,0.019,0.143C39.612,43.29,39.659,43.346,39.687,43.308
						L39.687,43.308z"/>
				</g>
			</g>
			<g>
				<g>
					<path d="M39.65,43.375L39.65,43.375c0.009,0.028,0.028,0.028,0.047,0.028c0.038-0.01,0.065-0.048,0.047-0.075
						c-0.028-0.057-0.094-0.02-0.132,0.009c-0.151,0.123-0.227,0.321-0.256,0.501c-0.01,0.047,0.065,0.047,0.076,0
						c0.01-0.094,0.037-0.18,0.085-0.255c0.019-0.028,0.038-0.066,0.057-0.095c0.009-0.01,0.113-0.151,0.113-0.151
						c0.01,0.01,0.028,0.01,0.038,0.019v-0.009C39.687,43.298,39.631,43.328,39.65,43.375L39.65,43.375z"/>
				</g>
			</g>
			<g>
				<g>
					<path d="M39.242,43.242c0.039,0.038,0.067,0.123,0.086,0.17c0.019,0.058,0.038,0.114,0.058,0.171
						c0.009,0.047,0.084,0.028,0.065-0.019c-0.019-0.076-0.048-0.143-0.075-0.218c-0.02-0.048-0.038-0.123-0.086-0.152
						C39.261,43.157,39.215,43.204,39.242,43.242L39.242,43.242z"/>
				</g>
			</g>
			<g>
				<g>
					<path d="M38.126,43.147c0-0.01,0-0.028,0-0.037c0-0.048-0.076-0.048-0.076,0c0,0.009,0,0.027,0,0.037
						C38.051,43.194,38.126,43.194,38.126,43.147L38.126,43.147z"/>
				</g>
			</g>
			<g>
				<g>
					<path d="M38.126,43.147c0-0.057,0-0.104-0.009-0.16c-0.028,0-0.047,0-0.076,0c0.019,0.16,0.104,0.303,0.236,0.396
						c0.038,0.028,0.076-0.037,0.038-0.056c-0.114-0.076-0.189-0.199-0.208-0.332c0-0.047-0.075-0.047-0.075,0
						c0,0.058,0,0.104,0.009,0.161C38.051,43.194,38.126,43.194,38.126,43.147L38.126,43.147z"/>
				</g>
			</g>
			<g>
				<g>
					<path d="M38.183,43.317c-0.123,0.095-0.189,0.237-0.179,0.389c0,0.047,0.076,0.047,0.076,0
						c-0.01-0.123,0.038-0.246,0.142-0.322C38.259,43.346,38.221,43.29,38.183,43.317L38.183,43.317z"/>
				</g>
			</g>
			<g>
				<g>
					<path d="M37.984,43.09c-0.075,0.076-0.151,0.161-0.227,0.237c-0.028,0.027,0.019,0.084,0.047,0.047
						c0.076-0.076,0.152-0.161,0.228-0.237C38.06,43.1,38.013,43.053,37.984,43.09L37.984,43.09z"/>
				</g>
			</g>
			<g>
				<g>
					<path d="M37.862,43.431c0.076,0.028,0.113,0.104,0.104,0.189c-0.009,0.047,0.066,0.047,0.076,0
						c0.009-0.104-0.047-0.209-0.142-0.246C37.852,43.346,37.814,43.412,37.862,43.431L37.862,43.431z"/>
				</g>
			</g>
			<g>
				<g>
					<path d="M41.191,42.901c0.029,0.161-0.057,0.313-0.198,0.379c-0.038,0.019,0,0.085,0.038,0.057
						c0.17-0.085,0.256-0.274,0.227-0.463C41.258,42.844,41.191,42.864,41.191,42.901L41.191,42.901z"/>
				</g>
			</g>
			<g>
				<g>
					<path d="M41.097,43.28c0.123,0.095,0.18,0.228,0.18,0.378c0,0.048,0.066,0.048,0.075,0c0.01-0.17-0.065-0.321-0.198-0.426
						C41.107,43.204,41.059,43.251,41.097,43.28L41.097,43.28z"/>
				</g>
			</g>
			<g>
				<g>
					<path d="M41.277,42.93c-0.02,0.123,0.047,0.245,0.16,0.293c0.038,0.019,0.058-0.048,0.02-0.066
						c-0.076-0.028-0.133-0.123-0.113-0.208C41.352,42.901,41.277,42.882,41.277,42.93L41.277,42.93z"/>
				</g>
			</g>
			<g>
				<g>
					<path d="M41.428,43.242c-0.133,0.057-0.181,0.236-0.104,0.35c0.028,0.038,0.085,0,0.057-0.037
						c-0.057-0.085-0.019-0.208,0.076-0.256C41.505,43.28,41.466,43.223,41.428,43.242L41.428,43.242z"/>
				</g>
			</g>
			<g>
				<g>
					<path d="M42.554,42.731c0.028,0.113-0.01,0.227-0.104,0.293c-0.038,0.029,0,0.086,0.038,0.057
						c0.123-0.085,0.18-0.227,0.142-0.378C42.611,42.674,42.545,42.694,42.554,42.731L42.554,42.731z"/>
				</g>
			</g>
			<g>
				<g>
					<path d="M42.535,43.014c0.142,0.029,0.246,0.161,0.228,0.303c0,0.048,0.065,0.048,0.075,0c0.019-0.17-0.104-0.34-0.283-0.368
						C42.515,42.939,42.498,43.005,42.535,43.014L42.535,43.014z"/>
				</g>
			</g>
			<g>
				<g>
					<path d="M42.724,42.694c0.038,0.132,0.113,0.227,0.228,0.283c0-0.02,0-0.038,0-0.057c-0.028,0.028-0.066,0.037-0.104,0.037
						c-0.02,0-0.028,0.01-0.038,0.029c-0.028,0.132,0,0.255,0.086,0.359c0.028,0.037,0.085,0,0.057-0.038
						c-0.066-0.095-0.096-0.189-0.076-0.303c-0.01,0.009-0.02,0.019-0.038,0.028c0.058,0,0.095-0.01,0.143-0.047
						c0.019-0.02,0.028-0.048,0-0.057c-0.104-0.057-0.171-0.134-0.199-0.246C42.781,42.627,42.716,42.646,42.724,42.694
						L42.724,42.694z"/>
				</g>
			</g>
			<g>
				<g>
					<path d="M44.096,42.41c-0.066,0.123-0.143,0.246-0.209,0.378c-0.009,0.019,0,0.047,0.02,0.057
						c0.113,0.038,0.293,0.113,0.265,0.256c-0.009,0.047,0.057,0.066,0.066,0.019c0.038-0.198-0.161-0.293-0.321-0.35
						c0.01,0.019,0.01,0.037,0.019,0.057c0.066-0.123,0.142-0.246,0.208-0.379C44.181,42.41,44.115,42.372,44.096,42.41
						L44.096,42.41z"/>
				</g>
			</g>
			<g>
				<g>
					<path d="M44.143,42.362c-0.037,0.151,0.057,0.274,0.208,0.294c-0.009-0.02-0.019-0.039-0.027-0.058
						c-0.181,0.142-0.218,0.379-0.104,0.568c0.027,0.037,0.084,0,0.057-0.038c-0.104-0.161-0.066-0.369,0.095-0.482
						c0.028-0.019,0-0.057-0.028-0.057c-0.114-0.029-0.161-0.095-0.143-0.199C44.219,42.333,44.153,42.315,44.143,42.362
						L44.143,42.362z"/>
				</g>
			</g>
			<g>
				<g>
					<path d="M36.622,42.646c-0.028,0.16,0.038,0.303,0.17,0.388c0.01-0.02,0.01-0.047,0.019-0.066
						c-0.132,0-0.246,0.076-0.293,0.208c-0.019,0.038,0.047,0.057,0.066,0.019c0.038-0.094,0.123-0.15,0.227-0.15
						c0.038,0,0.047-0.048,0.019-0.066c-0.104-0.066-0.161-0.189-0.142-0.313C36.698,42.627,36.632,42.608,36.622,42.646
						L36.622,42.646z"/>
				</g>
			</g>
			<g>
				<g>
					<path d="M36.613,42.665c-0.038,0.057-0.076,0.085-0.142,0.113c-0.019,0.01-0.038,0.028-0.019,0.057
						c0.095,0.152,0.132,0.313,0.104,0.482c-0.009,0.048,0.066,0.048,0.076,0c0.029-0.188-0.019-0.359-0.113-0.521
						c-0.01,0.02-0.01,0.038-0.019,0.058c0.075-0.028,0.132-0.076,0.18-0.142C36.707,42.665,36.641,42.627,36.613,42.665
						L36.613,42.665z"/>
				</g>
			</g>
			<g>
				<g>
					<path d="M35.487,42.23c-0.057,0.132-0.019,0.273,0.113,0.34c0.01-0.019,0.01-0.047,0.019-0.066
						c-0.17-0.009-0.322,0.076-0.417,0.218c0.019,0.01,0.038,0.028,0.057,0.038c0.104-0.189,0.142-0.388,0.104-0.605
						c-0.01-0.048-0.076-0.028-0.066,0.019c0.038,0.189,0,0.379-0.095,0.549c-0.019,0.038,0.038,0.075,0.057,0.038
						c0.075-0.123,0.208-0.189,0.35-0.18c0.038,0,0.047-0.047,0.019-0.066c-0.095-0.047-0.132-0.151-0.085-0.246
						C35.572,42.219,35.506,42.192,35.487,42.23L35.487,42.23z"/>
				</g>
			</g>
			<g>
				<g>
					<path d="M33.888,41.822c-0.019,0.124,0.019,0.247,0.123,0.332c0.009-0.019,0.019-0.038,0.038-0.057
						c-0.151-0.038-0.293,0.047-0.331,0.199c-0.01,0.047,0.057,0.065,0.066,0.019c0.028-0.104,0.142-0.171,0.246-0.143
						c0.028,0.01,0.066-0.037,0.038-0.057c-0.076-0.065-0.123-0.16-0.104-0.265C33.964,41.794,33.898,41.776,33.888,41.822
						L33.888,41.822z"/>
				</g>
			</g>
			<g>
				<g>
					<path d="M33.879,42.182c0.019-0.095,0.028-0.199,0.047-0.293c0.01-0.047-0.066-0.067-0.066-0.02
						c-0.019,0.095-0.028,0.199-0.047,0.293C33.802,42.21,33.869,42.23,33.879,42.182L33.879,42.182z"/>
				</g>
			</g>
			<g>
				<g>
					<path d="M18.193,8.029c0.047,0.473,0.123,0.937,0.208,1.4c0.114,0.577,0.208,1.325,0.596,1.797
						c0.407,0.501,1.154,0.786,1.722,1.031c0.303,0.133,0.605,0.255,0.908,0.369c0.095,0.038,0.199,0.085,0.293,0.114
						c0.218,0.047,0.047,0.085,0.038-0.038c0.02,0.246,0.104,0.52,0.151,0.757c0.038,0.18,0.038,0.454,0.123,0.615
						c0.095,0.17,0.341,0.322,0.483,0.454c0.879,0.833,1.769,1.666,2.649,2.498c0.709,0.662,1.4,1.343,2.119,1.986
						c0.142,0.124,0.313-0.057,0.199-0.199l0,0c0,0.066,0,0.133,0,0.199c0.766-0.974,1.75-1.826,2.772-2.526
						c0.965-0.662,2.015-1.192,3.15-1.495c0.719-0.189,1.448-0.341,2.167-0.511c1.277-0.303,2.545-0.521,3.869-0.455
						c2.082,0.104,4.126,0.719,6.093,1.391c0.512,0.17,1.07,0.312,1.543,0.577c0.293,0.17,0.586,0.35,0.88,0.521
						c0.558,0.331,1.106,0.662,1.664,0.994c0.058,0.038,0.124,0.019,0.171-0.019c1.107-0.984,2.214-1.968,3.32-2.952
						c0.096-0.085,0.019-0.236-0.104-0.246c-0.369-0.009-0.548-0.965-0.596-1.258c-0.028,0.057-0.066,0.114-0.096,0.17
						c1.372-0.445,2.915-0.975,4.051-1.883c0.728-0.586,1.324-1.343,1.92-2.053c0.293-0.35,0.586-0.7,0.87-1.06
						c0.143-0.17,0.266-0.407,0.436-0.548c0,0,0.019-0.028,0.104-0.048c0.16-0.028,0.32,0,0.463,0.066
						c0.898,0.417,1.229,1.599,1.637,2.384c0.189,0.359,0.444,0.596,0.265,1.031c-0.143,0.331-0.511,0.586-0.776,0.804
						c-0.33,0.274-0.661,0.558-0.983,0.852c-0.757,0.681-1.495,1.381-2.223,2.091c-0.605,0.596-1.23,1.183-1.779,1.835
						c-0.133,0.151-0.208,0.246-0.208,0.444c0,0.133,0.039,0.265,0.066,0.397c0.009,0.057,0.048,0.151,0.038,0.208
						c-0.038,0.17-0.237,0.17-0.406,0.123c-0.397-0.104-0.834-0.426-1.202-0.615c-0.057-0.029-0.133-0.029-0.17,0.019
						c-1.004,1.107-1.987,2.214-2.99,3.32c-0.122,0.133,0.075,0.341,0.198,0.199c1.003-1.107,1.987-2.214,2.99-3.321
						c-0.058,0.009-0.114,0.019-0.171,0.019c0.379,0.189,0.748,0.388,1.127,0.577c0.188,0.095,0.415,0.246,0.643,0.18
						c0.454-0.142,0.218-0.691,0.189-1.013c-0.019-0.265,0.151-0.388,0.331-0.586c0.274-0.303,0.559-0.596,0.852-0.89
						c0.785-0.794,1.59-1.58,2.412-2.336c0.379-0.35,0.757-0.69,1.146-1.022c0.425-0.36,0.955-0.69,1.201-1.211
						c0.246-0.501-0.066-0.833-0.294-1.268c-0.321-0.605-0.539-1.239-0.964-1.789c-0.304-0.397-0.757-0.842-1.297-0.823
						c-0.284,0.009-0.378,0.123-0.539,0.331c-0.586,0.748-1.192,1.485-1.826,2.204c-0.368,0.417-0.747,0.861-1.183,1.221
						c-0.463,0.388-1.03,0.671-1.58,0.927c-0.785,0.369-1.599,0.681-2.422,0.946c-0.075,0.028-0.113,0.094-0.094,0.17
						c0.075,0.417,0.255,1.448,0.87,1.467c-0.038-0.085-0.067-0.161-0.104-0.246c-1.106,0.984-2.214,1.968-3.32,2.952
						c0.057-0.009,0.113-0.019,0.17-0.019c-0.492-0.293-0.975-0.577-1.467-0.87c-0.491-0.293-0.974-0.644-1.522-0.842
						c-2.176-0.794-4.428-1.542-6.736-1.769c-1.371-0.133-2.715,0.009-4.059,0.312c-1.76,0.397-3.529,0.748-5.108,1.665
						c-1.334,0.776-2.621,1.826-3.577,3.047c-0.047,0.066-0.057,0.132,0,0.199l0,0c0.066-0.066,0.132-0.133,0.199-0.199
						c-1.476-1.325-2.904-2.725-4.352-4.087c-0.265-0.246-0.521-0.492-0.786-0.738c-0.113-0.104-0.057-0.047-0.066-0.076
						c-0.095-0.284-0.114-0.605-0.17-0.899c-0.085-0.426-0.085-0.473-0.473-0.615c-0.662-0.246-1.315-0.521-1.93-0.861
						c-0.302-0.17-0.615-0.351-0.785-0.653c-0.189-0.34-0.274-0.747-0.36-1.116C18.647,9.165,18.552,8.587,18.486,8
						C18.448,7.85,18.164,7.85,18.193,8.029L18.193,8.029z"/>
				</g>
			</g>
		</g>
	</g>
</g>
</svg>
