<?xml version="1.0" encoding="utf-8"?>
<!-- Generator: Adobe Illustrator 16.0.0, SVG Export Plug-In . SVG Version: 6.00 Build 0)  -->
<!DOCTYPE svg PUBLIC "-//W3C//DTD SVG 1.1//EN" "http://www.w3.org/Graphics/SVG/1.1/DTD/svg11.dtd">
<svg version="1.1" id="Calque_1" xmlns="http://www.w3.org/2000/svg" xmlns:xlink="http://www.w3.org/1999/xlink" x="0px" y="0px"
	 width="304.302px" height="57.977px" viewBox="0 0 304.302 57.977" enable-background="new 0 0 304.302 57.977"
	 xml:space="preserve">
<g>
	<g>
		<path fill="#4CACD6" d="M36.157,36.25c0,0.911-0.284,1.596-0.849,2.051c-0.564,0.458-1.275,0.686-2.127,0.686H16.845V17.354
			h15.443c1.328,0,2.247,0.293,2.752,0.878c0.507,0.586,0.759,1.375,0.759,2.366v4.822c0,0.317-0.04,0.629-0.12,0.937
			c-0.078,0.307-0.223,0.578-0.431,0.818c-0.208,0.237-0.486,0.431-0.833,0.579c-0.348,0.15-0.779,0.235-1.294,0.254
			c0.594,0,1.086,0.089,1.473,0.266c0.388,0.18,0.7,0.402,0.938,0.67c0.238,0.267,0.401,0.565,0.49,0.891
			c0.09,0.33,0.135,0.642,0.135,0.94V36.25z M31.723,21.879c0-0.3-0.04-0.531-0.12-0.701c-0.079-0.168-0.182-0.292-0.312-0.372
			c-0.128-0.079-0.287-0.128-0.476-0.149c-0.189-0.02-0.391-0.029-0.61-0.029H21.04v6.099h9.226c0.634,0,1.035-0.124,1.204-0.371
			c0.168-0.25,0.253-0.552,0.253-0.908V21.879z M31.872,30.894c0-0.516-0.115-0.852-0.342-1.012c-0.229-0.16-0.62-0.237-1.176-0.237
			H21.04v6.039h9.522c0.456,0,0.789-0.075,0.998-0.222c0.208-0.15,0.312-0.451,0.312-0.909V30.894z"/>
		<path fill="#4CACD6" d="M43.506,38.987c-1.35,0-2.4-0.346-3.154-1.042s-1.13-1.765-1.13-3.213V17.354h4.373v17.11
			c0,0.496,0.09,0.823,0.27,0.983c0.178,0.158,0.525,0.237,1.042,0.237h8.39c0.516,0,0.878-0.084,1.086-0.251
			c0.208-0.17,0.312-0.501,0.312-0.998V17.354h4.375v17.378c0,1.448-0.376,2.518-1.131,3.213s-1.805,1.042-3.154,1.042H43.506z"/>
		<path fill="#4CACD6" d="M82.039,38.987h-4.017v-2.291L66.179,24.077v14.91h-3.987V17.354h3.422l12.408,13.658V17.354h4.017V38.987
			z"/>
		<path fill="#4CACD6" d="M94.595,26.579h10.059v12.408h-4.167v-1.519l-1.814,1.519H88.496c-0.912,0-1.696-0.262-2.35-0.79
			c-0.655-0.525-0.982-1.344-0.982-2.453V19.883c0-1.685,0.852-2.529,2.559-2.529h14.759l0.505,3.452h-12.17
			c-0.555,0-0.917,0.089-1.086,0.268c-0.168,0.179-0.253,0.505-0.253,0.982v12.379c0,0.497,0.095,0.828,0.284,0.998
			c0.187,0.167,0.54,0.251,1.055,0.251h9.67v-6.039h-5.892V26.579z"/>
		<path fill="#4CACD6" d="M112.896,34.614l-1.399,4.374h-4.523l7.113-21.633h9.223l7.053,21.633h-4.524l-1.398-4.374H112.896z
			 M113.818,31.519h9.7l-3.392-11.011h-2.887L113.818,31.519z"/>
		<path fill="#4CACD6" d="M148.752,35.684l-0.327,3.304h-15.741V17.354h4.344v18.33H148.752z"/>
		<path fill="#4CACD6" d="M155.715,38.987c-0.676,0-1.285-0.063-1.831-0.194c-0.546-0.128-1.011-0.342-1.399-0.639
			c-0.386-0.298-0.684-0.695-0.892-1.192c-0.208-0.494-0.313-1.099-0.313-1.813V21.193c0-0.714,0.104-1.319,0.313-1.816
			c0.208-0.495,0.506-0.893,0.892-1.19c0.388-0.297,0.853-0.51,1.399-0.64c0.545-0.128,1.155-0.194,1.831-0.194h11.366
			c0.673,0,1.283,0.066,1.83,0.194c0.546,0.129,1.012,0.342,1.398,0.64c0.387,0.297,0.684,0.695,0.893,1.19
			c0.208,0.497,0.312,1.102,0.312,1.816v13.956c0,0.714-0.104,1.319-0.312,1.813c-0.208,0.497-0.505,0.894-0.893,1.192
			c-0.386,0.297-0.852,0.511-1.398,0.639c-0.546,0.131-1.156,0.194-1.83,0.194H155.715z M155.566,34.495
			c0,0.495,0.083,0.824,0.253,0.981c0.168,0.16,0.509,0.237,1.026,0.237h8.985c0.516,0,0.878-0.083,1.086-0.251
			c0.209-0.17,0.313-0.501,0.313-0.998V21.879c0-0.498-0.104-0.83-0.313-0.998c-0.208-0.169-0.57-0.253-1.086-0.253h-8.985
			c-0.517,0-0.858,0.078-1.026,0.237c-0.169,0.16-0.253,0.486-0.253,0.982V34.495z"/>
		<path fill="#4CACD6" d="M191.899,17.354l4.522,18.33h2.231l3.422-18.33h4.404l-4.523,21.633h-8.599l-3.244-14.699l-3.244,14.699
			h-8.599l-4.523-21.633h4.404l3.422,18.33h2.231l4.523-18.33H191.899z"/>
		<path fill="#4CACD6" d="M236.203,36.25c0,0.911-0.284,1.596-0.849,2.051c-0.565,0.458-1.275,0.686-2.127,0.686h-16.335V17.354
			h15.443c1.329,0,2.247,0.293,2.752,0.878c0.506,0.586,0.759,1.375,0.759,2.366v4.822c0,0.317-0.04,0.629-0.12,0.937
			c-0.079,0.307-0.223,0.578-0.431,0.818c-0.208,0.237-0.487,0.431-0.833,0.579c-0.348,0.15-0.779,0.235-1.295,0.254
			c0.595,0,1.086,0.089,1.472,0.266c0.388,0.18,0.7,0.402,0.938,0.67c0.238,0.267,0.401,0.565,0.491,0.891
			c0.089,0.33,0.134,0.642,0.134,0.94V36.25z M231.769,21.879c0-0.3-0.04-0.531-0.12-0.701c-0.079-0.168-0.182-0.292-0.312-0.372
			c-0.128-0.079-0.288-0.128-0.476-0.149c-0.188-0.02-0.391-0.029-0.61-0.029h-9.165v6.099h9.226c0.634,0,1.036-0.124,1.205-0.371
			c0.168-0.25,0.252-0.552,0.252-0.908V21.879z M231.918,30.894c0-0.516-0.115-0.852-0.342-1.012
			c-0.228-0.16-0.62-0.237-1.176-0.237h-9.313v6.039h9.522c0.457,0,0.789-0.075,0.998-0.222c0.208-0.15,0.312-0.451,0.312-0.909
			V30.894z"/>
		<path fill="#4CACD6" d="M243.701,38.987c-0.675,0-1.284-0.063-1.83-0.194c-0.546-0.128-1.011-0.342-1.398-0.639
			c-0.386-0.298-0.684-0.695-0.893-1.192c-0.208-0.494-0.312-1.099-0.312-1.813V21.193c0-0.714,0.104-1.319,0.312-1.816
			c0.208-0.495,0.507-0.893,0.893-1.19c0.388-0.297,0.852-0.51,1.398-0.64c0.546-0.128,1.155-0.194,1.83-0.194h11.368
			c0.673,0,1.283,0.066,1.829,0.194c0.546,0.129,1.012,0.342,1.398,0.64c0.388,0.297,0.685,0.695,0.893,1.19
			c0.209,0.497,0.313,1.102,0.313,1.816v13.956c0,0.714-0.104,1.319-0.313,1.813c-0.208,0.497-0.504,0.894-0.893,1.192
			c-0.386,0.297-0.852,0.511-1.398,0.639c-0.546,0.131-1.156,0.194-1.829,0.194H243.701z M243.553,34.495
			c0,0.495,0.083,0.824,0.252,0.981c0.168,0.16,0.51,0.237,1.027,0.237h8.985c0.516,0,0.877-0.083,1.086-0.251
			c0.209-0.17,0.314-0.501,0.314-0.998V21.879c0-0.498-0.104-0.83-0.314-0.998c-0.208-0.169-0.57-0.253-1.086-0.253h-8.985
			c-0.517,0-0.858,0.078-1.027,0.237c-0.169,0.16-0.252,0.486-0.252,0.982V34.495z"/>
		<path fill="#4CACD6" d="M269.618,29.882c-0.397,0-0.639,0.065-0.729,0.193c-0.089,0.128-0.184,0.342-0.283,0.639l-2.409,8.273
			h-4.523l2.797-8.631c0.298-0.91,0.66-1.506,1.086-1.784c0.427-0.276,0.898-0.417,1.414-0.417c-0.258,0-0.506-0.024-0.744-0.076
			c-0.238-0.048-0.466-0.152-0.684-0.312c-0.219-0.157-0.417-0.375-0.595-0.654c-0.179-0.278-0.337-0.654-0.477-1.131l-2.648-8.629
			h4.434l2.35,8.421c0.1,0.297,0.204,0.506,0.313,0.624c0.108,0.119,0.342,0.18,0.699,0.18h5.356c0.336,0,0.565-0.061,0.684-0.18
			c0.119-0.118,0.227-0.327,0.326-0.624l2.352-8.421h4.434l-2.649,8.629c-0.138,0.477-0.297,0.853-0.476,1.131
			c-0.177,0.279-0.376,0.497-0.594,0.654c-0.219,0.16-0.447,0.264-0.686,0.312c-0.238,0.052-0.486,0.076-0.743,0.076
			c0.516,0,0.987,0.141,1.413,0.417c0.427,0.278,0.789,0.874,1.086,1.784l2.798,8.631h-4.523l-2.411-8.273
			c-0.099-0.297-0.198-0.511-0.296-0.639c-0.1-0.128-0.338-0.193-0.714-0.193H269.618z"/>
	</g>
	<g>
		<path fill="#FFFFFF" d="M37.61,34.798c0,0.91-0.284,1.596-0.85,2.051c-0.564,0.458-1.275,0.685-2.126,0.685H18.298V15.901h15.443
			c1.328,0,2.246,0.293,2.752,0.878c0.507,0.586,0.759,1.374,0.759,2.365v4.822c0,0.317-0.04,0.629-0.12,0.937
			c-0.078,0.308-0.223,0.578-0.431,0.818c-0.208,0.238-0.487,0.431-0.833,0.579c-0.348,0.15-0.779,0.235-1.294,0.255
			c0.594,0,1.086,0.089,1.473,0.266c0.387,0.18,0.7,0.402,0.938,0.671c0.238,0.267,0.401,0.564,0.491,0.891
			c0.09,0.33,0.135,0.643,0.135,0.94V34.798z M33.175,20.426c0-0.299-0.04-0.531-0.12-0.701c-0.079-0.168-0.183-0.292-0.312-0.371
			c-0.128-0.079-0.287-0.128-0.476-0.149c-0.189-0.019-0.391-0.029-0.61-0.029h-9.164v6.099h9.226c0.634,0,1.035-0.124,1.204-0.371
			c0.168-0.25,0.252-0.552,0.252-0.908V20.426z M33.324,29.441c0-0.516-0.115-0.852-0.342-1.013c-0.228-0.16-0.62-0.237-1.175-0.237
			h-9.313v6.039h9.522c0.456,0,0.789-0.075,0.997-0.222c0.208-0.15,0.312-0.451,0.312-0.908V29.441z"/>
		<path fill="#FFFFFF" d="M44.959,37.534c-1.35,0-2.4-0.346-3.154-1.042s-1.131-1.765-1.131-3.213V15.901h4.373v17.11
			c0,0.496,0.09,0.823,0.269,0.983c0.178,0.158,0.526,0.237,1.042,0.237h8.391c0.516,0,0.878-0.084,1.086-0.251
			c0.208-0.169,0.312-0.501,0.312-0.998V15.901h4.375v17.378c0,1.448-0.376,2.518-1.131,3.213s-1.805,1.042-3.154,1.042H44.959z"/>
		<path fill="#FFFFFF" d="M83.491,37.534h-4.017v-2.291L67.632,22.625v14.91h-3.987V15.901h3.422L79.474,29.56V15.901h4.017V37.534z
			"/>
		<path fill="#FFFFFF" d="M96.048,25.126h10.059v12.408h-4.167v-1.518l-1.814,1.518H89.948c-0.912,0-1.695-0.262-2.35-0.79
			c-0.655-0.526-0.982-1.344-0.982-2.454V18.43c0-1.685,0.852-2.529,2.559-2.529h14.759l0.506,3.453H92.27
			c-0.556,0-0.918,0.089-1.086,0.267c-0.168,0.18-0.253,0.506-0.253,0.982v12.379c0,0.497,0.095,0.828,0.284,0.998
			c0.187,0.167,0.54,0.251,1.055,0.251h9.67v-6.039h-5.891V25.126z"/>
		<path fill="#FFFFFF" d="M114.35,33.161l-1.399,4.374h-4.523l7.113-21.633h9.223l7.053,21.633h-4.524l-1.398-4.374H114.35z
			 M115.271,30.066h9.7l-3.391-11.011h-2.887L115.271,30.066z"/>
		<path fill="#FFFFFF" d="M150.205,34.23l-0.326,3.304h-15.741V15.901h4.344v18.33H150.205z"/>
		<path fill="#FFFFFF" d="M157.168,37.534c-0.675,0-1.285-0.063-1.831-0.194c-0.546-0.128-1.011-0.342-1.399-0.639
			c-0.386-0.298-0.684-0.695-0.892-1.192c-0.208-0.494-0.313-1.099-0.313-1.813V19.741c0-0.715,0.104-1.32,0.313-1.816
			c0.208-0.495,0.506-0.893,0.892-1.189c0.388-0.297,0.853-0.51,1.399-0.64c0.546-0.127,1.155-0.194,1.831-0.194h11.367
			c0.673,0,1.283,0.066,1.83,0.194c0.546,0.13,1.012,0.343,1.398,0.64c0.388,0.297,0.684,0.694,0.893,1.189
			c0.208,0.497,0.313,1.102,0.313,1.816v13.955c0,0.715-0.104,1.319-0.313,1.813c-0.208,0.497-0.505,0.894-0.893,1.192
			c-0.386,0.297-0.852,0.511-1.398,0.639c-0.546,0.131-1.157,0.194-1.83,0.194H157.168z M157.019,33.042
			c0,0.495,0.084,0.824,0.253,0.981c0.168,0.16,0.51,0.237,1.027,0.237h8.985c0.516,0,0.878-0.082,1.086-0.251
			c0.209-0.17,0.313-0.501,0.313-0.998V20.426c0-0.498-0.104-0.83-0.313-0.998c-0.208-0.169-0.57-0.253-1.086-0.253h-8.985
			c-0.517,0-0.858,0.079-1.027,0.237c-0.169,0.16-0.253,0.486-0.253,0.982V33.042z"/>
		<path fill="#FFFFFF" d="M193.352,15.901l4.522,18.33h2.231l3.422-18.33h4.404l-4.523,21.633h-8.599l-3.244-14.699l-3.243,14.699
			h-8.599L175.2,15.901h4.404l3.421,18.33h2.232l4.523-18.33H193.352z"/>
		<path fill="#FFFFFF" d="M237.656,34.798c0,0.91-0.284,1.596-0.849,2.051c-0.565,0.458-1.275,0.685-2.127,0.685h-16.335V15.901
			h15.443c1.328,0,2.246,0.293,2.752,0.878c0.506,0.586,0.759,1.374,0.759,2.365v4.822c0,0.317-0.04,0.629-0.12,0.937
			c-0.079,0.308-0.223,0.578-0.431,0.818c-0.208,0.238-0.487,0.431-0.833,0.579c-0.348,0.15-0.779,0.235-1.295,0.255
			c0.595,0,1.086,0.089,1.472,0.266c0.388,0.18,0.7,0.402,0.938,0.671c0.238,0.267,0.401,0.564,0.49,0.891
			c0.089,0.33,0.135,0.643,0.135,0.94V34.798z M233.222,20.426c0-0.299-0.04-0.531-0.12-0.701c-0.079-0.168-0.182-0.292-0.312-0.371
			c-0.128-0.079-0.287-0.128-0.476-0.149c-0.188-0.019-0.391-0.029-0.61-0.029h-9.165v6.099h9.225c0.635,0,1.036-0.124,1.205-0.371
			c0.168-0.25,0.252-0.552,0.252-0.908V20.426z M233.371,29.441c0-0.516-0.115-0.852-0.343-1.013
			c-0.228-0.16-0.62-0.237-1.175-0.237h-9.313v6.039h9.522c0.456,0,0.789-0.075,0.998-0.222c0.208-0.15,0.312-0.451,0.312-0.908
			V29.441z"/>
		<path fill="#FFFFFF" d="M245.154,37.534c-0.675,0-1.284-0.063-1.83-0.194c-0.546-0.128-1.011-0.342-1.398-0.639
			c-0.386-0.298-0.684-0.695-0.893-1.192c-0.208-0.494-0.313-1.099-0.313-1.813V19.741c0-0.715,0.104-1.32,0.313-1.816
			c0.208-0.495,0.507-0.893,0.893-1.189c0.387-0.297,0.852-0.51,1.398-0.64c0.546-0.127,1.155-0.194,1.83-0.194h11.367
			c0.673,0,1.284,0.066,1.83,0.194c0.546,0.13,1.012,0.343,1.398,0.64c0.388,0.297,0.685,0.694,0.893,1.189
			c0.208,0.497,0.313,1.102,0.313,1.816v13.955c0,0.715-0.104,1.319-0.313,1.813c-0.208,0.497-0.504,0.894-0.893,1.192
			c-0.386,0.297-0.852,0.511-1.398,0.639c-0.546,0.131-1.156,0.194-1.83,0.194H245.154z M245.006,33.042
			c0,0.495,0.083,0.824,0.252,0.981c0.168,0.16,0.51,0.237,1.027,0.237h8.985c0.516,0,0.877-0.082,1.086-0.251
			c0.209-0.17,0.313-0.501,0.313-0.998V20.426c0-0.498-0.104-0.83-0.313-0.998c-0.208-0.169-0.57-0.253-1.086-0.253h-8.985
			c-0.517,0-0.859,0.079-1.027,0.237c-0.17,0.16-0.252,0.486-0.252,0.982V33.042z"/>
		<path fill="#FFFFFF" d="M271.071,28.429c-0.397,0-0.64,0.065-0.729,0.194c-0.089,0.128-0.184,0.342-0.283,0.639l-2.409,8.272
			h-4.523l2.796-8.631c0.298-0.91,0.66-1.506,1.086-1.784c0.427-0.276,0.898-0.417,1.415-0.417c-0.258,0-0.506-0.024-0.744-0.075
			c-0.238-0.048-0.466-0.153-0.684-0.313c-0.219-0.157-0.417-0.375-0.595-0.654c-0.18-0.278-0.337-0.653-0.478-1.131l-2.647-8.629
			h4.433l2.351,8.421c0.099,0.297,0.204,0.506,0.313,0.624c0.108,0.119,0.341,0.18,0.699,0.18h5.356c0.336,0,0.564-0.061,0.684-0.18
			c0.118-0.118,0.227-0.327,0.326-0.624l2.352-8.421h4.434l-2.649,8.629c-0.138,0.478-0.297,0.853-0.476,1.131
			c-0.177,0.279-0.376,0.497-0.594,0.654c-0.219,0.16-0.446,0.264-0.685,0.313c-0.238,0.051-0.486,0.075-0.743,0.075
			c0.515,0,0.986,0.141,1.413,0.417c0.427,0.278,0.789,0.874,1.086,1.784l2.798,8.631h-4.523l-2.411-8.272
			c-0.1-0.297-0.198-0.511-0.296-0.639c-0.101-0.128-0.338-0.194-0.714-0.194H271.071z"/>
	</g>
</g>
</svg>
