<?xml version="1.0" encoding="utf-8"?>
<!-- Generator: Adobe Illustrator 16.0.0, SVG Export Plug-In . SVG Version: 6.00 Build 0)  -->
<!DOCTYPE svg PUBLIC "-//W3C//DTD SVG 1.1//EN" "http://www.w3.org/Graphics/SVG/1.1/DTD/svg11.dtd">
<svg version="1.1" xmlns="http://www.w3.org/2000/svg" xmlns:xlink="http://www.w3.org/1999/xlink" x="0px" y="0px"
	 width="75.203px" height="73.398px" viewBox="0 0 75.203 73.398" enable-background="new 0 0 75.203 73.398" xml:space="preserve">
<g id="Calque_1">
	<g id="Layer_1_copy">
		<g>
			<g>
				<path fill="#1A1A1A" d="M57.212,73.399H17.991C8.097,73.399,0,65.301,0,55.407V19.066C0,9.169,8.097,1.074,17.991,1.074h39.221
					c9.895,0,17.991,8.096,17.991,17.991v36.342C75.203,65.302,67.106,73.399,57.212,73.399z"/>
			</g>
		</g>
		
			<linearGradient id="SVGID_1_" gradientUnits="userSpaceOnUse" x1="564.8936" y1="231.637" x2="738.5264" y2="58.0041" gradientTransform="matrix(0.3598 0 0 -0.3598 -196.884 89.3433)">
			<stop  offset="0.0179" style="stop-color:#F9BF7F;stop-opacity:0.1"/>
			<stop  offset="0.1787" style="stop-color:#F7BD7E;stop-opacity:0.4402"/>
			<stop  offset="0.2366" style="stop-color:#F0B879;stop-opacity:0.5627"/>
			<stop  offset="0.2779" style="stop-color:#E5AE71;stop-opacity:0.65"/>
			<stop  offset="0.3112" style="stop-color:#D4A065;stop-opacity:0.7206"/>
			<stop  offset="0.3395" style="stop-color:#BE8E56;stop-opacity:0.7804"/>
			<stop  offset="0.3487" style="stop-color:#B58650;stop-opacity:0.8"/>
			<stop  offset="0.4069" style="stop-color:#8E693E;stop-opacity:0.8926"/>
			<stop  offset="0.4744" style="stop-color:#5B4428"/>
			<stop  offset="0.5867" style="stop-color:#916B40"/>
			<stop  offset="0.6718" style="stop-color:#B58650"/>
			<stop  offset="0.681" style="stop-color:#BE8E56;stop-opacity:0.9748"/>
			<stop  offset="0.709" style="stop-color:#D4A065;stop-opacity:0.898"/>
			<stop  offset="0.7421" style="stop-color:#E5AE71;stop-opacity:0.8072"/>
			<stop  offset="0.7831" style="stop-color:#F0B879;stop-opacity:0.6949"/>
			<stop  offset="0.8405" style="stop-color:#F7BD7E;stop-opacity:0.5374"/>
			<stop  offset="1" style="stop-color:#F9BF7F;stop-opacity:0.1"/>
		</linearGradient>
		<path fill="url(#SVGID_1_)" d="M56.851,73.038h-38.5c-9.896,0-17.99-8.096-17.99-17.991V19.425c0-9.895,8.096-17.99,17.99-17.99
			h38.5c9.896,0,17.992,8.097,17.992,17.99v35.622C74.843,64.943,66.747,73.038,56.851,73.038z"/>
		
			<linearGradient id="SVGID_2_" gradientUnits="userSpaceOnUse" x1="564.8906" y1="58.0032" x2="738.5248" y2="231.6372" gradientTransform="matrix(0.3598 0 0 -0.3598 -196.884 89.3433)">
			<stop  offset="0.0179" style="stop-color:#F9BF7F;stop-opacity:0.1"/>
			<stop  offset="0.135" style="stop-color:#E4AE71;stop-opacity:0.3478"/>
			<stop  offset="0.3487" style="stop-color:#B58650;stop-opacity:0.8"/>
			<stop  offset="0.349" style="stop-color:#B58650;stop-opacity:0.8003"/>
			<stop  offset="0.4296" style="stop-color:#84623A;stop-opacity:0.8914"/>
			<stop  offset="0.491" style="stop-color:#664C2D;stop-opacity:0.9608"/>
			<stop  offset="0.5256" style="stop-color:#5B4428"/>
			<stop  offset="0.5907" style="stop-color:#8A673D"/>
			<stop  offset="0.6428" style="stop-color:#A97D4B"/>
			<stop  offset="0.6718" style="stop-color:#B58650"/>
			<stop  offset="0.7151" style="stop-color:#BF8F57;stop-opacity:0.8813"/>
			<stop  offset="0.9033" style="stop-color:#E9B274;stop-opacity:0.3652"/>
			<stop  offset="1" style="stop-color:#F9BF7F;stop-opacity:0.1"/>
		</linearGradient>
		<path fill="url(#SVGID_2_)" d="M56.851,73.038h-38.5c-9.896,0-17.99-8.096-17.99-17.991V19.425c0-9.895,8.096-17.99,17.99-17.99
			h38.5c9.896,0,17.992,8.097,17.992,17.99v35.622C74.843,64.943,66.747,73.038,56.851,73.038z"/>
		<path fill="#E3E3E3" d="M51.419,65.014h-27.6c-9.895,0-17.99-8.097-17.99-17.99v-27.6c0-9.895,8.098-17.99,17.99-17.99h27.6
			c9.895,0,17.99,8.097,17.99,17.99v27.6C69.409,56.918,61.313,65.014,51.419,65.014z"/>
		
			<radialGradient id="SVGID_3_" cx="651.7109" cy="63.7356" r="117.528" gradientTransform="matrix(0.3598 0 0 -0.3577 -196.884 87.579)" gradientUnits="userSpaceOnUse">
			<stop  offset="0" style="stop-color:#FCE5CB"/>
			<stop  offset="0.1413" style="stop-color:#FBD9B3"/>
			<stop  offset="0.3172" style="stop-color:#FACD9C"/>
			<stop  offset="0.5072" style="stop-color:#F9C58C"/>
			<stop  offset="0.7195" style="stop-color:#F9C182"/>
			<stop  offset="1" style="stop-color:#F9BF7F"/>
		</radialGradient>
		<path fill="url(#SVGID_3_)" d="M51.167,64.403H24.036c-9.895,0-17.991-8.097-17.991-17.991V19.677
			c0-9.895,8.097-17.99,17.991-17.99h27.131c9.895,0,17.991,8.097,17.991,17.99v26.734C69.158,56.306,61.062,64.403,51.167,64.403z"
			/>
	</g>
</g>
<g id="Calque_2_1_">
	<path fill="#593D3F" d="M-297.898-250.735c0,6.447-5.762,9.935-12.215,9.935h-1.874c-6.453,0-10.912-3.488-10.912-9.935v-1.874
		c0-6.456,4.458-13.191,10.912-13.191h1.874c6.453,0,12.215,6.736,12.215,13.191V-250.735z"/>
	<path fill="#593D3F" d="M-192.898-263.392c0,1.021-0.931,1.592-1.953,1.592h-0.297c-1.022,0-1.75-0.57-1.75-1.592v-0.297
		c0-1.023,0.728-2.111,1.75-2.111h0.297c1.022,0,1.953,1.088,1.953,2.111V-263.392z"/>
	<g>
		<path fill="#593D3F" d="M22.874,36.876l-0.167,1.685h-8.028V27.528h2.215v9.348H22.874z"/>
		<path fill="#593D3F" d="M26.501,38.561h-2.186V27.528h2.186V38.561z"/>
		<path fill="#593D3F" d="M31.327,38.561l-3.582-11.033h2.231l2.898,9.348h1.168l2.883-9.348h2.231l-3.551,11.033H31.327z"/>
		<path fill="#593D3F" d="M50.313,38.561h-2.277l-0.136-2.353c-0.021-0.303-0.052-0.563-0.092-0.781
			c-0.041-0.217-0.116-0.399-0.228-0.546c-0.11-0.146-0.27-0.255-0.471-0.326c-0.201-0.071-0.47-0.106-0.804-0.106h-3.749v4.112
			h-2.185V27.528h7.952c0.362,0,0.664,0.046,0.902,0.136c0.238,0.092,0.428,0.218,0.569,0.38c0.141,0.162,0.241,0.354,0.304,0.577
			c0.06,0.223,0.09,0.471,0.09,0.744v3.065c0,0.142-0.03,0.296-0.09,0.463c-0.063,0.167-0.165,0.318-0.312,0.455
			s-0.333,0.248-0.562,0.334s-0.508,0.129-0.842,0.129c0.505,0.021,0.907,0.154,1.206,0.402s0.457,0.589,0.479,1.024L50.313,38.561z
			 M48.05,29.805c0-0.405-0.202-0.607-0.606-0.607h-4.887v3.673h4.842c0.182,0,0.315-0.023,0.401-0.069
			c0.087-0.045,0.148-0.106,0.19-0.182c0.039-0.075,0.06-0.16,0.06-0.25c0-0.09,0-0.176,0-0.258V29.805z"/>
		<path fill="#593D3F" d="M60.524,29.289h-6.51v3.08h6.298l-0.138,1.579h-6.16v2.929h6.51l-0.182,1.685h-8.514V27.528h8.438
			L60.524,29.289z"/>
	</g>
</g>
</svg>
