<?xml version="1.0" encoding="utf-8"?>
<!-- Generator: Adobe Illustrator 16.0.0, SVG Export Plug-In . SVG Version: 6.00 Build 0)  -->
<!DOCTYPE svg PUBLIC "-//W3C//DTD SVG 1.1//EN" "http://www.w3.org/Graphics/SVG/1.1/DTD/svg11.dtd">
<svg version="1.1" xmlns="http://www.w3.org/2000/svg" xmlns:xlink="http://www.w3.org/1999/xlink" x="0px" y="0px"
	 width="75.203px" height="73.398px" viewBox="0 0 75.203 73.398" enable-background="new 0 0 75.203 73.398" xml:space="preserve">
<g id="Calque_1">
	<g id="Layer_1_copy">
		<g>
			<g>
				<path fill="#1A1A1A" d="M57.212,73.399H17.991C8.097,73.399,0,65.301,0,55.407V19.066C0,9.169,8.097,1.074,17.991,1.074h39.221
					c9.895,0,17.991,8.096,17.991,17.991v36.342C75.203,65.302,67.106,73.399,57.212,73.399z"/>
			</g>
		</g>
		
			<linearGradient id="SVGID_1_" gradientUnits="userSpaceOnUse" x1="564.8936" y1="231.637" x2="738.5264" y2="58.0041" gradientTransform="matrix(0.3598 0 0 -0.3598 -196.884 89.3433)">
			<stop  offset="0.0179" style="stop-color:#F9BF7F;stop-opacity:0.1"/>
			<stop  offset="0.1787" style="stop-color:#F7BD7E;stop-opacity:0.4402"/>
			<stop  offset="0.2366" style="stop-color:#F0B879;stop-opacity:0.5627"/>
			<stop  offset="0.2779" style="stop-color:#E5AE71;stop-opacity:0.65"/>
			<stop  offset="0.3112" style="stop-color:#D4A065;stop-opacity:0.7206"/>
			<stop  offset="0.3395" style="stop-color:#BE8E56;stop-opacity:0.7804"/>
			<stop  offset="0.3487" style="stop-color:#B58650;stop-opacity:0.8"/>
			<stop  offset="0.4069" style="stop-color:#8E693E;stop-opacity:0.8926"/>
			<stop  offset="0.4744" style="stop-color:#5B4428"/>
			<stop  offset="0.5867" style="stop-color:#916B40"/>
			<stop  offset="0.6718" style="stop-color:#B58650"/>
			<stop  offset="0.681" style="stop-color:#BE8E56;stop-opacity:0.9748"/>
			<stop  offset="0.709" style="stop-color:#D4A065;stop-opacity:0.898"/>
			<stop  offset="0.7421" style="stop-color:#E5AE71;stop-opacity:0.8072"/>
			<stop  offset="0.7831" style="stop-color:#F0B879;stop-opacity:0.6949"/>
			<stop  offset="0.8405" style="stop-color:#F7BD7E;stop-opacity:0.5374"/>
			<stop  offset="1" style="stop-color:#F9BF7F;stop-opacity:0.1"/>
		</linearGradient>
		<path fill="url(#SVGID_1_)" d="M56.851,73.038h-38.5c-9.896,0-17.99-8.096-17.99-17.991V19.425c0-9.895,8.096-17.99,17.99-17.99
			h38.5c9.896,0,17.992,8.097,17.992,17.99v35.622C74.843,64.943,66.747,73.038,56.851,73.038z"/>
		
			<linearGradient id="SVGID_2_" gradientUnits="userSpaceOnUse" x1="564.8906" y1="58.0032" x2="738.5248" y2="231.6372" gradientTransform="matrix(0.3598 0 0 -0.3598 -196.884 89.3433)">
			<stop  offset="0.0179" style="stop-color:#F9BF7F;stop-opacity:0.1"/>
			<stop  offset="0.135" style="stop-color:#E4AE71;stop-opacity:0.3478"/>
			<stop  offset="0.3487" style="stop-color:#B58650;stop-opacity:0.8"/>
			<stop  offset="0.349" style="stop-color:#B58650;stop-opacity:0.8003"/>
			<stop  offset="0.4296" style="stop-color:#84623A;stop-opacity:0.8914"/>
			<stop  offset="0.491" style="stop-color:#664C2D;stop-opacity:0.9608"/>
			<stop  offset="0.5256" style="stop-color:#5B4428"/>
			<stop  offset="0.5907" style="stop-color:#8A673D"/>
			<stop  offset="0.6428" style="stop-color:#A97D4B"/>
			<stop  offset="0.6718" style="stop-color:#B58650"/>
			<stop  offset="0.7151" style="stop-color:#BF8F57;stop-opacity:0.8813"/>
			<stop  offset="0.9033" style="stop-color:#E9B274;stop-opacity:0.3652"/>
			<stop  offset="1" style="stop-color:#F9BF7F;stop-opacity:0.1"/>
		</linearGradient>
		<path fill="url(#SVGID_2_)" d="M56.851,73.038h-38.5c-9.896,0-17.99-8.096-17.99-17.991V19.425c0-9.895,8.096-17.99,17.99-17.99
			h38.5c9.896,0,17.992,8.097,17.992,17.99v35.622C74.843,64.943,66.747,73.038,56.851,73.038z"/>
		<path fill="#E3E3E3" d="M51.419,65.014h-27.6c-9.895,0-17.99-8.097-17.99-17.99v-27.6c0-9.895,8.098-17.99,17.99-17.99h27.6
			c9.895,0,17.99,8.097,17.99,17.99v27.6C69.409,56.918,61.313,65.014,51.419,65.014z"/>
		
			<radialGradient id="SVGID_3_" cx="651.7109" cy="63.7356" r="117.528" gradientTransform="matrix(0.3598 0 0 -0.3577 -196.884 87.579)" gradientUnits="userSpaceOnUse">
			<stop  offset="0" style="stop-color:#FCE5CB"/>
			<stop  offset="0.1413" style="stop-color:#FBD9B3"/>
			<stop  offset="0.3172" style="stop-color:#FACD9C"/>
			<stop  offset="0.5072" style="stop-color:#F9C58C"/>
			<stop  offset="0.7195" style="stop-color:#F9C182"/>
			<stop  offset="1" style="stop-color:#F9BF7F"/>
		</radialGradient>
		<path fill="url(#SVGID_3_)" d="M51.167,64.403H24.036c-9.895,0-17.991-8.097-17.991-17.991V19.677
			c0-9.895,8.097-17.99,17.991-17.99h27.131c9.895,0,17.991,8.097,17.991,17.99v26.734C69.158,56.306,61.062,64.403,51.167,64.403z"
			/>
	</g>
	<g id="Calque_2">
		<g>
			<g>
				<path fill="#64D3ED" d="M-269.535-56.931c-0.237,0-0.396,0.035-0.477,0.104c-0.079,0.07-0.119,0.219-0.119,0.447v3.054h5.362
					c0.326,0,0.597,0.03,0.806,0.097c0.208,0.063,0.371,0.164,0.489,0.299c0.119,0.134,0.201,0.298,0.246,0.491
					c0.045,0.191,0.066,0.424,0.066,0.69v2.728c0,0.348-0.132,0.642-0.395,0.879c-0.264,0.236-0.633,0.356-1.109,0.356h-7.134
					l-0.283-1.652h6.285c0.258,0,0.417-0.058,0.476-0.172c0.062-0.113,0.092-0.262,0.092-0.439v-1.177
					c0-0.229-0.037-0.383-0.104-0.46c-0.069-0.081-0.237-0.12-0.507-0.12h-5.271c-0.349,0-0.627-0.097-0.834-0.29
					c-0.209-0.194-0.313-0.48-0.313-0.857v-4.394c0-0.367,0.128-0.67,0.387-0.909c0.259-0.238,0.626-0.356,1.103-0.356h6.121
					c0.479,0,0.834,0.113,1.073,0.343c0.238,0.229,0.354,0.535,0.354,0.924v2.069h-1.993v-1.132c0-0.229-0.037-0.373-0.111-0.432
					c-0.075-0.063-0.235-0.09-0.485-0.09H-269.535L-269.535-56.931z"/>
				<path fill="#64D3ED" d="M-243.14-56.886h-6.391v3.022h6.182l-0.133,1.551h-6.049v2.874h6.391l-0.18,1.652h-8.354v-10.828h8.28
					L-243.14-56.886z"/>
				<path fill="#64D3ED" d="M-221.989-47.786h-2.232l-0.135-2.31c-0.021-0.298-0.051-0.553-0.09-0.767
					c-0.039-0.213-0.113-0.393-0.224-0.536c-0.108-0.146-0.263-0.251-0.461-0.319c-0.199-0.069-0.462-0.104-0.79-0.104h-3.68v4.036
					h-2.146v-10.828h7.806c0.356,0,0.653,0.044,0.887,0.134c0.234,0.09,0.42,0.214,0.559,0.374c0.141,0.156,0.238,0.347,0.299,0.563
					c0.06,0.219,0.088,0.463,0.088,0.729v3.009c0,0.141-0.028,0.291-0.088,0.456c-0.061,0.162-0.162,0.313-0.306,0.445
					c-0.144,0.134-0.328,0.243-0.552,0.327c-0.225,0.085-0.498,0.127-0.826,0.127c0.496,0.021,0.891,0.151,1.186,0.396
					c0.291,0.244,0.447,0.579,0.469,1.006L-221.989-47.786z M-224.207-56.38c0-0.396-0.198-0.596-0.596-0.596h-4.796v3.604h4.75
					c0.18,0,0.312-0.021,0.396-0.065c0.084-0.045,0.146-0.104,0.187-0.181c0.041-0.072,0.061-0.155,0.061-0.245
					c0-0.089,0-0.174,0-0.254L-224.207-56.38L-224.207-56.38z"/>
				<path fill="#64D3ED" d="M-270.041-29.912h-2.146V-40.74h2.146V-29.912z"/>
				<path fill="#64D3ED" d="M-243.185-39.012h-6.391v3.022h6.182l-0.135,1.551h-6.047v2.874h6.391l-0.18,1.652h-8.354v-10.828h8.28
					L-243.185-39.012z"/>
				<path fill="#64D3ED" d="M-224.95-31.194c0-0.207,0.035-0.401,0.11-0.579c0.073-0.18,0.176-0.336,0.305-0.471
					c0.13-0.133,0.281-0.236,0.454-0.313c0.176-0.075,0.365-0.111,0.574-0.111c0.208,0,0.4,0.036,0.581,0.111
					c0.178,0.075,0.335,0.18,0.469,0.313c0.134,0.135,0.238,0.291,0.313,0.471c0.074,0.178,0.111,0.371,0.111,0.579
					c0,0.199-0.037,0.387-0.111,0.561c-0.074,0.173-0.18,0.325-0.313,0.454s-0.291,0.229-0.469,0.306
					c-0.181,0.073-0.373,0.111-0.581,0.111c-0.417,0-0.764-0.141-1.036-0.417C-224.815-30.459-224.95-30.796-224.95-31.194z"/>
			</g>
			<g>
				<path fill="#FFFFFF" d="M-268.293-56.931c-0.239,0-0.397,0.035-0.478,0.104c-0.08,0.069-0.119,0.219-0.119,0.447v3.053h5.363
					c0.326,0,0.594,0.031,0.803,0.098c0.209,0.063,0.373,0.164,0.492,0.299c0.117,0.133,0.199,0.299,0.246,0.491
					c0.043,0.191,0.065,0.424,0.065,0.69v2.728c0,0.348-0.132,0.641-0.396,0.879c-0.263,0.236-0.633,0.356-1.108,0.356h-7.134
					l-0.283-1.652h6.285c0.258,0,0.417-0.059,0.477-0.172c0.061-0.113,0.09-0.262,0.09-0.439v-1.177
					c0-0.229-0.035-0.383-0.104-0.461c-0.069-0.08-0.239-0.119-0.508-0.119h-5.272c-0.348,0-0.625-0.098-0.834-0.29
					c-0.208-0.194-0.312-0.48-0.312-0.857v-4.394c0-0.367,0.129-0.671,0.387-0.909c0.259-0.237,0.626-0.356,1.102-0.356h6.123
					c0.477,0,0.834,0.113,1.071,0.343c0.238,0.229,0.356,0.534,0.356,0.924v2.069h-1.996v-1.132c0-0.229-0.035-0.373-0.11-0.433
					c-0.073-0.062-0.235-0.089-0.483-0.089H-268.293L-268.293-56.931z"/>
				<path fill="#FFFFFF" d="M-241.899-56.886h-6.389v3.023h6.182l-0.135,1.55h-6.047v2.874h6.389l-0.178,1.652h-8.357v-10.828h8.283
					L-241.899-56.886z"/>
				<path fill="#FFFFFF" d="M-220.746-47.786h-2.233l-0.135-2.309c-0.021-0.299-0.051-0.554-0.09-0.768
					c-0.04-0.213-0.113-0.393-0.224-0.536c-0.11-0.145-0.263-0.251-0.462-0.32c-0.198-0.069-0.461-0.104-0.788-0.104h-3.681v4.037
					h-2.145v-10.828h7.805c0.357,0,0.652,0.043,0.887,0.134c0.232,0.09,0.42,0.214,0.559,0.373c0.141,0.157,0.238,0.348,0.298,0.564
					c0.06,0.218,0.089,0.463,0.089,0.73v3.008c0,0.141-0.029,0.291-0.089,0.456c-0.06,0.162-0.161,0.313-0.305,0.444
					c-0.146,0.135-0.328,0.244-0.552,0.327c-0.225,0.085-0.5,0.128-0.826,0.128c0.496,0.021,0.891,0.151,1.185,0.395
					c0.292,0.245,0.449,0.58,0.47,1.007L-220.746-47.786z M-222.966-56.38c0-0.397-0.199-0.596-0.596-0.596h-4.797v3.604h4.752
					c0.179,0,0.31-0.021,0.396-0.065c0.084-0.045,0.146-0.104,0.187-0.18c0.039-0.074,0.06-0.156,0.06-0.245
					c0-0.091,0-0.175,0-0.255L-222.966-56.38L-222.966-56.38z"/>
				<path fill="#FFFFFF" d="M-268.8-29.912h-2.145V-40.74h2.145V-29.912z"/>
				<path fill="#FFFFFF" d="M-241.944-39.012h-6.39v3.023h6.183l-0.135,1.55h-6.048v2.874h6.39l-0.179,1.652h-8.354v-10.828h8.281
					L-241.944-39.012z"/>
				<path fill="#FFFFFF" d="M-223.711-31.194c0-0.209,0.037-0.401,0.11-0.579c0.076-0.18,0.178-0.336,0.308-0.471
					c0.128-0.133,0.278-0.236,0.453-0.313c0.174-0.076,0.364-0.111,0.573-0.111s0.402,0.036,0.58,0.111
					c0.181,0.075,0.336,0.18,0.47,0.313c0.135,0.135,0.237,0.291,0.313,0.471c0.074,0.178,0.111,0.37,0.111,0.579
					c0,0.199-0.037,0.387-0.111,0.56c-0.076,0.173-0.18,0.326-0.313,0.455c-0.134,0.128-0.289,0.229-0.47,0.305
					c-0.178,0.074-0.371,0.111-0.58,0.111c-0.416,0-0.762-0.14-1.034-0.416C-223.575-30.459-223.711-30.796-223.711-31.194z"/>
			</g>
		</g>
	</g>
</g>
<g id="Calque_2_1_">
	<g>
		<path fill="#593D3F" d="M17.551,29.182c-0.247,0-0.411,0.036-0.494,0.108s-0.124,0.227-0.124,0.463v3.161h5.551
			c0.339,0,0.617,0.033,0.833,0.1c0.216,0.067,0.385,0.17,0.508,0.309c0.123,0.139,0.208,0.309,0.254,0.509
			c0.046,0.2,0.069,0.439,0.069,0.717v2.822c0,0.36-0.137,0.664-0.409,0.909c-0.272,0.248-0.655,0.371-1.148,0.371h-7.386
			l-0.293-1.711h6.507c0.267,0,0.432-0.06,0.493-0.178c0.062-0.118,0.093-0.27,0.093-0.455v-1.218c0-0.237-0.037-0.396-0.108-0.478
			c-0.072-0.082-0.247-0.124-0.524-0.124h-5.458c-0.36,0-0.647-0.1-0.863-0.301c-0.216-0.2-0.324-0.496-0.324-0.886V28.75
			c0-0.38,0.134-0.694,0.401-0.94c0.268-0.247,0.647-0.371,1.141-0.371h6.337c0.494,0,0.863,0.119,1.11,0.354
			c0.247,0.238,0.37,0.555,0.37,0.957v2.143h-2.066v-1.172c0-0.236-0.038-0.385-0.116-0.447c-0.077-0.062-0.244-0.093-0.501-0.093
			H17.551z"/>
		<path fill="#593D3F" d="M34.574,29.228h-6.615v3.13h6.399l-0.139,1.604h-6.26v2.976h6.615l-0.185,1.711h-8.65v-11.21h8.573
			L34.574,29.228z"/>
		<path fill="#593D3F" d="M46.17,38.65h-2.313l-0.14-2.39c-0.021-0.309-0.052-0.573-0.093-0.794
			c-0.041-0.221-0.118-0.406-0.231-0.555c-0.113-0.148-0.271-0.259-0.477-0.331c-0.205-0.072-0.479-0.108-0.818-0.108h-3.808v4.179
			H36.07v-11.21h8.079c0.37,0,0.676,0.047,0.918,0.139c0.241,0.093,0.435,0.222,0.578,0.386c0.145,0.165,0.247,0.36,0.308,0.586
			c0.062,0.226,0.094,0.478,0.094,0.755v3.115c0,0.144-0.032,0.301-0.094,0.47c-0.061,0.169-0.166,0.324-0.315,0.462
			c-0.148,0.139-0.34,0.252-0.57,0.339c-0.231,0.087-0.517,0.131-0.855,0.131c0.513,0.021,0.922,0.157,1.225,0.408
			c0.304,0.252,0.465,0.599,0.487,1.041L46.17,38.65z M43.872,29.753c0-0.411-0.206-0.617-0.616-0.617h-4.965v3.731h4.917
			c0.186,0,0.321-0.023,0.409-0.07c0.088-0.045,0.152-0.108,0.193-0.185c0.04-0.077,0.062-0.162,0.062-0.254
			c0-0.092,0-0.179,0-0.262V29.753z"/>
		<path fill="#593D3F" d="M50.009,38.65h-2.221v-11.21h2.221V38.65z"/>
		<path fill="#593D3F" d="M60.51,29.228h-6.615v3.13h6.399l-0.14,1.604h-6.26v2.976h6.615l-0.186,1.711h-8.651v-11.21h8.573
			L60.51,29.228z"/>
	</g>
	<path fill="#593D3F" d="M-297.898-250.735c0,6.447-5.762,9.935-12.215,9.935h-1.874c-6.453,0-10.912-3.488-10.912-9.935v-1.874
		c0-6.456,4.458-13.191,10.912-13.191h1.874c6.453,0,12.215,6.736,12.215,13.191V-250.735z"/>
	<path fill="#593D3F" d="M-192.898-263.392c0,1.021-0.931,1.592-1.953,1.592h-0.297c-1.022,0-1.75-0.57-1.75-1.592v-0.297
		c0-1.023,0.728-2.111,1.75-2.111h0.297c1.022,0,1.953,1.088,1.953,2.111V-263.392z"/>
</g>
</svg>
