<?xml version="1.0" encoding="utf-8"?>
<!-- Generator: Adobe Illustrator 16.0.0, SVG Export Plug-In . SVG Version: 6.00 Build 0)  -->
<!DOCTYPE svg PUBLIC "-//W3C//DTD SVG 1.1//EN" "http://www.w3.org/Graphics/SVG/1.1/DTD/svg11.dtd">
<svg version="1.1" id="Calque_3" xmlns="http://www.w3.org/2000/svg" xmlns:xlink="http://www.w3.org/1999/xlink" x="0px" y="0px"
	 width="300px" height="77.25px" viewBox="0 0 300 77.25" enable-background="new 0 0 300 77.25" xml:space="preserve">
<g>
	<g>
		<path fill="#64D3ED" d="M89.798,52.024h-4.459l-0.269-4.61c-0.04-0.595-0.099-1.103-0.178-1.529
			c-0.08-0.426-0.229-0.783-0.446-1.071s-0.525-0.501-0.921-0.639c-0.396-0.139-0.922-0.209-1.576-0.209h-7.345v8.059h-4.282V30.408
			h15.582c0.713,0,1.303,0.087,1.769,0.266s0.837,0.426,1.114,0.745c0.278,0.315,0.477,0.692,0.595,1.128s0.178,0.924,0.178,1.457
			v6.006c0,0.28-0.059,0.581-0.178,0.91c-0.119,0.324-0.322,0.624-0.61,0.891c-0.287,0.266-0.653,0.486-1.1,0.653
			c-0.447,0.169-0.996,0.254-1.65,0.254c0.991,0.041,1.779,0.303,2.364,0.786c0.584,0.489,0.896,1.157,0.937,2.009L89.798,52.024z
			 M85.367,34.868c0-0.792-0.396-1.188-1.189-1.188h-9.574v7.195h9.485c0.357,0,0.62-0.046,0.789-0.134
			c0.168-0.089,0.292-0.208,0.372-0.357c0.078-0.148,0.118-0.313,0.118-0.489c0-0.179,0-0.349,0-0.508V34.868z"/>
		<path fill="#64D3ED" d="M109.721,33.856H96.965v6.038h12.34l-0.268,3.093H96.965v5.737h12.756l-0.356,3.301H92.683V30.408h16.533
			L109.721,33.856z M107.64,24.639l-5.442,4.281h-2.825l3.777-4.281H107.64z"/>
		<path fill="#64D3ED" d="M118.047,33.767c-0.476,0-0.793,0.07-0.951,0.208c-0.16,0.14-0.238,0.436-0.238,0.893v6.095h10.705
			c0.653,0,1.189,0.063,1.606,0.194c0.416,0.128,0.743,0.326,0.981,0.595c0.237,0.267,0.4,0.596,0.49,0.98
			c0.089,0.385,0.134,0.847,0.134,1.382v5.442c0,0.694-0.264,1.279-0.789,1.754c-0.525,0.475-1.263,0.714-2.214,0.714h-14.244
			l-0.565-3.301h12.548c0.516,0,0.833-0.113,0.951-0.341c0.12-0.228,0.179-0.523,0.179-0.879v-2.35c0-0.455-0.07-0.762-0.208-0.92
			c-0.139-0.159-0.477-0.239-1.012-0.239h-10.526c-0.694,0-1.249-0.191-1.665-0.578c-0.417-0.388-0.625-0.958-0.625-1.711v-8.772
			c0-0.733,0.258-1.338,0.773-1.815c0.515-0.474,1.249-0.711,2.199-0.711H127.8c0.952,0,1.665,0.228,2.142,0.682
			c0.476,0.458,0.713,1.07,0.713,1.844v4.133h-3.984v-2.26c0-0.455-0.074-0.743-0.223-0.862c-0.149-0.121-0.471-0.179-0.967-0.179
			H118.047z"/>
		<path fill="#64D3ED" d="M138.12,52.024c-1.349,0-2.399-0.346-3.152-1.04c-0.754-0.695-1.13-1.765-1.13-3.212V30.408h4.371v17.096
			c0,0.496,0.089,0.825,0.269,0.98c0.178,0.159,0.525,0.239,1.041,0.239h8.385c0.515,0,0.877-0.085,1.085-0.254
			c0.208-0.167,0.312-0.499,0.312-0.995V30.408h4.372v17.365c0,1.447-0.376,2.517-1.13,3.212c-0.754,0.694-1.805,1.04-3.152,1.04
			H138.12z"/>
		<path fill="#64D3ED" d="M172.85,48.724l-0.327,3.301h-15.729V30.408h4.341v18.316H172.85z"/>
		<path fill="#64D3ED" d="M188.372,33.856h-6.81v18.168h-4.313V33.856h-7.434l0.744-3.448h18.555L188.372,33.856z"/>
		<path fill="#64D3ED" d="M193.101,47.651l-1.397,4.373h-4.521l7.107-21.617h9.217l7.048,21.617h-4.521l-1.397-4.373H193.101z
			 M194.022,44.56h9.692l-3.389-11.001h-2.885L194.022,44.56z"/>
		<path fill="#64D3ED" d="M227.177,33.856h-6.81v18.168h-4.313V33.856h-7.434l0.744-3.448h18.555L227.177,33.856z"/>
	</g>
	<g>
		<path fill="#593D3F" d="M91.798,52.024h-4.459l-0.269-4.61c-0.04-0.595-0.099-1.103-0.178-1.529
			c-0.08-0.426-0.229-0.783-0.446-1.071s-0.525-0.501-0.921-0.639c-0.396-0.139-0.922-0.209-1.576-0.209h-7.345v8.059h-4.282V30.408
			h15.582c0.713,0,1.303,0.087,1.769,0.266s0.837,0.426,1.114,0.745c0.278,0.315,0.477,0.692,0.595,1.128s0.178,0.924,0.178,1.457
			v6.006c0,0.28-0.059,0.581-0.178,0.91c-0.119,0.324-0.322,0.624-0.61,0.891c-0.287,0.266-0.653,0.486-1.1,0.653
			c-0.447,0.169-0.996,0.254-1.65,0.254c0.991,0.041,1.779,0.303,2.364,0.786c0.584,0.489,0.896,1.157,0.937,2.009L91.798,52.024z
			 M87.367,34.868c0-0.792-0.396-1.188-1.189-1.188h-9.574v7.195h9.485c0.357,0,0.62-0.046,0.789-0.134
			c0.168-0.089,0.292-0.208,0.372-0.357c0.078-0.148,0.118-0.313,0.118-0.489c0-0.179,0-0.349,0-0.508V34.868z"/>
		<path fill="#593D3F" d="M111.721,33.856H98.965v6.038h12.34l-0.268,3.093H98.965v5.737h12.756l-0.356,3.301H94.683V30.408h16.533
			L111.721,33.856z M109.64,24.639l-5.442,4.281h-2.825l3.777-4.281H109.64z"/>
		<path fill="#593D3F" d="M120.047,33.767c-0.476,0-0.793,0.07-0.951,0.208c-0.16,0.14-0.238,0.436-0.238,0.893v6.095h10.705
			c0.653,0,1.189,0.063,1.606,0.194c0.416,0.128,0.743,0.326,0.981,0.595c0.237,0.267,0.4,0.596,0.49,0.98
			c0.089,0.385,0.134,0.847,0.134,1.382v5.442c0,0.694-0.264,1.279-0.789,1.754c-0.525,0.475-1.263,0.714-2.214,0.714h-14.244
			l-0.565-3.301h12.548c0.516,0,0.833-0.113,0.951-0.341c0.12-0.228,0.179-0.523,0.179-0.879v-2.35c0-0.455-0.07-0.762-0.208-0.92
			c-0.139-0.159-0.477-0.239-1.012-0.239h-10.526c-0.694,0-1.249-0.191-1.665-0.578c-0.417-0.388-0.625-0.958-0.625-1.711v-8.772
			c0-0.733,0.258-1.338,0.773-1.815c0.515-0.474,1.249-0.711,2.199-0.711H129.8c0.952,0,1.665,0.228,2.142,0.682
			c0.476,0.458,0.713,1.07,0.713,1.844v4.133h-3.984v-2.26c0-0.455-0.074-0.743-0.223-0.862c-0.149-0.121-0.471-0.179-0.967-0.179
			H120.047z"/>
		<path fill="#593D3F" d="M140.12,52.024c-1.349,0-2.399-0.346-3.152-1.04c-0.754-0.695-1.13-1.765-1.13-3.212V30.408h4.371v17.096
			c0,0.496,0.089,0.825,0.269,0.98c0.178,0.159,0.525,0.239,1.041,0.239h8.385c0.515,0,0.877-0.085,1.085-0.254
			c0.208-0.167,0.312-0.499,0.312-0.995V30.408h4.372v17.365c0,1.447-0.376,2.517-1.13,3.212c-0.754,0.694-1.805,1.04-3.152,1.04
			H140.12z"/>
		<path fill="#593D3F" d="M174.85,48.724l-0.327,3.301h-15.729V30.408h4.341v18.316H174.85z"/>
		<path fill="#593D3F" d="M190.372,33.856h-6.81v18.168h-4.313V33.856h-7.434l0.744-3.448h18.555L190.372,33.856z"/>
		<path fill="#593D3F" d="M195.101,47.651l-1.397,4.373h-4.521l7.107-21.617h9.217l7.048,21.617h-4.521l-1.397-4.373H195.101z
			 M196.022,44.56h9.692l-3.389-11.001h-2.885L196.022,44.56z"/>
		<path fill="#593D3F" d="M229.177,33.856h-6.81v18.168h-4.313V33.856h-7.434l0.744-3.448h18.555L229.177,33.856z"/>
	</g>
</g>
</svg>
