<?xml version="1.0" encoding="utf-8"?>
<!-- Generator: Adobe Illustrator 16.0.0, SVG Export Plug-In . SVG Version: 6.00 Build 0)  -->
<!DOCTYPE svg PUBLIC "-//W3C//DTD SVG 1.1//EN" "http://www.w3.org/Graphics/SVG/1.1/DTD/svg11.dtd">
<svg version="1.1" xmlns="http://www.w3.org/2000/svg" xmlns:xlink="http://www.w3.org/1999/xlink" x="0px" y="0px" width="300px"
	 height="77.25px" viewBox="0 0 300 77.25" enable-background="new 0 0 300 77.25" xml:space="preserve">
<g id="Calque_1">
	<g>
		<g>
			<path fill="#64D3ED" d="M89.351,31.848h-6.352v16.949h-4.023V31.848h-6.935l0.694-3.218h17.309L89.351,31.848z"/>
			<path fill="#64D3ED" d="M96.091,48.797c-0.629,0-1.197-0.06-1.707-0.181c-0.509-0.12-0.942-0.318-1.304-0.596
				c-0.359-0.278-0.637-0.647-0.832-1.11c-0.194-0.462-0.291-1.026-0.291-1.692V32.209c0-0.666,0.097-1.23,0.291-1.693
				c0.194-0.462,0.472-0.833,0.832-1.11c0.362-0.277,0.795-0.475,1.304-0.596c0.51-0.12,1.077-0.181,1.707-0.181h10.597
				c0.627,0,1.196,0.061,1.705,0.181c0.51,0.121,0.944,0.319,1.304,0.596c0.362,0.277,0.638,0.648,0.833,1.11
				c0.194,0.462,0.291,1.027,0.291,1.693v13.009c0,0.666-0.097,1.229-0.291,1.692c-0.194,0.463-0.471,0.832-0.833,1.11
				c-0.359,0.278-0.794,0.476-1.304,0.596c-0.509,0.121-1.078,0.181-1.705,0.181H96.091z M95.953,44.608
				c0,0.463,0.078,0.768,0.236,0.916c0.156,0.148,0.475,0.222,0.957,0.222h8.376c0.481,0,0.818-0.079,1.012-0.236
				c0.196-0.157,0.292-0.467,0.292-0.93V32.847c0-0.462-0.097-0.772-0.292-0.929c-0.194-0.158-0.531-0.236-1.012-0.236h-8.376
				c-0.482,0-0.801,0.074-0.957,0.222c-0.158,0.149-0.236,0.454-0.236,0.916V44.608z"/>
			<path fill="#64D3ED" d="M131.486,40.614c0,0.777-0.25,1.388-0.748,1.831c-0.499,0.444-1.388,0.667-2.663,0.667h-10.402v5.686
				h-3.939V28.63h14.646c1.146,0,1.95,0.259,2.413,0.776c0.461,0.518,0.693,1.23,0.693,2.137V40.614z M127.797,32.764
				c0-0.351-0.061-0.62-0.181-0.805c-0.121-0.184-0.439-0.277-0.957-0.277h-8.987v8.459h8.931c0.462,0,0.777-0.06,0.944-0.179
				c0.166-0.121,0.25-0.366,0.25-0.736V32.764z"/>
			<path fill="#64D3ED" d="M147.658,31.765c-0.443,0-0.739,0.065-0.887,0.194c-0.149,0.13-0.223,0.408-0.223,0.833v5.686h9.987
				c0.609,0,1.109,0.06,1.498,0.18c0.388,0.121,0.693,0.306,0.916,0.555c0.221,0.25,0.374,0.556,0.457,0.916
				c0.083,0.359,0.125,0.79,0.125,1.29v5.075c0,0.648-0.247,1.193-0.736,1.637c-0.49,0.443-1.178,0.666-2.065,0.666h-13.287
				l-0.527-3.079h11.706c0.481,0,0.777-0.106,0.887-0.32c0.112-0.212,0.167-0.485,0.167-0.818v-2.191
				c0-0.425-0.066-0.712-0.194-0.86c-0.13-0.148-0.445-0.223-0.943-0.223h-9.82c-0.647,0-1.165-0.179-1.553-0.541
				c-0.388-0.36-0.583-0.892-0.583-1.595v-8.184c0-0.684,0.24-1.248,0.722-1.692c0.481-0.443,1.165-0.666,2.052-0.666h11.401
				c0.888,0,1.553,0.213,1.998,0.637c0.444,0.427,0.665,0.999,0.665,1.72v3.856h-3.717v-2.108c0-0.424-0.068-0.693-0.208-0.803
				c-0.139-0.112-0.439-0.167-0.902-0.167H147.658z"/>
			<path fill="#64D3ED" d="M178.2,31.848h-11.9v5.631h11.512l-0.249,2.885H166.3v5.354h11.9l-0.333,3.079h-15.562V28.63h15.423
				L178.2,31.848z"/>
			<path fill="#64D3ED" d="M199.06,48.797h-4.16l-0.25-4.299c-0.038-0.555-0.093-1.03-0.166-1.429
				c-0.075-0.397-0.214-0.73-0.417-0.999c-0.204-0.268-0.49-0.466-0.859-0.596c-0.371-0.128-0.86-0.194-1.471-0.194h-6.851v7.517
				h-3.994V28.63h14.535c0.665,0,1.216,0.083,1.65,0.25c0.435,0.167,0.781,0.398,1.04,0.694c0.26,0.296,0.444,0.648,0.556,1.055
				c0.11,0.406,0.166,0.86,0.166,1.358v5.603c0,0.259-0.056,0.542-0.166,0.847c-0.111,0.305-0.301,0.582-0.569,0.832
				c-0.268,0.25-0.609,0.453-1.026,0.61c-0.417,0.157-0.929,0.236-1.54,0.236c0.925,0.037,1.66,0.282,2.206,0.735
				c0.545,0.453,0.836,1.078,0.874,1.873L199.06,48.797z M194.926,32.792c0-0.739-0.371-1.11-1.11-1.11h-8.931v6.713h8.848
				c0.333,0,0.578-0.042,0.736-0.125c0.157-0.083,0.272-0.194,0.347-0.333c0.073-0.138,0.11-0.291,0.11-0.457s0-0.323,0-0.472
				V32.792z"/>
			<path fill="#64D3ED" d="M205.966,48.797h-3.994V28.63h3.994V48.797z"/>
			<path fill="#64D3ED" d="M224.856,31.848h-11.9v5.631h11.512l-0.25,2.885h-11.262v5.354h11.9l-0.333,3.079h-15.562V28.63h15.422
				L224.856,31.848z"/>
		</g>
		<g>
			<path fill="#593D3F" d="M91.351,31.848h-6.352v16.949h-4.023V31.848h-6.935l0.694-3.218h17.309L91.351,31.848z"/>
			<path fill="#593D3F" d="M98.091,48.797c-0.629,0-1.197-0.06-1.707-0.181c-0.509-0.12-0.942-0.318-1.304-0.596
				c-0.359-0.278-0.637-0.647-0.832-1.11c-0.194-0.462-0.291-1.026-0.291-1.692V32.209c0-0.666,0.097-1.23,0.291-1.693
				c0.194-0.462,0.472-0.833,0.832-1.11c0.362-0.277,0.795-0.475,1.304-0.596c0.51-0.12,1.077-0.181,1.707-0.181h10.597
				c0.627,0,1.196,0.061,1.705,0.181c0.51,0.121,0.944,0.319,1.304,0.596c0.362,0.277,0.638,0.648,0.833,1.11
				c0.194,0.462,0.291,1.027,0.291,1.693v13.009c0,0.666-0.097,1.229-0.291,1.692c-0.194,0.463-0.471,0.832-0.833,1.11
				c-0.359,0.278-0.794,0.476-1.304,0.596c-0.509,0.121-1.078,0.181-1.705,0.181H98.091z M97.953,44.608
				c0,0.463,0.078,0.768,0.236,0.916c0.156,0.148,0.475,0.222,0.957,0.222h8.376c0.481,0,0.818-0.079,1.012-0.236
				c0.196-0.157,0.292-0.467,0.292-0.93V32.847c0-0.462-0.097-0.772-0.292-0.929c-0.194-0.158-0.531-0.236-1.012-0.236h-8.376
				c-0.482,0-0.801,0.074-0.957,0.222c-0.158,0.149-0.236,0.454-0.236,0.916V44.608z"/>
			<path fill="#593D3F" d="M133.486,40.614c0,0.777-0.25,1.388-0.748,1.831c-0.499,0.444-1.388,0.667-2.663,0.667h-10.402v5.686
				h-3.939V28.63h14.646c1.146,0,1.95,0.259,2.413,0.776c0.461,0.518,0.693,1.23,0.693,2.137V40.614z M129.797,32.764
				c0-0.351-0.061-0.62-0.181-0.805c-0.121-0.184-0.439-0.277-0.957-0.277h-8.987v8.459h8.931c0.462,0,0.777-0.06,0.944-0.179
				c0.166-0.121,0.25-0.366,0.25-0.736V32.764z"/>
			<path fill="#593D3F" d="M149.658,31.765c-0.443,0-0.739,0.065-0.887,0.194c-0.149,0.13-0.223,0.408-0.223,0.833v5.686h9.987
				c0.609,0,1.109,0.06,1.498,0.18c0.388,0.121,0.693,0.306,0.916,0.555c0.221,0.25,0.374,0.556,0.457,0.916
				c0.083,0.359,0.125,0.79,0.125,1.29v5.075c0,0.648-0.247,1.193-0.736,1.637c-0.49,0.443-1.178,0.666-2.065,0.666h-13.287
				l-0.527-3.079h11.706c0.481,0,0.777-0.106,0.887-0.32c0.112-0.212,0.167-0.485,0.167-0.818v-2.191
				c0-0.425-0.066-0.712-0.194-0.86c-0.13-0.148-0.445-0.223-0.943-0.223h-9.82c-0.647,0-1.165-0.179-1.553-0.541
				c-0.388-0.36-0.583-0.892-0.583-1.595v-8.184c0-0.684,0.24-1.248,0.722-1.692c0.481-0.443,1.165-0.666,2.052-0.666h11.401
				c0.888,0,1.553,0.213,1.998,0.637c0.444,0.427,0.665,0.999,0.665,1.72v3.856h-3.717v-2.108c0-0.424-0.068-0.693-0.208-0.803
				c-0.139-0.112-0.439-0.167-0.902-0.167H149.658z"/>
			<path fill="#593D3F" d="M180.2,31.848h-11.9v5.631h11.512l-0.249,2.885H168.3v5.354h11.9l-0.333,3.079h-15.562V28.63h15.423
				L180.2,31.848z"/>
			<path fill="#593D3F" d="M201.06,48.797h-4.16l-0.25-4.299c-0.038-0.555-0.093-1.03-0.166-1.429
				c-0.075-0.397-0.214-0.73-0.417-0.999c-0.204-0.268-0.49-0.466-0.859-0.596c-0.371-0.128-0.86-0.194-1.471-0.194h-6.851v7.517
				h-3.994V28.63h14.535c0.665,0,1.216,0.083,1.65,0.25c0.435,0.167,0.781,0.398,1.04,0.694c0.26,0.296,0.444,0.648,0.556,1.055
				c0.11,0.406,0.166,0.86,0.166,1.358v5.603c0,0.259-0.056,0.542-0.166,0.847c-0.111,0.305-0.301,0.582-0.569,0.832
				c-0.268,0.25-0.609,0.453-1.026,0.61c-0.417,0.157-0.929,0.236-1.54,0.236c0.925,0.037,1.66,0.282,2.206,0.735
				c0.545,0.453,0.836,1.078,0.874,1.873L201.06,48.797z M196.926,32.792c0-0.739-0.371-1.11-1.11-1.11h-8.931v6.713h8.848
				c0.333,0,0.578-0.042,0.736-0.125c0.157-0.083,0.272-0.194,0.347-0.333c0.073-0.138,0.11-0.291,0.11-0.457s0-0.323,0-0.472
				V32.792z"/>
			<path fill="#593D3F" d="M207.966,48.797h-3.994V28.63h3.994V48.797z"/>
			<path fill="#593D3F" d="M226.856,31.848h-11.9v5.631h11.512l-0.25,2.885h-11.262v5.354h11.9l-0.333,3.079h-15.562V28.63h15.422
				L226.856,31.848z"/>
		</g>
	</g>
</g>
<g id="Calque_2">
</g>
</svg>
